<?xml version="1.0" encoding="UTF-8" standalone="no"?><svg xmlns="http://www.w3.org/2000/svg" xmlns:xlink="http://www.w3.org/1999/xlink" contentScriptType="application/ecmascript" contentStyleType="text/css" height="723px" preserveAspectRatio="none" style="width:1587px;height:723px;background:#FFFFFF;" version="1.1" viewBox="0 0 1587 723" width="1587px" zoomAndPan="magnify"><defs/><g><rect codeLine="6" fill="#FFFFFF" height="206.9688" id="CompactCounter" style="stroke:#000000;stroke-width:1.5;" width="275" x="322" y="61"/><ellipse cx="396.75" cy="75" fill="#FFFFFF" rx="9" ry="9" style="stroke:#000000;stroke-width:1.0;"/><path d="M399.7188,80.6406 Q399.1406,80.9375 398.5,81.0859 Q397.8594,81.2344 397.1563,81.2344 Q394.6563,81.2344 393.3359,79.5859 Q392.0156,77.9375 392.0156,74.8125 Q392.0156,71.6875 393.3359,70.0313 Q394.6563,68.375 397.1563,68.375 Q397.8594,68.375 398.5078,68.5313 Q399.1563,68.6875 399.7188,68.9844 L399.7188,71.7031 Q399.0938,71.125 398.5,70.8516 Q397.9063,70.5781 397.2813,70.5781 Q395.9375,70.5781 395.25,71.6484 Q394.5625,72.7188 394.5625,74.8125 Q394.5625,76.9063 395.25,77.9766 Q395.9375,79.0469 397.2813,79.0469 Q397.9063,79.0469 398.5,78.7734 Q399.0938,78.5 399.7188,77.9219 L399.7188,80.6406 Z " fill="#000000"/><text fill="#000000" font-family="Verdana" font-size="14" lengthAdjust="spacing" textLength="118" x="414.25" y="79.8467">CompactCounter</text><line style="stroke:#000000;stroke-width:1.5;" x1="323" x2="596" y1="89" y2="89"/><rect fill="none" height="6" style="stroke:#000000;stroke-width:1.0;" width="6" x="330" y="97"/><text fill="#000000" font-family="Verdana" font-size="14" lengthAdjust="spacing" textLength="144" x="340" y="105.9951">counter: AtomicLong</text><rect fill="none" height="6" style="stroke:#000000;stroke-width:1.0;" width="6" x="330" y="113.2969"/><text fill="#000000" font-family="Verdana" font-size="14" lengthAdjust="spacing" textLength="83" x="340" y="122.292">clock: Clock</text><rect fill="none" height="6" style="stroke:#000000;stroke-width:1.0;" width="6" x="330" y="129.5938"/><text fill="#000000" font-family="Verdana" font-size="14" lengthAdjust="spacing" textLength="33" x="340" y="138.5889">id: Id</text><line style="stroke:#000000;stroke-width:1.5;" x1="323" x2="596" y1="145.8906" y2="145.8906"/><ellipse cx="333" cy="156.8906" fill="#FFFFFF" rx="3" ry="3" style="stroke:#000000;stroke-width:1.0;"/><text fill="#000000" font-family="Verdana" font-size="14" lengthAdjust="spacing" textLength="145" x="340" y="162.8857">CompactCounter(Id):</text><ellipse cx="333" cy="173.1875" fill="#FFFFFF" rx="3" ry="3" style="stroke:#000000;stroke-width:1.0;"/><text fill="#000000" font-family="Verdana" font-size="14" lengthAdjust="spacing" textLength="191" x="340" y="179.1826">CompactCounter(Id, Clock):</text><ellipse cx="333" cy="189.4844" fill="#FFFFFF" rx="3" ry="3" style="stroke:#000000;stroke-width:1.0;"/><text fill="#000000" font-family="Verdana" font-size="14" lengthAdjust="spacing" textLength="66" x="340" y="195.4795">getId(): Id</text><ellipse cx="333" cy="205.7813" fill="#FFFFFF" rx="3" ry="3" style="stroke:#000000;stroke-width:1.0;"/><text fill="#000000" font-family="Verdana" font-size="14" lengthAdjust="spacing" textLength="138" x="340" y="211.7764">increase(long): long</text><ellipse cx="333" cy="222.0781" fill="#FFFFFF" rx="3" ry="3" style="stroke:#000000;stroke-width:1.0;"/><text fill="#000000" font-family="Verdana" font-size="14" lengthAdjust="spacing" textLength="251" x="340" y="228.0732">measure(): Iterable&lt;Measurement&gt;</text><ellipse cx="333" cy="238.375" fill="#FFFFFF" rx="3" ry="3" style="stroke:#000000;stroke-width:1.0;"/><text fill="#000000" font-family="Verdana" font-size="14" lengthAdjust="spacing" textLength="72" x="340" y="244.3701">get(): long</text><ellipse cx="333" cy="254.6719" fill="#FFFFFF" rx="3" ry="3" style="stroke:#000000;stroke-width:1.0;"/><text fill="#000000" font-family="Verdana" font-size="14" lengthAdjust="spacing" textLength="144" x="340" y="260.667">decrease(long): long</text><rect codeLine="18" fill="#FFFFFF" height="174.375" id="CompactGauge" style="stroke:#000000;stroke-width:1.5;" width="302" x="967.5" y="77.5"/><ellipse cx="1055.25" cy="91.5" fill="#FFFFFF" rx="9" ry="9" style="stroke:#000000;stroke-width:1.0;"/><path d="M1058.2188,97.1406 Q1057.6406,97.4375 1057,97.5859 Q1056.3594,97.7344 1055.6563,97.7344 Q1053.1563,97.7344 1051.8359,96.0859 Q1050.5156,94.4375 1050.5156,91.3125 Q1050.5156,88.1875 1051.8359,86.5313 Q1053.1563,84.875 1055.6563,84.875 Q1056.3594,84.875 1057.0078,85.0313 Q1057.6563,85.1875 1058.2188,85.4844 L1058.2188,88.2031 Q1057.5938,87.625 1057,87.3516 Q1056.4063,87.0781 1055.7813,87.0781 Q1054.4375,87.0781 1053.75,88.1484 Q1053.0625,89.2188 1053.0625,91.3125 Q1053.0625,93.4063 1053.75,94.4766 Q1054.4375,95.5469 1055.7813,95.5469 Q1056.4063,95.5469 1057,95.2734 Q1057.5938,95 1058.2188,94.4219 L1058.2188,97.1406 Z " fill="#000000"/><text fill="#000000" font-family="Verdana" font-size="14" lengthAdjust="spacing" textLength="108" x="1072.75" y="96.3467">CompactGauge</text><rect fill="#FFFFFF" height="15.9688" style="stroke:#000000;stroke-width:1.0;stroke-dasharray:2.0,2.0;" width="9" x="1263.5" y="74.5"/><text fill="#000000" font-family="Verdana" font-size="12" font-style="italic" lengthAdjust="spacing" textLength="7" x="1264.5" y="86.6387">T</text><line style="stroke:#000000;stroke-width:1.5;" x1="968.5" x2="1268.5" y1="105.5" y2="105.5"/><rect fill="none" height="6" style="stroke:#000000;stroke-width:1.0;" width="6" x="975.5" y="113.5"/><text fill="#000000" font-family="Verdana" font-size="14" lengthAdjust="spacing" textLength="153" x="985.5" y="122.4951">supplier: Supplier&lt;T&gt;</text><rect fill="none" height="6" style="stroke:#000000;stroke-width:1.0;" width="6" x="975.5" y="129.7969"/><text fill="#000000" font-family="Verdana" font-size="14" lengthAdjust="spacing" textLength="33" x="985.5" y="138.792">id: Id</text><rect fill="none" height="6" style="stroke:#000000;stroke-width:1.0;" width="6" x="975.5" y="146.0938"/><text fill="#000000" font-family="Verdana" font-size="14" lengthAdjust="spacing" textLength="83" x="985.5" y="155.0889">clock: Clock</text><line style="stroke:#000000;stroke-width:1.5;" x1="968.5" x2="1268.5" y1="162.3906" y2="162.3906"/><ellipse cx="978.5" cy="173.3906" fill="#FFFFFF" rx="3" ry="3" style="stroke:#000000;stroke-width:1.0;"/><text fill="#000000" font-family="Verdana" font-size="14" lengthAdjust="spacing" textLength="278" x="985.5" y="179.3857">CompactGauge(Id, Supplier&lt;T&gt;, Clock):</text><ellipse cx="978.5" cy="189.6875" fill="#FFFFFF" rx="3" ry="3" style="stroke:#000000;stroke-width:1.0;"/><text fill="#000000" font-family="Verdana" font-size="14" lengthAdjust="spacing" textLength="232" x="985.5" y="195.6826">CompactGauge(Id, Supplier&lt;T&gt;):</text><ellipse cx="978.5" cy="205.9844" fill="#FFFFFF" rx="3" ry="3" style="stroke:#000000;stroke-width:1.0;"/><text fill="#000000" font-family="Verdana" font-size="14" lengthAdjust="spacing" textLength="251" x="985.5" y="211.9795">measure(): Iterable&lt;Measurement&gt;</text><ellipse cx="978.5" cy="222.2813" fill="#FFFFFF" rx="3" ry="3" style="stroke:#000000;stroke-width:1.0;"/><text fill="#000000" font-family="Verdana" font-size="14" lengthAdjust="spacing" textLength="66" x="985.5" y="228.2764">getId(): Id</text><ellipse cx="978.5" cy="238.5781" fill="#FFFFFF" rx="3" ry="3" style="stroke:#000000;stroke-width:1.0;"/><text fill="#000000" font-family="Verdana" font-size="14" lengthAdjust="spacing" textLength="51" x="985.5" y="244.5732">get(): T</text><rect codeLine="28" fill="#FFFFFF" height="174.375" id="CompactRegistry" style="stroke:#000000;stroke-width:1.5;" width="300" x="632.5" y="77.5"/><ellipse cx="719.75" cy="91.5" fill="#FFFFFF" rx="9" ry="9" style="stroke:#000000;stroke-width:1.0;"/><path d="M722.7188,97.1406 Q722.1406,97.4375 721.5,97.5859 Q720.8594,97.7344 720.1563,97.7344 Q717.6563,97.7344 716.3359,96.0859 Q715.0156,94.4375 715.0156,91.3125 Q715.0156,88.1875 716.3359,86.5313 Q717.6563,84.875 720.1563,84.875 Q720.8594,84.875 721.5078,85.0313 Q722.1563,85.1875 722.7188,85.4844 L722.7188,88.2031 Q722.0938,87.625 721.5,87.3516 Q720.9063,87.0781 720.2813,87.0781 Q718.9375,87.0781 718.25,88.1484 Q717.5625,89.2188 717.5625,91.3125 Q717.5625,93.4063 718.25,94.4766 Q718.9375,95.5469 720.2813,95.5469 Q720.9063,95.5469 721.5,95.2734 Q722.0938,95 722.7188,94.4219 L722.7188,97.1406 Z " fill="#000000"/><text fill="#000000" font-family="Verdana" font-size="14" lengthAdjust="spacing" textLength="118" x="737.25" y="96.3467">CompactRegistry</text><line style="stroke:#000000;stroke-width:1.5;" x1="633.5" x2="931.5" y1="105.5" y2="105.5"/><rect fill="none" height="6" style="stroke:#000000;stroke-width:1.0;" width="6" x="640.5" y="113.5"/><text fill="#000000" font-family="Verdana" font-size="14" lengthAdjust="spacing" textLength="202" x="650.5" y="122.4951">METERS: Map&lt;UUID, Meter&gt;</text><line style="stroke:#000000;stroke-width:1.5;" x1="633.5" x2="931.5" y1="129.7969" y2="129.7969"/><ellipse cx="643.5" cy="140.7969" fill="#FFFFFF" rx="3" ry="3" style="stroke:#000000;stroke-width:1.0;"/><text fill="#000000" font-family="Verdana" font-size="14" lengthAdjust="spacing" textLength="133" x="650.5" y="146.792">CompactRegistry():</text><ellipse cx="643.5" cy="157.0938" fill="#FFFFFF" rx="3" ry="3" style="stroke:#000000;stroke-width:1.0;"/><text fill="#000000" font-family="Verdana" font-size="14" lengthAdjust="spacing" textLength="276" x="650.5" y="163.0889">getGauge(Id, Supplier&lt;T&gt;): Gauge&lt;T&gt;</text><ellipse cx="643.5" cy="173.3906" fill="#FFFFFF" rx="3" ry="3" style="stroke:#000000;stroke-width:1.0;"/><text fill="#000000" font-family="Verdana" font-size="14" lengthAdjust="spacing" textLength="251" x="650.5" y="179.3857">measure(): Iterable&lt;Measurement&gt;</text><ellipse cx="643.5" cy="189.6875" fill="#FFFFFF" rx="3" ry="3" style="stroke:#000000;stroke-width:1.0;"/><text fill="#000000" font-family="Verdana" font-size="14" lengthAdjust="spacing" textLength="182" x="650.5" y="195.6826">getSummary(Id): Summary</text><ellipse cx="643.5" cy="205.9844" fill="#FFFFFF" rx="3" ry="3" style="stroke:#000000;stroke-width:1.0;"/><text fill="#000000" font-family="Verdana" font-size="14" lengthAdjust="spacing" textLength="166" x="650.5" y="211.9795">getCounter(Id): Counter</text><ellipse cx="643.5" cy="222.2813" fill="#FFFFFF" rx="3" ry="3" style="stroke:#000000;stroke-width:1.0;"/><text fill="#000000" font-family="Verdana" font-size="14" lengthAdjust="spacing" textLength="99" x="650.5" y="228.2764">clearUp(): void</text><ellipse cx="643.5" cy="238.5781" fill="#FFFFFF" rx="3" ry="3" style="stroke:#000000;stroke-width:1.0;"/><text fill="#000000" font-family="Verdana" font-size="14" lengthAdjust="spacing" textLength="132" x="650.5" y="244.5732">getTimer(Id): Timer</text><rect codeLine="38" fill="#FFFFFF" height="272.1563" id="CompactSummary" style="stroke:#000000;stroke-width:1.5;" width="275" x="12" y="28.5"/><ellipse cx="82.75" cy="42.5" fill="#FFFFFF" rx="9" ry="9" style="stroke:#000000;stroke-width:1.0;"/><path d="M85.7188,48.1406 Q85.1406,48.4375 84.5,48.5859 Q83.8594,48.7344 83.1563,48.7344 Q80.6563,48.7344 79.3359,47.0859 Q78.0156,45.4375 78.0156,42.3125 Q78.0156,39.1875 79.3359,37.5313 Q80.6563,35.875 83.1563,35.875 Q83.8594,35.875 84.5078,36.0313 Q85.1563,36.1875 85.7188,36.4844 L85.7188,39.2031 Q85.0938,38.625 84.5,38.3516 Q83.9063,38.0781 83.2813,38.0781 Q81.9375,38.0781 81.25,39.1484 Q80.5625,40.2188 80.5625,42.3125 Q80.5625,44.4063 81.25,45.4766 Q81.9375,46.5469 83.2813,46.5469 Q83.9063,46.5469 84.5,46.2734 Q85.0938,46 85.7188,45.4219 L85.7188,48.1406 Z " fill="#000000"/><text fill="#000000" font-family="Verdana" font-size="14" lengthAdjust="spacing" textLength="126" x="100.25" y="47.3467">CompactSummary</text><line style="stroke:#000000;stroke-width:1.5;" x1="13" x2="286" y1="56.5" y2="56.5"/><rect fill="none" height="6" style="stroke:#000000;stroke-width:1.0;" width="6" x="20" y="64.5"/><text fill="#000000" font-family="Verdana" font-size="14" lengthAdjust="spacing" textLength="73" x="30" y="73.4951">countId: Id</text><rect fill="none" height="6" style="stroke:#000000;stroke-width:1.0;" width="6" x="20" y="80.7969"/><text fill="#000000" font-family="Verdana" font-size="14" lengthAdjust="spacing" textLength="83" x="30" y="89.792">clock: Clock</text><rect fill="none" height="6" style="stroke:#000000;stroke-width:1.0;" width="6" x="20" y="97.0938"/><text fill="#000000" font-family="Verdana" font-size="14" lengthAdjust="spacing" textLength="63" x="30" y="106.0889">totalId: Id</text><rect fill="none" height="6" style="stroke:#000000;stroke-width:1.0;" width="6" x="20" y="113.3906"/><text fill="#000000" font-family="Verdana" font-size="14" lengthAdjust="spacing" textLength="33" x="30" y="122.3857">id: Id</text><rect fill="none" height="6" style="stroke:#000000;stroke-width:1.0;" width="6" x="20" y="129.6875"/><text fill="#000000" font-family="Verdana" font-size="14" lengthAdjust="spacing" textLength="147" x="30" y="138.6826">value: SummaryValue</text><rect fill="none" height="6" style="stroke:#000000;stroke-width:1.0;" width="6" x="20" y="145.9844"/><text fill="#000000" font-family="Verdana" font-size="14" lengthAdjust="spacing" textLength="55" x="30" y="154.9795">tpsId: Id</text><line style="stroke:#000000;stroke-width:1.5;" x1="13" x2="286" y1="162.2813" y2="162.2813"/><ellipse cx="23" cy="173.2813" fill="#FFFFFF" rx="3" ry="3" style="stroke:#000000;stroke-width:1.0;"/><text fill="#000000" font-family="Verdana" font-size="14" lengthAdjust="spacing" textLength="199" x="30" y="179.2764">CompactSummary(Id, Clock):</text><ellipse cx="23" cy="189.5781" fill="#FFFFFF" rx="3" ry="3" style="stroke:#000000;stroke-width:1.0;"/><text fill="#000000" font-family="Verdana" font-size="14" lengthAdjust="spacing" textLength="153" x="30" y="195.5732">CompactSummary(Id):</text><ellipse cx="23" cy="205.875" fill="#FFFFFF" rx="3" ry="3" style="stroke:#000000;stroke-width:1.0;"/><text fill="#000000" font-family="Verdana" font-size="14" lengthAdjust="spacing" textLength="66" x="30" y="211.8701">getId(): Id</text><ellipse cx="23" cy="222.1719" fill="#FFFFFF" rx="3" ry="3" style="stroke:#000000;stroke-width:1.0;"/><text fill="#000000" font-family="Verdana" font-size="14" lengthAdjust="spacing" textLength="89" x="30" y="228.167">tps(): double</text><ellipse cx="23" cy="238.4688" fill="#FFFFFF" rx="3" ry="3" style="stroke:#000000;stroke-width:1.0;"/><text fill="#000000" font-family="Verdana" font-size="14" lengthAdjust="spacing" textLength="89" x="30" y="244.4639">count(): long</text><ellipse cx="23" cy="254.7656" fill="#FFFFFF" rx="3" ry="3" style="stroke:#000000;stroke-width:1.0;"/><text fill="#000000" font-family="Verdana" font-size="14" lengthAdjust="spacing" textLength="79" x="30" y="260.7607">total(): long</text><ellipse cx="23" cy="271.0625" fill="#FFFFFF" rx="3" ry="3" style="stroke:#000000;stroke-width:1.0;"/><text fill="#000000" font-family="Verdana" font-size="14" lengthAdjust="spacing" textLength="136" x="30" y="277.0576">increase(long): void</text><ellipse cx="23" cy="287.3594" fill="#FFFFFF" rx="3" ry="3" style="stroke:#000000;stroke-width:1.0;"/><text fill="#000000" font-family="Verdana" font-size="14" lengthAdjust="spacing" textLength="251" x="30" y="293.3545">measure(): Iterable&lt;Measurement&gt;</text><rect codeLine="54" fill="#FFFFFF" height="304.75" id="CompactTimer" style="stroke:#000000;stroke-width:1.5;" width="275" x="1305" y="12"/><ellipse cx="1388.25" cy="26" fill="#FFFFFF" rx="9" ry="9" style="stroke:#000000;stroke-width:1.0;"/><path d="M1391.2188,31.6406 Q1390.6406,31.9375 1390,32.0859 Q1389.3594,32.2344 1388.6563,32.2344 Q1386.1563,32.2344 1384.8359,30.5859 Q1383.5156,28.9375 1383.5156,25.8125 Q1383.5156,22.6875 1384.8359,21.0313 Q1386.1563,19.375 1388.6563,19.375 Q1389.3594,19.375 1390.0078,19.5313 Q1390.6563,19.6875 1391.2188,19.9844 L1391.2188,22.7031 Q1390.5938,22.125 1390,21.8516 Q1389.4063,21.5781 1388.7813,21.5781 Q1387.4375,21.5781 1386.75,22.6484 Q1386.0625,23.7188 1386.0625,25.8125 Q1386.0625,27.9063 1386.75,28.9766 Q1387.4375,30.0469 1388.7813,30.0469 Q1389.4063,30.0469 1390,29.7734 Q1390.5938,29.5 1391.2188,28.9219 L1391.2188,31.6406 Z " fill="#000000"/><text fill="#000000" font-family="Verdana" font-size="14" lengthAdjust="spacing" textLength="101" x="1405.75" y="30.8467">CompactTimer</text><line style="stroke:#000000;stroke-width:1.5;" x1="1306" x2="1579" y1="40" y2="40"/><rect fill="none" height="6" style="stroke:#000000;stroke-width:1.0;" width="6" x="1313" y="48"/><text fill="#000000" font-family="Verdana" font-size="14" lengthAdjust="spacing" textLength="63" x="1323" y="56.9951">totalId: Id</text><rect fill="none" height="6" style="stroke:#000000;stroke-width:1.0;" width="6" x="1313" y="64.2969"/><text fill="#000000" font-family="Verdana" font-size="14" lengthAdjust="spacing" textLength="88" x="1323" y="73.292">averageId: Id</text><rect fill="none" height="6" style="stroke:#000000;stroke-width:1.0;" width="6" x="1313" y="80.5938"/><text fill="#000000" font-family="Verdana" font-size="14" lengthAdjust="spacing" textLength="83" x="1323" y="89.5889">clock: Clock</text><rect fill="none" height="6" style="stroke:#000000;stroke-width:1.0;" width="6" x="1313" y="96.8906"/><text fill="#000000" font-family="Verdana" font-size="14" lengthAdjust="spacing" textLength="33" x="1323" y="105.8857">id: Id</text><rect fill="none" height="6" style="stroke:#000000;stroke-width:1.0;" width="6" x="1313" y="113.1875"/><text fill="#000000" font-family="Verdana" font-size="14" lengthAdjust="spacing" textLength="73" x="1323" y="122.1826">countId: Id</text><rect fill="none" height="6" style="stroke:#000000;stroke-width:1.0;" width="6" x="1313" y="129.4844"/><text fill="#000000" font-family="Verdana" font-size="14" lengthAdjust="spacing" textLength="61" x="1323" y="138.4795">maxId: Id</text><rect fill="none" height="6" style="stroke:#000000;stroke-width:1.0;" width="6" x="1313" y="145.7813"/><text fill="#000000" font-family="Verdana" font-size="14" lengthAdjust="spacing" textLength="122" x="1323" y="154.7764">value: TimerValue</text><line style="stroke:#000000;stroke-width:1.5;" x1="1306" x2="1579" y1="162.0781" y2="162.0781"/><ellipse cx="1316" cy="173.0781" fill="#FFFFFF" rx="3" ry="3" style="stroke:#000000;stroke-width:1.0;"/><text fill="#000000" font-family="Verdana" font-size="14" lengthAdjust="spacing" textLength="128" x="1323" y="179.0732">CompactTimer(Id):</text><ellipse cx="1316" cy="189.375" fill="#FFFFFF" rx="3" ry="3" style="stroke:#000000;stroke-width:1.0;"/><text fill="#000000" font-family="Verdana" font-size="14" lengthAdjust="spacing" textLength="174" x="1323" y="195.3701">CompactTimer(Id, Clock):</text><ellipse cx="1316" cy="205.6719" fill="#FFFFFF" rx="3" ry="3" style="stroke:#000000;stroke-width:1.0;"/><text fill="#000000" font-family="Verdana" font-size="14" lengthAdjust="spacing" textLength="191" x="1323" y="211.667">record(long, TimeUnit): void</text><ellipse cx="1316" cy="221.9688" fill="#FFFFFF" rx="3" ry="3" style="stroke:#000000;stroke-width:1.0;"/><text fill="#000000" font-family="Verdana" font-size="14" lengthAdjust="spacing" textLength="77" x="1323" y="227.9639">max(): long</text><ellipse cx="1316" cy="238.2656" fill="#FFFFFF" rx="3" ry="3" style="stroke:#000000;stroke-width:1.0;"/><text fill="#000000" font-family="Verdana" font-size="14" lengthAdjust="spacing" textLength="251" x="1323" y="244.2607">measure(): Iterable&lt;Measurement&gt;</text><ellipse cx="1316" cy="254.5625" fill="#FFFFFF" rx="3" ry="3" style="stroke:#000000;stroke-width:1.0;"/><text fill="#000000" font-family="Verdana" font-size="14" lengthAdjust="spacing" textLength="66" x="1323" y="260.5576">getId(): Id</text><ellipse cx="1316" cy="270.8594" fill="#FFFFFF" rx="3" ry="3" style="stroke:#000000;stroke-width:1.0;"/><text fill="#000000" font-family="Verdana" font-size="14" lengthAdjust="spacing" textLength="89" x="1323" y="276.8545">count(): long</text><ellipse cx="1316" cy="287.1563" fill="#FFFFFF" rx="3" ry="3" style="stroke:#000000;stroke-width:1.0;"/><text fill="#000000" font-family="Verdana" font-size="14" lengthAdjust="spacing" textLength="79" x="1323" y="293.1514">total(): long</text><ellipse cx="1316" cy="303.4531" fill="#FFFFFF" rx="3" ry="3" style="stroke:#000000;stroke-width:1.0;"/><text fill="#000000" font-family="Verdana" font-size="14" lengthAdjust="spacing" textLength="122" x="1323" y="309.4482">average(): double</text><rect codeLine="72" fill="#FFFFFF" height="105.1563" id="Counter" style="stroke:#000000;stroke-width:1.5;" width="168" x="561.5" y="420"/><ellipse cx="608.75" cy="440.1328" fill="#FFFFFF" rx="9" ry="9" style="stroke:#000000;stroke-width:1.0;"/><path d="M604.6719,435.8984 L604.6719,433.7422 L612.0625,433.7422 L612.0625,435.8984 L609.5938,435.8984 L609.5938,443.9766 L612.0625,443.9766 L612.0625,446.1328 L604.6719,446.1328 L604.6719,443.9766 L607.1406,443.9766 L607.1406,435.8984 L604.6719,435.8984 Z " fill="#000000"/><text fill="#000000" font-family="Verdana" font-size="12" font-style="italic" lengthAdjust="spacing" textLength="70" x="624.25" y="436.1387">«interface»</text><text fill="#000000" font-family="Verdana" font-size="14" font-style="italic" lengthAdjust="spacing" textLength="56" x="631.25" y="451.9639">Counter</text><line style="stroke:#000000;stroke-width:1.5;" x1="562.5" x2="728.5" y1="460.2656" y2="460.2656"/><line style="stroke:#000000;stroke-width:1.5;" x1="562.5" x2="728.5" y1="468.2656" y2="468.2656"/><ellipse cx="572.5" cy="479.2656" fill="#FFFFFF" rx="3" ry="3" style="stroke:#000000;stroke-width:1.0;"/><text fill="#000000" font-family="Verdana" font-size="14" lengthAdjust="spacing" textLength="144" x="579.5" y="485.2607">decrease(long): long</text><ellipse cx="572.5" cy="495.5625" fill="#FFFFFF" rx="3" ry="3" style="stroke:#000000;stroke-width:1.0;"/><text fill="#000000" font-family="Verdana" font-size="14" lengthAdjust="spacing" textLength="138" x="579.5" y="501.5576">increase(long): long</text><ellipse cx="572.5" cy="511.8594" fill="#FFFFFF" rx="3" ry="3" style="stroke:#000000;stroke-width:1.0;"/><text fill="#000000" font-family="Verdana" font-size="14" lengthAdjust="spacing" textLength="72" x="579.5" y="517.8545">get(): long</text><rect codeLine="77" fill="#FFFFFF" height="72.5625" id="Gauge" style="stroke:#000000;stroke-width:1.5;" width="105" x="836" y="436"/><ellipse cx="849" cy="456.1328" fill="#FFFFFF" rx="9" ry="9" style="stroke:#000000;stroke-width:1.0;"/><path d="M844.9219,451.8984 L844.9219,449.7422 L852.3125,449.7422 L852.3125,451.8984 L849.8438,451.8984 L849.8438,459.9766 L852.3125,459.9766 L852.3125,462.1328 L844.9219,462.1328 L844.9219,459.9766 L847.3906,459.9766 L847.3906,451.8984 L844.9219,451.8984 Z " fill="#000000"/><text fill="#000000" font-family="Verdana" font-size="12" font-style="italic" lengthAdjust="spacing" textLength="70" x="859" y="452.1387">«interface»</text><text fill="#000000" font-family="Verdana" font-size="14" font-style="italic" lengthAdjust="spacing" textLength="46" x="871" y="467.9639">Gauge</text><rect fill="#FFFFFF" height="15.9688" style="stroke:#000000;stroke-width:1.0;stroke-dasharray:2.0,2.0;" width="9" x="935" y="433"/><text fill="#000000" font-family="Verdana" font-size="12" font-style="italic" lengthAdjust="spacing" textLength="7" x="936" y="445.1387">T</text><line style="stroke:#000000;stroke-width:1.5;" x1="837" x2="940" y1="476.2656" y2="476.2656"/><line style="stroke:#000000;stroke-width:1.5;" x1="837" x2="940" y1="484.2656" y2="484.2656"/><ellipse cx="847" cy="495.2656" fill="#FFFFFF" rx="3" ry="3" style="stroke:#000000;stroke-width:1.0;"/><text fill="#000000" font-family="Verdana" font-size="14" lengthAdjust="spacing" textLength="51" x="854" y="501.2607">get(): T</text><rect codeLine="80" fill="#FFFFFF" height="88.8594" id="Meter" style="stroke:#000000;stroke-width:1.5;" width="275" x="645" y="628"/><ellipse cx="745.75" cy="648.1328" fill="#FFFFFF" rx="9" ry="9" style="stroke:#000000;stroke-width:1.0;"/><path d="M741.6719,643.8984 L741.6719,641.7422 L749.0625,641.7422 L749.0625,643.8984 L746.5938,643.8984 L746.5938,651.9766 L749.0625,651.9766 L749.0625,654.1328 L741.6719,654.1328 L741.6719,651.9766 L744.1406,651.9766 L744.1406,643.8984 L741.6719,643.8984 Z " fill="#000000"/><text fill="#000000" font-family="Verdana" font-size="12" font-style="italic" lengthAdjust="spacing" textLength="70" x="761.25" y="644.1387">«interface»</text><text fill="#000000" font-family="Verdana" font-size="14" font-style="italic" lengthAdjust="spacing" textLength="40" x="776.25" y="659.9639">Meter</text><line style="stroke:#000000;stroke-width:1.5;" x1="646" x2="919" y1="668.2656" y2="668.2656"/><line style="stroke:#000000;stroke-width:1.5;" x1="646" x2="919" y1="676.2656" y2="676.2656"/><ellipse cx="656" cy="687.2656" fill="#FFFFFF" rx="3" ry="3" style="stroke:#000000;stroke-width:1.0;"/><text fill="#000000" font-family="Verdana" font-size="14" lengthAdjust="spacing" textLength="66" x="663" y="693.2607">getId(): Id</text><ellipse cx="656" cy="703.5625" fill="#FFFFFF" rx="3" ry="3" style="stroke:#000000;stroke-width:1.0;"/><text fill="#000000" font-family="Verdana" font-size="14" lengthAdjust="spacing" textLength="251" x="663" y="709.5576">measure(): Iterable&lt;Measurement&gt;</text><rect codeLine="84" fill="#FFFFFF" height="137.75" id="Summary" style="stroke:#000000;stroke-width:1.5;" width="160" x="348.5" y="403.5"/><ellipse cx="391.75" cy="423.6328" fill="#FFFFFF" rx="9" ry="9" style="stroke:#000000;stroke-width:1.0;"/><path d="M387.6719,419.3984 L387.6719,417.2422 L395.0625,417.2422 L395.0625,419.3984 L392.5938,419.3984 L392.5938,427.4766 L395.0625,427.4766 L395.0625,429.6328 L387.6719,429.6328 L387.6719,427.4766 L390.1406,427.4766 L390.1406,419.3984 L387.6719,419.3984 Z " fill="#000000"/><text fill="#000000" font-family="Verdana" font-size="12" font-style="italic" lengthAdjust="spacing" textLength="70" x="407.25" y="419.6387">«interface»</text><text fill="#000000" font-family="Verdana" font-size="14" font-style="italic" lengthAdjust="spacing" textLength="64" x="410.25" y="435.4639">Summary</text><line style="stroke:#000000;stroke-width:1.5;" x1="349.5" x2="507.5" y1="443.7656" y2="443.7656"/><line style="stroke:#000000;stroke-width:1.5;" x1="349.5" x2="507.5" y1="451.7656" y2="451.7656"/><ellipse cx="359.5" cy="462.7656" fill="#FFFFFF" rx="3" ry="3" style="stroke:#000000;stroke-width:1.0;"/><text fill="#000000" font-family="Verdana" font-size="14" lengthAdjust="spacing" textLength="106" x="366.5" y="468.7607">increase(): void</text><ellipse cx="359.5" cy="479.0625" fill="#FFFFFF" rx="3" ry="3" style="stroke:#000000;stroke-width:1.0;"/><text fill="#000000" font-family="Verdana" font-size="14" lengthAdjust="spacing" textLength="89" x="366.5" y="485.0576">tps(): double</text><ellipse cx="359.5" cy="495.3594" fill="#FFFFFF" rx="3" ry="3" style="stroke:#000000;stroke-width:1.0;"/><text fill="#000000" font-family="Verdana" font-size="14" lengthAdjust="spacing" textLength="89" x="366.5" y="501.3545">count(): long</text><ellipse cx="359.5" cy="511.6563" fill="#FFFFFF" rx="3" ry="3" style="stroke:#000000;stroke-width:1.0;"/><text fill="#000000" font-family="Verdana" font-size="14" lengthAdjust="spacing" textLength="136" x="366.5" y="517.6514">increase(long): void</text><ellipse cx="359.5" cy="527.9531" fill="#FFFFFF" rx="3" ry="3" style="stroke:#000000;stroke-width:1.0;"/><text fill="#000000" font-family="Verdana" font-size="14" lengthAdjust="spacing" textLength="79" x="366.5" y="533.9482">total(): long</text><rect codeLine="91" fill="#FFFFFF" height="190.6719" id="SummaryValue" style="stroke:#000000;stroke-width:1.5;" width="196" x="51.5" y="377"/><ellipse cx="94.75" cy="391" fill="#FFFFFF" rx="9" ry="9" style="stroke:#000000;stroke-width:1.0;"/><path d="M97.7188,396.6406 Q97.1406,396.9375 96.5,397.0859 Q95.8594,397.2344 95.1563,397.2344 Q92.6563,397.2344 91.3359,395.5859 Q90.0156,393.9375 90.0156,390.8125 Q90.0156,387.6875 91.3359,386.0313 Q92.6563,384.375 95.1563,384.375 Q95.8594,384.375 96.5078,384.5313 Q97.1563,384.6875 97.7188,384.9844 L97.7188,387.7031 Q97.0938,387.125 96.5,386.8516 Q95.9063,386.5781 95.2813,386.5781 Q93.9375,386.5781 93.25,387.6484 Q92.5625,388.7188 92.5625,390.8125 Q92.5625,392.9063 93.25,393.9766 Q93.9375,395.0469 95.2813,395.0469 Q95.9063,395.0469 96.5,394.7734 Q97.0938,394.5 97.7188,393.9219 L97.7188,396.6406 Z " fill="#000000"/><text fill="#000000" font-family="Verdana" font-size="14" lengthAdjust="spacing" textLength="102" x="112.25" y="395.8467">SummaryValue</text><line style="stroke:#000000;stroke-width:1.5;" x1="52.5" x2="246.5" y1="405" y2="405"/><rect fill="none" height="6" style="stroke:#000000;stroke-width:1.0;" width="6" x="59.5" y="413"/><text fill="#000000" font-family="Verdana" font-size="14" lengthAdjust="spacing" textLength="114" x="69.5" y="421.9951">total: LongAdder</text><rect fill="none" height="6" style="stroke:#000000;stroke-width:1.0;" width="6" x="59.5" y="429.2969"/><text fill="#000000" font-family="Verdana" font-size="14" lengthAdjust="spacing" textLength="172" x="69.5" y="438.292">startMilliseconds: double</text><rect fill="none" height="6" style="stroke:#000000;stroke-width:1.0;" width="6" x="59.5" y="445.5938"/><text fill="#000000" font-family="Verdana" font-size="14" lengthAdjust="spacing" textLength="124" x="69.5" y="454.5889">count: LongAdder</text><line style="stroke:#000000;stroke-width:1.5;" x1="52.5" x2="246.5" y1="461.8906" y2="461.8906"/><ellipse cx="62.5" cy="472.8906" fill="#FFFFFF" rx="3" ry="3" style="stroke:#000000;stroke-width:1.0;"/><text fill="#000000" font-family="Verdana" font-size="14" lengthAdjust="spacing" textLength="165" x="69.5" y="478.8857">SummaryValue(double):</text><ellipse cx="62.5" cy="489.1875" fill="#FFFFFF" rx="3" ry="3" style="stroke:#000000;stroke-width:1.0;"/><text fill="#000000" font-family="Verdana" font-size="14" lengthAdjust="spacing" textLength="106" x="69.5" y="495.1826">getTotal(): long</text><ellipse cx="62.5" cy="505.4844" fill="#FFFFFF" rx="3" ry="3" style="stroke:#000000;stroke-width:1.0;"/><text fill="#000000" font-family="Verdana" font-size="14" lengthAdjust="spacing" textLength="114" x="69.5" y="511.4795">getCount(): long</text><ellipse cx="62.5" cy="521.7813" fill="#FFFFFF" rx="3" ry="3" style="stroke:#000000;stroke-width:1.0;"/><text fill="#000000" font-family="Verdana" font-size="14" lengthAdjust="spacing" textLength="106" x="69.5" y="527.7764">increase(): void</text><ellipse cx="62.5" cy="538.0781" fill="#FFFFFF" rx="3" ry="3" style="stroke:#000000;stroke-width:1.0;"/><text fill="#000000" font-family="Verdana" font-size="14" lengthAdjust="spacing" textLength="164" x="69.5" y="544.0732">getTps(double): double</text><ellipse cx="62.5" cy="554.375" fill="#FFFFFF" rx="3" ry="3" style="stroke:#000000;stroke-width:1.0;"/><text fill="#000000" font-family="Verdana" font-size="14" lengthAdjust="spacing" textLength="136" x="69.5" y="560.3701">increase(long): void</text><rect codeLine="102" fill="#FFFFFF" height="137.75" id="Timer" style="stroke:#000000;stroke-width:1.5;" width="215" x="976" y="403.5"/><ellipse cx="1046.75" cy="423.6328" fill="#FFFFFF" rx="9" ry="9" style="stroke:#000000;stroke-width:1.0;"/><path d="M1042.6719,419.3984 L1042.6719,417.2422 L1050.0625,417.2422 L1050.0625,419.3984 L1047.5938,419.3984 L1047.5938,427.4766 L1050.0625,427.4766 L1050.0625,429.6328 L1042.6719,429.6328 L1042.6719,427.4766 L1045.1406,427.4766 L1045.1406,419.3984 L1042.6719,419.3984 Z " fill="#000000"/><text fill="#000000" font-family="Verdana" font-size="12" font-style="italic" lengthAdjust="spacing" textLength="70" x="1062.25" y="419.6387">«interface»</text><text fill="#000000" font-family="Verdana" font-size="14" font-style="italic" lengthAdjust="spacing" textLength="39" x="1077.75" y="435.4639">Timer</text><line style="stroke:#000000;stroke-width:1.5;" x1="977" x2="1190" y1="443.7656" y2="443.7656"/><line style="stroke:#000000;stroke-width:1.5;" x1="977" x2="1190" y1="451.7656" y2="451.7656"/><ellipse cx="987" cy="462.7656" fill="#FFFFFF" rx="3" ry="3" style="stroke:#000000;stroke-width:1.0;"/><text fill="#000000" font-family="Verdana" font-size="14" lengthAdjust="spacing" textLength="89" x="994" y="468.7607">count(): long</text><ellipse cx="987" cy="479.0625" fill="#FFFFFF" rx="3" ry="3" style="stroke:#000000;stroke-width:1.0;"/><text fill="#000000" font-family="Verdana" font-size="14" lengthAdjust="spacing" textLength="77" x="994" y="485.0576">max(): long</text><ellipse cx="987" cy="495.3594" fill="#FFFFFF" rx="3" ry="3" style="stroke:#000000;stroke-width:1.0;"/><text fill="#000000" font-family="Verdana" font-size="14" lengthAdjust="spacing" textLength="79" x="994" y="501.3545">total(): long</text><ellipse cx="987" cy="511.6563" fill="#FFFFFF" rx="3" ry="3" style="stroke:#000000;stroke-width:1.0;"/><text fill="#000000" font-family="Verdana" font-size="14" lengthAdjust="spacing" textLength="191" x="994" y="517.6514">record(long, TimeUnit): void</text><ellipse cx="987" cy="527.9531" fill="#FFFFFF" rx="3" ry="3" style="stroke:#000000;stroke-width:1.0;"/><text fill="#000000" font-family="Verdana" font-size="14" lengthAdjust="spacing" textLength="122" x="994" y="533.9482">average(): double</text><rect codeLine="109" fill="#FFFFFF" height="190.6719" id="TimerValue" style="stroke:#000000;stroke-width:1.5;" width="215" x="1335" y="377"/><ellipse cx="1400.25" cy="391" fill="#FFFFFF" rx="9" ry="9" style="stroke:#000000;stroke-width:1.0;"/><path d="M1403.2188,396.6406 Q1402.6406,396.9375 1402,397.0859 Q1401.3594,397.2344 1400.6563,397.2344 Q1398.1563,397.2344 1396.8359,395.5859 Q1395.5156,393.9375 1395.5156,390.8125 Q1395.5156,387.6875 1396.8359,386.0313 Q1398.1563,384.375 1400.6563,384.375 Q1401.3594,384.375 1402.0078,384.5313 Q1402.6563,384.6875 1403.2188,384.9844 L1403.2188,387.7031 Q1402.5938,387.125 1402,386.8516 Q1401.4063,386.5781 1400.7813,386.5781 Q1399.4375,386.5781 1398.75,387.6484 Q1398.0625,388.7188 1398.0625,390.8125 Q1398.0625,392.9063 1398.75,393.9766 Q1399.4375,395.0469 1400.7813,395.0469 Q1401.4063,395.0469 1402,394.7734 Q1402.5938,394.5 1403.2188,393.9219 L1403.2188,396.6406 Z " fill="#000000"/><text fill="#000000" font-family="Verdana" font-size="14" lengthAdjust="spacing" textLength="77" x="1417.75" y="395.8467">TimerValue</text><line style="stroke:#000000;stroke-width:1.5;" x1="1336" x2="1549" y1="405" y2="405"/><rect fill="none" height="6" style="stroke:#000000;stroke-width:1.0;" width="6" x="1343" y="413"/><text fill="#000000" font-family="Verdana" font-size="14" lengthAdjust="spacing" textLength="124" x="1353" y="421.9951">count: LongAdder</text><rect fill="none" height="6" style="stroke:#000000;stroke-width:1.0;" width="6" x="1343" y="429.2969"/><text fill="#000000" font-family="Verdana" font-size="14" lengthAdjust="spacing" textLength="114" x="1353" y="438.292">total: LongAdder</text><rect fill="none" height="6" style="stroke:#000000;stroke-width:1.0;" width="6" x="1343" y="445.5938"/><text fill="#000000" font-family="Verdana" font-size="14" lengthAdjust="spacing" textLength="118" x="1353" y="454.5889">max: AtomicLong</text><line style="stroke:#000000;stroke-width:1.5;" x1="1336" x2="1549" y1="461.8906" y2="461.8906"/><ellipse cx="1346" cy="472.8906" fill="#FFFFFF" rx="3" ry="3" style="stroke:#000000;stroke-width:1.0;"/><text fill="#000000" font-family="Verdana" font-size="14" lengthAdjust="spacing" textLength="92" x="1353" y="478.8857">TimerValue():</text><ellipse cx="1346" cy="489.1875" fill="#FFFFFF" rx="3" ry="3" style="stroke:#000000;stroke-width:1.0;"/><text fill="#000000" font-family="Verdana" font-size="14" lengthAdjust="spacing" textLength="191" x="1353" y="495.1826">record(long, TimeUnit): void</text><ellipse cx="1346" cy="505.4844" fill="#FFFFFF" rx="3" ry="3" style="stroke:#000000;stroke-width:1.0;"/><text fill="#000000" font-family="Verdana" font-size="14" lengthAdjust="spacing" textLength="99" x="1353" y="511.4795">getMax(): long</text><ellipse cx="1346" cy="521.7813" fill="#FFFFFF" rx="3" ry="3" style="stroke:#000000;stroke-width:1.0;"/><text fill="#000000" font-family="Verdana" font-size="14" lengthAdjust="spacing" textLength="106" x="1353" y="527.7764">getTotal(): long</text><ellipse cx="1346" cy="538.0781" fill="#FFFFFF" rx="3" ry="3" style="stroke:#000000;stroke-width:1.0;"/><text fill="#000000" font-family="Verdana" font-size="14" lengthAdjust="spacing" textLength="114" x="1353" y="544.0732">getCount(): long</text><ellipse cx="1346" cy="554.375" fill="#FFFFFF" rx="3" ry="3" style="stroke:#000000;stroke-width:1.0;"/><text fill="#000000" font-family="Verdana" font-size="14" lengthAdjust="spacing" textLength="146" x="1353" y="560.3701">getAverage(): double</text><path codeLine="121" d="M579.25,268.3454 C579.25,268.3454 579.25,399.6316 579.25,399.6316 " fill="none" id="CompactCounter-to-Counter" style="stroke:#008200;stroke-width:1.0;stroke-dasharray:7.0,7.0;"/><polygon fill="none" points="586.2501,399.6316,579.25,419.6316,572.2501,399.6316,586.2501,399.6316" style="stroke:#008200;stroke-width:1.0;"/><path codeLine="122" d="M971.75,251.6667 C971.75,342.8936 971.75,473 971.75,473 C971.75,473 961.2235,473 961.2235,473 " fill="none" id="CompactGauge-to-Gauge" style="stroke:#008200;stroke-width:1.0;stroke-dasharray:7.0,7.0;"/><polygon fill="none" points="961.2235,479.9999,941.2235,473,961.2235,465.9999,961.2235,479.9999" style="stroke:#008200;stroke-width:1.0;"/><path codeLine="123" d="M697.1667,251.5254 C697.1667,251.5254 697.1667,414.9527 697.1667,414.9527 " fill="none" id="CompactRegistry-to-Counter" style="stroke:#595959;stroke-width:1.0;stroke-dasharray:7.0,7.0;"/><polygon fill="#595959" points="697.1667,419.9527,701.1667,410.9527,697.1667,414.9527,693.1667,410.9527,697.1667,419.9527" style="stroke:#595959;stroke-width:1.0;"/><path codeLine="124" d="M868.1667,251.5254 C868.1667,251.5254 868.1667,430.7148 868.1667,430.7148 " fill="none" id="CompactRegistry-to-Gauge" style="stroke:#595959;stroke-width:1.0;stroke-dasharray:7.0,7.0;"/><polygon fill="#595959" points="868.1667,435.7148,872.1667,426.7148,868.1667,430.7148,864.1667,426.7148,868.1667,435.7148" style="stroke:#595959;stroke-width:1.0;"/><path codeLine="125" d="M782.75,263.5395 C782.75,263.5395 782.75,614.7963 782.75,614.7963 " fill="none" id="CompactRegistry-Meter" style="stroke:#595959;stroke-width:1.0;"/><polygon fill="#595959" points="782.75,627.7963,786.75,618.7963,782.75,622.7963,778.75,618.7963,782.75,627.7963" style="stroke:#595959;stroke-width:1.0;"/><line style="stroke:#595959;stroke-width:1.0;" x1="782.75" x2="782.75" y1="622.7963" y2="614.7963"/><polygon fill="#595959" points="782.75,251.5395,778.75,257.5395,782.75,263.5395,786.75,257.5395,782.75,251.5395" style="stroke:#595959;stroke-width:1.0;"/><text fill="#000000" font-family="Verdana" font-size="13" lengthAdjust="spacing" textLength="8" x="774.1758" y="616.8904">1</text><text fill="#000000" font-family="Verdana" font-size="13" lengthAdjust="spacing" textLength="51" x="729.659" y="272.052">METERS</text><text fill="#000000" font-family="Verdana" font-size="13" lengthAdjust="spacing" textLength="7" x="751.659" y="287.1848">*</text><path codeLine="126" d="M664.8333,251.7346 C664.8333,321.9515 664.8333,409 664.8333,409 C664.8333,409 513.5117,409 513.5117,409 " fill="none" id="CompactRegistry-to-Summary" style="stroke:#595959;stroke-width:1.0;stroke-dasharray:7.0,7.0;"/><polygon fill="#595959" points="508.5117,409,517.5117,413,513.5117,409,517.5117,405,508.5117,409" style="stroke:#595959;stroke-width:1.0;"/><path codeLine="127" d="M900.3333,251.7611 C900.3333,324.0551 900.3333,415 900.3333,415 C900.3333,415 970.8917,415 970.8917,415 " fill="none" id="CompactRegistry-to-Timer" style="stroke:#595959;stroke-width:1.0;stroke-dasharray:7.0,7.0;"/><polygon fill="#595959" points="975.8917,415,966.8917,411,970.8917,415,966.8917,419,975.8917,415" style="stroke:#595959;stroke-width:1.0;"/><path codeLine="128" d="M267.25,300.7106 C267.25,383.3535 267.25,473 267.25,473 C267.25,473 328.3474,473 328.3474,473 " fill="none" id="CompactSummary-to-Summary" style="stroke:#008200;stroke-width:1.0;stroke-dasharray:7.0,7.0;"/><polygon fill="none" points="328.3474,465.9999,348.3474,473,328.3474,479.9999,328.3474,465.9999" style="stroke:#008200;stroke-width:1.0;"/><path codeLine="129" d="M149.5,312.9383 C149.5,312.9383 149.5,363.7821 149.5,363.7821 " fill="none" id="CompactSummary-SummaryValue" style="stroke:#595959;stroke-width:1.0;"/><polygon fill="#595959" points="149.5,376.7821,153.5,367.7821,149.5,371.7821,145.5,367.7821,149.5,376.7821" style="stroke:#595959;stroke-width:1.0;"/><line style="stroke:#595959;stroke-width:1.0;" x1="149.5" x2="149.5" y1="371.7821" y2="363.7821"/><polygon fill="#595959" points="149.5,300.9383,145.5,306.9383,149.5,312.9383,153.5,306.9383,149.5,300.9383" style="stroke:#595959;stroke-width:1.0;"/><text fill="#000000" font-family="Verdana" font-size="13" lengthAdjust="spacing" textLength="8" x="141.1938" y="365.964">1</text><text fill="#000000" font-family="Verdana" font-size="13" lengthAdjust="spacing" textLength="34" x="114.6234" y="320.8166">value</text><text fill="#000000" font-family="Verdana" font-size="13" lengthAdjust="spacing" textLength="8" x="127.6234" y="335.9494">1</text><path codeLine="130" d="M1320,317.3943 C1320,394.9685 1320,473 1320,473 C1320,473 1211.0236,473 1211.0236,473 " fill="none" id="CompactTimer-to-Timer" style="stroke:#008200;stroke-width:1.0;stroke-dasharray:7.0,7.0;"/><polygon fill="none" points="1211.0237,479.9999,1191.0236,473,1211.0236,465.9999,1211.0237,479.9999" style="stroke:#008200;stroke-width:1.0;"/><path codeLine="131" d="M1442.5,329.1465 C1442.5,329.1465 1442.5,363.6447 1442.5,363.6447 " fill="none" id="CompactTimer-TimerValue" style="stroke:#595959;stroke-width:1.0;"/><polygon fill="#595959" points="1442.5,376.6447,1446.5,367.6447,1442.5,371.6447,1438.5,367.6447,1442.5,376.6447" style="stroke:#595959;stroke-width:1.0;"/><line style="stroke:#595959;stroke-width:1.0;" x1="1442.5" x2="1442.5" y1="371.6447" y2="363.6447"/><polygon fill="#595959" points="1442.5,317.1465,1438.5,323.1465,1442.5,329.1465,1446.5,323.1465,1442.5,317.1465" style="stroke:#595959;stroke-width:1.0;"/><text fill="#000000" font-family="Verdana" font-size="13" lengthAdjust="spacing" textLength="8" x="1434.1938" y="365.8161">1</text><text fill="#000000" font-family="Verdana" font-size="13" lengthAdjust="spacing" textLength="34" x="1407.7297" y="336.8216">value</text><text fill="#000000" font-family="Verdana" font-size="13" lengthAdjust="spacing" textLength="8" x="1420.7297" y="351.9544">1</text><path codeLine="132" d="M701.3333,525.0476 C701.3333,525.0476 701.3333,607.7562 701.3333,607.7562 " fill="none" id="Counter-to-Meter" style="stroke:#008200;stroke-width:1.0;"/><polygon fill="none" points="708.3334,607.7562,701.3333,627.7562,694.3334,607.7561,708.3334,607.7562" style="stroke:#008200;stroke-width:1.0;"/><path codeLine="133" d="M864,509.1831 C864,509.1831 864,607.6472 864,607.6472 " fill="none" id="Gauge-to-Meter" style="stroke:#008200;stroke-width:1.0;"/><polygon fill="none" points="871.0001,607.6473,864,627.6472,857.0001,607.6472,871.0001,607.6473" style="stroke:#008200;stroke-width:1.0;"/><path codeLine="134" d="M508.613,531 C579.9681,531 673.1667,531 673.1667,531 C673.1667,531 673.1667,607.7285 673.1667,607.7285 " fill="none" id="Summary-to-Meter" style="stroke:#008200;stroke-width:1.0;"/><polygon fill="none" points="680.1668,607.7286,673.1667,627.7285,666.1668,607.7285,680.1668,607.7286" style="stroke:#008200;stroke-width:1.0;"/><path codeLine="135" d="M428.5,403.3781 C428.5,395.9358 428.5,391 428.5,391 C428.5,391 335.25,391 335.25,391 C335.25,391 335.25,555 335.25,555 C335.25,555 428.5,555 428.5,555 C428.5,555 428.5,546.7449 428.5,546.7449 " fill="none" id="Summary-to-Summary" style="stroke:#595959;stroke-width:1.0;stroke-dasharray:7.0,7.0;"/><polygon fill="#595959" points="428.5,541.7449,424.5,550.7449,428.5,546.7449,432.5,550.7449,428.5,541.7449" style="stroke:#595959;stroke-width:1.0;"/><path codeLine="136" d="M975.9947,536 C932.3427,536 892,536 892,536 C892,536 892,607.8048 892,607.8048 " fill="none" id="Timer-to-Meter" style="stroke:#008200;stroke-width:1.0;"/><polygon fill="none" points="899.0001,607.8048,892,627.8048,885.0001,607.8048,899.0001,607.8048" style="stroke:#008200;stroke-width:1.0;"/></g></svg>