<?xml version="1.0" encoding="UTF-8" standalone="no"?><svg xmlns="http://www.w3.org/2000/svg" xmlns:xlink="http://www.w3.org/1999/xlink" contentScriptType="application/ecmascript" contentStyleType="text/css" height="1191px" preserveAspectRatio="none" style="width:744px;height:1191px;background:#FFFFFF;" version="1.1" viewBox="0 0 744 1191" width="744px" zoomAndPan="magnify"><defs/><g><rect codeLine="6" fill="#FFFFFF" height="288.4531" id="Collector" style="stroke:#000000;stroke-width:1.5;" width="341" x="31.733" y="396"/><ellipse cx="167.983" cy="410" fill="#FFFFFF" rx="9" ry="9" style="stroke:#000000;stroke-width:1.0;"/><path d="M170.9518,415.6406 Q170.3736,415.9375 169.733,416.0859 Q169.0924,416.2344 168.3893,416.2344 Q165.8893,416.2344 164.5689,414.5859 Q163.2486,412.9375 163.2486,409.8125 Q163.2486,406.6875 164.5689,405.0313 Q165.8893,403.375 168.3893,403.375 Q169.0924,403.375 169.7408,403.5313 Q170.3893,403.6875 170.9518,403.9844 L170.9518,406.7031 Q170.3268,406.125 169.733,405.8516 Q169.1393,405.5781 168.5143,405.5781 Q167.1705,405.5781 166.483,406.6484 Q165.7955,407.7188 165.7955,409.8125 Q165.7955,411.9063 166.483,412.9766 Q167.1705,414.0469 168.5143,414.0469 Q169.1393,414.0469 169.733,413.7734 Q170.3268,413.5 170.9518,412.9219 L170.9518,415.6406 Z " fill="#000000"/><text fill="#000000" font-family="Verdana" font-size="14" lengthAdjust="spacing" textLength="61" x="185.483" y="414.8467">Collector</text><line style="stroke:#000000;stroke-width:1.5;" x1="32.733" x2="371.733" y1="424" y2="424"/><rect fill="none" height="6" style="stroke:#000000;stroke-width:1.0;" width="6" x="39.733" y="432"/><text fill="#000000" font-family="Verdana" font-size="14" lengthAdjust="spacing" textLength="185" x="49.733" y="440.9951">METRIC_NAME_RE: Pattern</text><rect fill="none" height="6" style="stroke:#000000;stroke-width:1.0;" width="6" x="39.733" y="448.2969"/><text fill="#000000" font-family="Verdana" font-size="14" lengthAdjust="spacing" textLength="234" x="49.733" y="457.292">METRIC_LABEL_NAME_RE: Pattern</text><rect fill="none" height="6" style="stroke:#000000;stroke-width:1.0;" width="6" x="39.733" y="464.5938"/><text fill="#000000" font-family="Verdana" font-size="14" lengthAdjust="spacing" textLength="317" x="49.733" y="473.5889">RESERVED_METRIC_LABEL_NAME_RE: Pattern</text><rect fill="none" height="6" style="stroke:#000000;stroke-width:1.0;" width="6" x="39.733" y="480.8906"/><text fill="#000000" font-family="Verdana" font-size="14" lengthAdjust="spacing" textLength="248" x="49.733" y="489.8857">SANITIZE_PREFIX_PATTERN: Pattern</text><ellipse cx="42.733" cy="500.1875" rx="3" ry="3" style="stroke:#000000;stroke-width:1.0;fill:none;"/><text fill="#000000" font-family="Verdana" font-size="14" lengthAdjust="spacing" textLength="268" x="49.733" y="506.1826">NANOSECONDS_PER_SECOND: double</text><rect fill="none" height="6" style="stroke:#000000;stroke-width:1.0;" width="6" x="39.733" y="513.4844"/><text fill="#000000" font-family="Verdana" font-size="14" lengthAdjust="spacing" textLength="241" x="49.733" y="522.4795">SANITIZE_BODY_PATTERN: Pattern</text><ellipse cx="42.733" cy="532.7813" rx="3" ry="3" style="stroke:#000000;stroke-width:1.0;fill:none;"/><text fill="#000000" font-family="Verdana" font-size="14" lengthAdjust="spacing" textLength="260" x="49.733" y="538.7764">MILLISECONDS_PER_SECOND: double</text><line style="stroke:#000000;stroke-width:1.5;" x1="32.733" x2="371.733" y1="546.0781" y2="546.0781"/><ellipse cx="42.733" cy="557.0781" fill="#FFFFFF" rx="3" ry="3" style="stroke:#000000;stroke-width:1.0;"/><text fill="#000000" font-family="Verdana" font-size="14" lengthAdjust="spacing" textLength="76" x="49.733" y="563.0732">Collector():</text><ellipse cx="42.733" cy="573.375" fill="#FFFFFF" rx="3" ry="3" style="stroke:#000000;stroke-width:1.0;"/><text fill="#000000" font-family="Verdana" font-size="14" lengthAdjust="spacing" textLength="254" x="49.733" y="579.3701">collect(): List&lt;MetricFamilySamples&gt;</text><ellipse cx="42.733" cy="589.6719" fill="#FFFFFF" rx="3" ry="3" style="stroke:#000000;stroke-width:1.0;"/><text fill="#000000" font-family="Verdana" font-size="14" lengthAdjust="spacing" textLength="81" x="49.733" y="595.667">register(): T</text><polygon fill="#FFFFFF" points="42.733,600.9688,46.733,604.9688,42.733,608.9688,38.733,604.9688" style="stroke:#000000;stroke-width:1.0;"/><text fill="#000000" font-family="Verdana" font-size="14" lengthAdjust="spacing" textLength="247" x="49.733" y="611.9639">checkMetricLabelName(String): void</text><ellipse cx="42.733" cy="622.2656" fill="#FFFFFF" rx="3" ry="3" style="stroke:#000000;stroke-width:1.0;"/><text fill="#000000" font-family="Verdana" font-size="14" lengthAdjust="spacing" textLength="233" x="49.733" y="628.2607">doubleToGoString(double): String</text><ellipse cx="42.733" cy="638.5625" fill="#FFFFFF" rx="3" ry="3" style="stroke:#000000;stroke-width:1.0;"/><text fill="#000000" font-family="Verdana" font-size="14" lengthAdjust="spacing" textLength="234" x="49.733" y="644.5576">sanitizeMetricName(String): String</text><ellipse cx="42.733" cy="654.8594" fill="#FFFFFF" rx="3" ry="3" style="stroke:#000000;stroke-width:1.0;"/><text fill="#000000" font-family="Verdana" font-size="14" lengthAdjust="spacing" textLength="198" x="49.733" y="660.8545">register(CollectorRegistry): T</text><polygon fill="#FFFFFF" points="42.733,666.1563,46.733,670.1563,42.733,674.1563,38.733,670.1563" style="stroke:#000000;stroke-width:1.0;"/><text fill="#000000" font-family="Verdana" font-size="14" lengthAdjust="spacing" textLength="211" x="49.733" y="677.1514">checkMetricName(String): void</text><rect codeLine="23" fill="#FFFFFF" height="72.5625" id="Describable" style="stroke:#000000;stroke-width:1.5;" width="293" x="275.733" y="263"/><ellipse cx="377.483" cy="283.1328" fill="#FFFFFF" rx="9" ry="9" style="stroke:#000000;stroke-width:1.0;"/><path d="M373.4049,278.8984 L373.4049,276.7422 L380.7955,276.7422 L380.7955,278.8984 L378.3268,278.8984 L378.3268,286.9766 L380.7955,286.9766 L380.7955,289.1328 L373.4049,289.1328 L373.4049,286.9766 L375.8736,286.9766 L375.8736,278.8984 L373.4049,278.8984 Z " fill="#000000"/><text fill="#000000" font-family="Verdana" font-size="12" font-style="italic" lengthAdjust="spacing" textLength="70" x="400.983" y="279.1387">«interface»</text><text fill="#000000" font-family="Verdana" font-size="14" font-style="italic" lengthAdjust="spacing" textLength="82" x="394.983" y="294.9639">Describable</text><line style="stroke:#000000;stroke-width:1.5;" x1="276.733" x2="567.733" y1="303.2656" y2="303.2656"/><line style="stroke:#000000;stroke-width:1.5;" x1="276.733" x2="567.733" y1="311.2656" y2="311.2656"/><ellipse cx="286.733" cy="322.2656" fill="#FFFFFF" rx="3" ry="3" style="stroke:#000000;stroke-width:1.0;"/><text fill="#000000" font-family="Verdana" font-size="14" lengthAdjust="spacing" textLength="269" x="293.733" y="328.2607">describe(): List&lt;MetricFamilySamples&gt;</text><rect codeLine="26" fill="#FFFFFF" height="72.5625" id="Exporter" style="stroke:#000000;stroke-width:1.5;" width="205" x="35.733" y="263"/><ellipse cx="101.483" cy="283.1328" fill="#FFFFFF" rx="9" ry="9" style="stroke:#000000;stroke-width:1.0;"/><path d="M97.4049,278.8984 L97.4049,276.7422 L104.7955,276.7422 L104.7955,278.8984 L102.3268,278.8984 L102.3268,286.9766 L104.7955,286.9766 L104.7955,289.1328 L97.4049,289.1328 L97.4049,286.9766 L99.8736,286.9766 L99.8736,278.8984 L97.4049,278.8984 Z " fill="#000000"/><text fill="#000000" font-family="Verdana" font-size="12" font-style="italic" lengthAdjust="spacing" textLength="70" x="116.983" y="279.1387">«interface»</text><text fill="#000000" font-family="Verdana" font-size="14" font-style="italic" lengthAdjust="spacing" textLength="58" x="122.983" y="294.9639">Exporter</text><line style="stroke:#000000;stroke-width:1.5;" x1="36.733" x2="239.733" y1="303.2656" y2="303.2656"/><line style="stroke:#000000;stroke-width:1.5;" x1="36.733" x2="239.733" y1="311.2656" y2="311.2656"/><ellipse cx="46.733" cy="322.2656" fill="#FFFFFF" rx="3" ry="3" style="stroke:#000000;stroke-width:1.0;"/><text fill="#000000" font-family="Verdana" font-size="14" lengthAdjust="spacing" textLength="181" x="53.733" y="328.2607">setRegistry(Registry): void</text><rect codeLine="29" fill="#FFFFFF" height="174.375" id="MetricFamilySamples" style="stroke:#000000;stroke-width:1.5;" width="418" x="217.233" y="744"/><ellipse cx="350.983" cy="758" fill="#FFFFFF" rx="9" ry="9" style="stroke:#000000;stroke-width:1.0;"/><path d="M353.9518,763.6406 Q353.3736,763.9375 352.733,764.0859 Q352.0924,764.2344 351.3893,764.2344 Q348.8893,764.2344 347.5689,762.5859 Q346.2486,760.9375 346.2486,757.8125 Q346.2486,754.6875 347.5689,753.0313 Q348.8893,751.375 351.3893,751.375 Q352.0924,751.375 352.7408,751.5313 Q353.3893,751.6875 353.9518,751.9844 L353.9518,754.7031 Q353.3268,754.125 352.733,753.8516 Q352.1393,753.5781 351.5143,753.5781 Q350.1705,753.5781 349.483,754.6484 Q348.7955,755.7188 348.7955,757.8125 Q348.7955,759.9063 349.483,760.9766 Q350.1705,762.0469 351.5143,762.0469 Q352.1393,762.0469 352.733,761.7734 Q353.3268,761.5 353.9518,760.9219 L353.9518,763.6406 Z " fill="#000000"/><text fill="#000000" font-family="Verdana" font-size="14" lengthAdjust="spacing" textLength="143" x="368.483" y="762.8467">MetricFamilySamples</text><line style="stroke:#000000;stroke-width:1.5;" x1="218.233" x2="634.233" y1="772" y2="772"/><ellipse cx="228.233" cy="783" rx="3" ry="3" style="stroke:#000000;stroke-width:1.0;fill:none;"/><text fill="#000000" font-family="Verdana" font-size="14" lengthAdjust="spacing" textLength="73" x="235.233" y="788.9951">type: Type</text><ellipse cx="228.233" cy="799.2969" rx="3" ry="3" style="stroke:#000000;stroke-width:1.0;fill:none;"/><text fill="#000000" font-family="Verdana" font-size="14" lengthAdjust="spacing" textLength="88" x="235.233" y="805.292">name: String</text><ellipse cx="228.233" cy="815.5938" rx="3" ry="3" style="stroke:#000000;stroke-width:1.0;fill:none;"/><text fill="#000000" font-family="Verdana" font-size="14" lengthAdjust="spacing" textLength="79" x="235.233" y="821.5889">help: String</text><ellipse cx="228.233" cy="831.8906" rx="3" ry="3" style="stroke:#000000;stroke-width:1.0;fill:none;"/><text fill="#000000" font-family="Verdana" font-size="14" lengthAdjust="spacing" textLength="165" x="235.233" y="837.8857">samples: List&lt;Sample&gt;</text><line style="stroke:#000000;stroke-width:1.5;" x1="218.233" x2="634.233" y1="845.1875" y2="845.1875"/><ellipse cx="228.233" cy="856.1875" fill="#FFFFFF" rx="3" ry="3" style="stroke:#000000;stroke-width:1.0;"/><text fill="#000000" font-family="Verdana" font-size="14" lengthAdjust="spacing" textLength="394" x="235.233" y="862.1826">MetricFamilySamples(String, Type, String, List&lt;Sample&gt;):</text><ellipse cx="228.233" cy="872.4844" fill="#FFFFFF" rx="3" ry="3" style="stroke:#000000;stroke-width:1.0;"/><text fill="#000000" font-family="Verdana" font-size="14" lengthAdjust="spacing" textLength="107" x="235.233" y="878.4795">hashCode(): int</text><ellipse cx="228.233" cy="888.7813" fill="#FFFFFF" rx="3" ry="3" style="stroke:#000000;stroke-width:1.0;"/><text fill="#000000" font-family="Verdana" font-size="14" lengthAdjust="spacing" textLength="113" x="235.233" y="894.7764">toString(): String</text><ellipse cx="228.233" cy="905.0781" fill="#FFFFFF" rx="3" ry="3" style="stroke:#000000;stroke-width:1.0;"/><text fill="#000000" font-family="Verdana" font-size="14" lengthAdjust="spacing" textLength="166" x="235.233" y="911.0732">equals(Object): boolean</text><rect codeLine="39" fill="#FFFFFF" height="190.6719" id="PrometheusExporter" style="stroke:#000000;stroke-width:1.5;" width="407" x="76.733" y="12"/><ellipse cx="204.983" cy="26" fill="#FFFFFF" rx="9" ry="9" style="stroke:#000000;stroke-width:1.0;"/><path d="M207.9518,31.6406 Q207.3736,31.9375 206.733,32.0859 Q206.0924,32.2344 205.3893,32.2344 Q202.8893,32.2344 201.5689,30.5859 Q200.2486,28.9375 200.2486,25.8125 Q200.2486,22.6875 201.5689,21.0313 Q202.8893,19.375 205.3893,19.375 Q206.0924,19.375 206.7408,19.5313 Q207.3893,19.6875 207.9518,19.9844 L207.9518,22.7031 Q207.3268,22.125 206.733,21.8516 Q206.1393,21.5781 205.5143,21.5781 Q204.1705,21.5781 203.483,22.6484 Q202.7955,23.7188 202.7955,25.8125 Q202.7955,27.9063 203.483,28.9766 Q204.1705,30.0469 205.5143,30.0469 Q206.1393,30.0469 206.733,29.7734 Q207.3268,29.5 207.9518,28.9219 L207.9518,31.6406 Z " fill="#000000"/><text fill="#000000" font-family="Verdana" font-size="14" lengthAdjust="spacing" textLength="143" x="222.483" y="30.8467">PrometheusExporter</text><line style="stroke:#000000;stroke-width:1.5;" x1="77.733" x2="482.733" y1="40" y2="40"/><rect fill="none" height="6" style="stroke:#000000;stroke-width:1.0;" width="6" x="84.733" y="48"/><text fill="#000000" font-family="Verdana" font-size="14" lengthAdjust="spacing" textLength="116" x="94.733" y="56.9951">registry: Registry</text><rect fill="none" height="6" style="stroke:#000000;stroke-width:1.0;" width="6" x="84.733" y="64.2969"/><text fill="#000000" font-family="Verdana" font-size="14" lengthAdjust="spacing" textLength="133" x="94.733" y="73.292">server: HTTPServer</text><line style="stroke:#000000;stroke-width:1.5;" x1="77.733" x2="482.733" y1="80.5938" y2="80.5938"/><ellipse cx="87.733" cy="91.5938" fill="#FFFFFF" rx="3" ry="3" style="stroke:#000000;stroke-width:1.0;"/><text fill="#000000" font-family="Verdana" font-size="14" lengthAdjust="spacing" textLength="158" x="94.733" y="97.5889">PrometheusExporter():</text><ellipse cx="87.733" cy="107.8906" fill="#FFFFFF" rx="3" ry="3" style="stroke:#000000;stroke-width:1.0;"/><text fill="#000000" font-family="Verdana" font-size="14" lengthAdjust="spacing" textLength="269" x="94.733" y="113.8857">describe(): List&lt;MetricFamilySamples&gt;</text><ellipse cx="87.733" cy="124.1875" fill="#FFFFFF" rx="3" ry="3" style="stroke:#000000;stroke-width:1.0;"/><text fill="#000000" font-family="Verdana" font-size="14" lengthAdjust="spacing" textLength="254" x="94.733" y="130.1826">collect(): List&lt;MetricFamilySamples&gt;</text><ellipse cx="87.733" cy="140.4844" fill="#FFFFFF" rx="3" ry="3" style="stroke:#000000;stroke-width:1.0;"/><text fill="#000000" font-family="Verdana" font-size="14" lengthAdjust="spacing" textLength="175" x="94.733" y="146.4795">getUnknownType(): Type</text><rect fill="#FFFFFF" height="6" style="stroke:#000000;stroke-width:1.0;" width="6" x="84.733" y="153.7813"/><text fill="#000000" font-family="Verdana" font-size="14" lengthAdjust="spacing" textLength="383" x="94.733" y="162.7764">convertMeasurementToSample(Measurement): Sample</text><ellipse cx="87.733" cy="173.0781" fill="#FFFFFF" rx="3" ry="3" style="stroke:#000000;stroke-width:1.0;"/><text fill="#000000" font-family="Verdana" font-size="14" lengthAdjust="spacing" textLength="181" x="94.733" y="179.0732">setRegistry(Registry): void</text><ellipse cx="87.733" cy="189.375" fill="#FFFFFF" rx="3" ry="3" style="stroke:#000000;stroke-width:1.0;"/><text fill="#000000" font-family="Verdana" font-size="14" lengthAdjust="spacing" textLength="84" x="94.733" y="195.3701">close(): void</text><rect codeLine="50" fill="#FFFFFF" height="76.5938" id="PrometheusExporterTest" style="stroke:#000000;stroke-width:1.5;" width="218" x="519.233" y="69"/><ellipse cx="539.433" cy="83" fill="#FFFFFF" rx="9" ry="9" style="stroke:#000000;stroke-width:1.0;"/><path d="M542.4018,88.6406 Q541.8236,88.9375 541.183,89.0859 Q540.5424,89.2344 539.8393,89.2344 Q537.3393,89.2344 536.0189,87.5859 Q534.6986,85.9375 534.6986,82.8125 Q534.6986,79.6875 536.0189,78.0313 Q537.3393,76.375 539.8393,76.375 Q540.5424,76.375 541.1908,76.5313 Q541.8393,76.6875 542.4018,76.9844 L542.4018,79.7031 Q541.7768,79.125 541.183,78.8516 Q540.5893,78.5781 539.9643,78.5781 Q538.6205,78.5781 537.933,79.6484 Q537.2455,80.7188 537.2455,82.8125 Q537.2455,84.9063 537.933,85.9766 Q538.6205,87.0469 539.9643,87.0469 Q540.5893,87.0469 541.183,86.7734 Q541.7768,86.5 542.4018,85.9219 L542.4018,88.6406 Z " fill="#000000"/><text fill="#000000" font-family="Verdana" font-size="14" lengthAdjust="spacing" textLength="174" x="553.033" y="87.8467">PrometheusExporterTest</text><line style="stroke:#000000;stroke-width:1.5;" x1="520.233" x2="736.233" y1="97" y2="97"/><line style="stroke:#000000;stroke-width:1.5;" x1="520.233" x2="736.233" y1="105" y2="105"/><ellipse cx="530.233" cy="116" fill="#FFFFFF" rx="3" ry="3" style="stroke:#000000;stroke-width:1.0;"/><text fill="#000000" font-family="Verdana" font-size="14" lengthAdjust="spacing" textLength="189" x="537.233" y="121.9951">PrometheusExporterTest():</text><ellipse cx="530.233" cy="132.2969" fill="#FFFFFF" rx="3" ry="3" style="stroke:#000000;stroke-width:1.0;"/><text fill="#000000" font-family="Verdana" font-size="14" lengthAdjust="spacing" textLength="194" x="537.233" y="138.292">getGetUnknownType(): void</text><rect codeLine="54" fill="#FFFFFF" height="206.9688" id="Sample" style="stroke:#000000;stroke-width:1.5;" width="418" x="233.233" y="978"/><ellipse cx="412.983" cy="992" fill="#FFFFFF" rx="9" ry="9" style="stroke:#000000;stroke-width:1.0;"/><path d="M415.9518,997.6406 Q415.3736,997.9375 414.733,998.0859 Q414.0924,998.2344 413.3893,998.2344 Q410.8893,998.2344 409.5689,996.5859 Q408.2486,994.9375 408.2486,991.8125 Q408.2486,988.6875 409.5689,987.0313 Q410.8893,985.375 413.3893,985.375 Q414.0924,985.375 414.7408,985.5313 Q415.3893,985.6875 415.9518,985.9844 L415.9518,988.7031 Q415.3268,988.125 414.733,987.8516 Q414.1393,987.5781 413.5143,987.5781 Q412.1705,987.5781 411.483,988.6484 Q410.7955,989.7188 410.7955,991.8125 Q410.7955,993.9063 411.483,994.9766 Q412.1705,996.0469 413.5143,996.0469 Q414.1393,996.0469 414.733,995.7734 Q415.3268,995.5 415.9518,994.9219 L415.9518,997.6406 Z " fill="#000000"/><text fill="#000000" font-family="Verdana" font-size="14" lengthAdjust="spacing" textLength="51" x="430.483" y="996.8467">Sample</text><line style="stroke:#000000;stroke-width:1.5;" x1="234.233" x2="650.233" y1="1006" y2="1006"/><ellipse cx="244.233" cy="1017" rx="3" ry="3" style="stroke:#000000;stroke-width:1.0;fill:none;"/><text fill="#000000" font-family="Verdana" font-size="14" lengthAdjust="spacing" textLength="88" x="251.233" y="1022.9951">name: String</text><ellipse cx="244.233" cy="1033.2969" rx="3" ry="3" style="stroke:#000000;stroke-width:1.0;fill:none;"/><text fill="#000000" font-family="Verdana" font-size="14" lengthAdjust="spacing" textLength="93" x="251.233" y="1039.292">value: double</text><ellipse cx="244.233" cy="1049.5938" rx="3" ry="3" style="stroke:#000000;stroke-width:1.0;fill:none;"/><text fill="#000000" font-family="Verdana" font-size="14" lengthAdjust="spacing" textLength="176" x="251.233" y="1055.5889">labelNames: List&lt;String&gt;</text><ellipse cx="244.233" cy="1065.8906" rx="3" ry="3" style="stroke:#000000;stroke-width:1.0;fill:none;"/><text fill="#000000" font-family="Verdana" font-size="14" lengthAdjust="spacing" textLength="174" x="251.233" y="1071.8857">labelValues: List&lt;String&gt;</text><ellipse cx="244.233" cy="1082.1875" rx="3" ry="3" style="stroke:#000000;stroke-width:1.0;fill:none;"/><text fill="#000000" font-family="Verdana" font-size="14" lengthAdjust="spacing" textLength="136" x="251.233" y="1088.1826">timestampMs: Long</text><line style="stroke:#000000;stroke-width:1.5;" x1="234.233" x2="650.233" y1="1095.4844" y2="1095.4844"/><ellipse cx="244.233" cy="1106.4844" fill="#FFFFFF" rx="3" ry="3" style="stroke:#000000;stroke-width:1.0;"/><text fill="#000000" font-family="Verdana" font-size="14" lengthAdjust="spacing" textLength="394" x="251.233" y="1112.4795">Sample(String, List&lt;String&gt;, List&lt;String&gt;, double, Long):</text><ellipse cx="244.233" cy="1122.7813" fill="#FFFFFF" rx="3" ry="3" style="stroke:#000000;stroke-width:1.0;"/><text fill="#000000" font-family="Verdana" font-size="14" lengthAdjust="spacing" textLength="352" x="251.233" y="1128.7764">Sample(String, List&lt;String&gt;, List&lt;String&gt;, double):</text><ellipse cx="244.233" cy="1139.0781" fill="#FFFFFF" rx="3" ry="3" style="stroke:#000000;stroke-width:1.0;"/><text fill="#000000" font-family="Verdana" font-size="14" lengthAdjust="spacing" textLength="166" x="251.233" y="1145.0732">equals(Object): boolean</text><ellipse cx="244.233" cy="1155.375" fill="#FFFFFF" rx="3" ry="3" style="stroke:#000000;stroke-width:1.0;"/><text fill="#000000" font-family="Verdana" font-size="14" lengthAdjust="spacing" textLength="107" x="251.233" y="1161.3701">hashCode(): int</text><ellipse cx="244.233" cy="1171.6719" fill="#FFFFFF" rx="3" ry="3" style="stroke:#000000;stroke-width:1.0;"/><text fill="#000000" font-family="Verdana" font-size="14" lengthAdjust="spacing" textLength="113" x="251.233" y="1177.667">toString(): String</text><rect codeLine="66" fill="#FFFFFF" height="186.6406" id="Type" style="stroke:#000000;stroke-width:1.5;" width="168" x="30.233" y="988"/><ellipse cx="65.733" cy="1008.1328" fill="#FFFFFF" rx="9" ry="9" style="stroke:#000000;stroke-width:1.0;"/><path d="M69.8424,1014.1328 L62.1236,1014.1328 L62.1236,1001.7422 L69.8424,1001.7422 L69.8424,1003.8984 L64.5768,1003.8984 L64.5768,1006.5703 L69.3424,1006.5703 L69.3424,1008.7266 L64.5768,1008.7266 L64.5768,1011.9766 L69.8424,1011.9766 L69.8424,1014.1328 Z " fill="#000000"/><text fill="#000000" font-family="Verdana" font-size="12" font-style="italic" lengthAdjust="spacing" textLength="94" x="80.733" y="1004.1387">«enumeration»</text><text fill="#000000" font-family="Verdana" font-size="14" lengthAdjust="spacing" textLength="34" x="110.733" y="1019.9639">Type</text><line style="stroke:#000000;stroke-width:1.5;" x1="31.233" x2="197.233" y1="1028.2656" y2="1028.2656"/><ellipse cx="41.233" cy="1039.2656" rx="3" ry="3" style="stroke:#000000;stroke-width:1.0;fill:none;"/><text fill="#000000" font-family="Verdana" font-size="14" lengthAdjust="spacing" textLength="76" x="48.233" y="1045.2607">SUMMARY:</text><ellipse cx="41.233" cy="1055.5625" rx="3" ry="3" style="stroke:#000000;stroke-width:1.0;fill:none;"/><text fill="#000000" font-family="Verdana" font-size="14" lengthAdjust="spacing" textLength="74" x="48.233" y="1061.5576">COUNTER:</text><ellipse cx="41.233" cy="1071.8594" rx="3" ry="3" style="stroke:#000000;stroke-width:1.0;fill:none;"/><text fill="#000000" font-family="Verdana" font-size="14" lengthAdjust="spacing" textLength="55" x="48.233" y="1077.8545">GAUGE:</text><ellipse cx="41.233" cy="1088.1563" rx="3" ry="3" style="stroke:#000000;stroke-width:1.0;fill:none;"/><text fill="#000000" font-family="Verdana" font-size="14" lengthAdjust="spacing" textLength="89" x="48.233" y="1094.1514">HISTOGRAM:</text><ellipse cx="41.233" cy="1104.4531" rx="3" ry="3" style="stroke:#000000;stroke-width:1.0;fill:none;"/><text fill="#000000" font-family="Verdana" font-size="14" lengthAdjust="spacing" textLength="72" x="48.233" y="1110.4482">UNTYPED:</text><line style="stroke:#000000;stroke-width:1.5;" x1="31.233" x2="197.233" y1="1117.75" y2="1117.75"/><rect fill="#FFFFFF" height="6" style="stroke:#000000;stroke-width:1.0;" width="6" x="38.233" y="1125.75"/><text fill="#000000" font-family="Verdana" font-size="14" lengthAdjust="spacing" textLength="49" x="48.233" y="1134.7451">Type():</text><ellipse cx="41.233" cy="1145.0469" fill="#FFFFFF" rx="3" ry="3" style="stroke:#000000;stroke-width:1.0;"/><text fill="#000000" font-family="Verdana" font-size="14" lengthAdjust="spacing" textLength="107" x="48.233" y="1151.042">values(): Type[]</text><ellipse cx="41.233" cy="1161.3438" fill="#FFFFFF" rx="3" ry="3" style="stroke:#000000;stroke-width:1.0;"/><text fill="#000000" font-family="Verdana" font-size="14" lengthAdjust="spacing" textLength="144" x="48.233" y="1167.3389">valueOf(String): Type</text><path codeLine="77" d="M269.0663,684.2212 C269.0663,684.2212 269.0663,738.6242 269.0663,738.6242 " fill="none" id="Collector-to-MetricFamilySamples" style="stroke:#595959;stroke-width:1.0;stroke-dasharray:7.0,7.0;"/><polygon fill="#595959" points="269.0663,743.6242,273.0663,734.6242,269.0663,738.6242,265.0663,734.6242,269.0663,743.6242" style="stroke:#595959;stroke-width:1.0;"/><path codeLine="80" d="M320.8997,728.6904 C320.8997,728.6904 320.8997,684.1096 320.8997,684.1096 " fill="none" id="MetricFamilySamples-backto-Collector" style="stroke:#820000;stroke-width:1.0;"/><ellipse cx="320.8997" cy="735.6904" fill="#FFFFFF" rx="8" ry="8" style="stroke:#820000;stroke-width:1.0;"/><line style="stroke:#820000;stroke-width:1.0;" x1="320.8997" x2="320.8997" y1="727.6904" y2="743.6904"/><line style="stroke:#820000;stroke-width:1.0;" x1="328.8997" x2="312.8997" y1="735.6904" y2="735.6904"/><path codeLine="78" d="M324.233,351.0268 C324.233,351.0268 324.233,395.7591 324.233,395.7591 " fill="none" id="Describable-backto-Collector" style="stroke:#820000;stroke-width:1.0;"/><ellipse cx="324.2331" cy="344.0268" fill="#FFFFFF" rx="8" ry="8" style="stroke:#820000;stroke-width:1.0;"/><line style="stroke:#820000;stroke-width:1.0;" x1="324.2332" x2="324.233" y1="352.0268" y2="336.0268"/><line style="stroke:#820000;stroke-width:1.0;" x1="316.2331" x2="332.2331" y1="344.0269" y2="344.0267"/><path codeLine="79" d="M470.733,336.0321 C470.733,336.0321 470.733,738.9054 470.733,738.9054 " fill="none" id="Describable-to-MetricFamilySamples" style="stroke:#595959;stroke-width:1.0;stroke-dasharray:7.0,7.0;"/><polygon fill="#595959" points="470.733,743.9054,474.733,734.9054,470.733,738.9054,466.733,734.9054,470.733,743.9054" style="stroke:#595959;stroke-width:1.0;"/><path codeLine="81" d="M367.233,930.2611 C367.233,930.2611 367.233,964.7642 367.233,964.7642 " fill="none" id="MetricFamilySamples-Sample" style="stroke:#595959;stroke-width:1.0;"/><polygon fill="#595959" points="367.233,977.7642,371.233,968.7642,367.233,972.7642,363.233,968.7642,367.233,977.7642" style="stroke:#595959;stroke-width:1.0;"/><line style="stroke:#595959;stroke-width:1.0;" x1="367.233" x2="367.233" y1="972.7642" y2="964.7642"/><polygon fill="#595959" points="367.233,918.2611,363.233,924.2611,367.233,930.2611,371.233,924.2611,367.233,918.2611" style="stroke:#595959;stroke-width:1.0;"/><text fill="#000000" font-family="Verdana" font-size="13" lengthAdjust="spacing" textLength="8" x="353.6783" y="967.0156">1</text><text fill="#000000" font-family="Verdana" font-size="13" lengthAdjust="spacing" textLength="54" x="306.3799" y="938.4726">samples</text><text fill="#000000" font-family="Verdana" font-size="13" lengthAdjust="spacing" textLength="7" x="329.8799" y="953.6054">*</text><path codeLine="89" d="M501.233,962.8038 C501.233,962.8038 501.233,918.2824 501.233,918.2824 " fill="none" id="Sample-backto-MetricFamilySamples" style="stroke:#820000;stroke-width:1.0;"/><ellipse cx="501.2331" cy="969.8038" fill="#FFFFFF" rx="8" ry="8" style="stroke:#820000;stroke-width:1.0;"/><line style="stroke:#820000;stroke-width:1.0;" x1="501.2332" x2="501.233" y1="961.8038" y2="977.8038"/><line style="stroke:#820000;stroke-width:1.0;" x1="509.2331" x2="493.2331" y1="969.8039" y2="969.8037"/><path codeLine="82" d="M225.233,930.0832 C225.233,930.0832 225.233,1082 225.233,1082 C225.233,1082 211.363,1082 211.363,1082 " fill="none" id="MetricFamilySamples-Type" style="stroke:#595959;stroke-width:1.0;"/><polygon fill="#595959" points="198.363,1082,207.363,1086,203.363,1082,207.363,1078,198.363,1082" style="stroke:#595959;stroke-width:1.0;"/><line style="stroke:#595959;stroke-width:1.0;" x1="203.363" x2="211.363" y1="1082" y2="1081.9999"/><polygon fill="#595959" points="225.233,918.0832,221.233,924.0832,225.233,930.0832,229.233,924.0832,225.233,918.0832" style="stroke:#595959;stroke-width:1.0;"/><text fill="#000000" font-family="Verdana" font-size="13" lengthAdjust="spacing" textLength="8" x="201.5377" y="937.3823">1</text><text fill="#000000" font-family="Verdana" font-size="13" lengthAdjust="spacing" textLength="28" x="206.2325" y="1062.6855">type</text><text fill="#000000" font-family="Verdana" font-size="13" lengthAdjust="spacing" textLength="8" x="216.2325" y="1077.8183">1</text><path codeLine="83" d="M258.233,203.2175 C258.233,203.2175 258.233,375.6192 258.233,375.6192 " fill="none" id="PrometheusExporter-to-Collector" style="stroke:#000082;stroke-width:1.0;"/><polygon fill="none" points="265.2331,375.6192,258.233,395.6192,251.2331,375.6191,265.2331,375.6192" style="stroke:#000082;stroke-width:1.0;"/><path codeLine="84" d="M379.733,203.2188 C379.733,203.2188 379.733,242.8078 379.733,242.8078 " fill="none" id="PrometheusExporter-to-Describable" style="stroke:#008200;stroke-width:1.0;stroke-dasharray:7.0,7.0;"/><polygon fill="none" points="386.7331,242.8078,379.733,262.8078,372.7331,242.8077,386.7331,242.8078" style="stroke:#008200;stroke-width:1.0;"/><path codeLine="85" d="M158.733,203.2188 C158.733,203.2188 158.733,242.8078 158.733,242.8078 " fill="none" id="PrometheusExporter-to-Exporter" style="stroke:#008200;stroke-width:1.0;stroke-dasharray:7.0,7.0;"/><polygon fill="none" points="165.7331,242.8078,158.733,262.8078,151.7331,242.8077,165.7331,242.8078" style="stroke:#008200;stroke-width:1.0;"/><path codeLine="86" d="M484.0022,184 C547.8556,184 601.983,184 601.983,184 C601.983,184 601.983,738.7427 601.983,738.7427 " fill="none" id="PrometheusExporter-to-MetricFamilySamples" style="stroke:#595959;stroke-width:1.0;stroke-dasharray:7.0,7.0;"/><polygon fill="#595959" points="601.983,743.7427,605.983,734.7427,601.983,738.7427,597.983,734.7427,601.983,743.7427" style="stroke:#595959;stroke-width:1.0;"/><path codeLine="87" d="M483.7518,165 C566.5982,165 643.233,165 643.233,165 C643.233,165 643.233,972.7031 643.233,972.7031 " fill="none" id="PrometheusExporter-to-Sample" style="stroke:#595959;stroke-width:1.0;stroke-dasharray:7.0,7.0;"/><polygon fill="#595959" points="643.233,977.7031,647.233,968.7031,643.233,972.7031,639.233,968.7031,643.233,977.7031" style="stroke:#595959;stroke-width:1.0;"/><path codeLine="88" d="M76.4257,108 C39.3955,108 12.233,108 12.233,108 C12.233,108 12.233,1082 12.233,1082 C12.233,1082 25,1082 25,1082 " fill="none" id="PrometheusExporter-to-Type" style="stroke:#595959;stroke-width:1.0;stroke-dasharray:7.0,7.0;"/><polygon fill="#595959" points="30,1082,21,1078,25,1082,21,1086,30,1082" style="stroke:#595959;stroke-width:1.0;"/><path codeLine="90" d="M114.983,972.7961 C114.983,972.7961 114.983,684.2005 114.983,684.2005 " fill="none" id="Type-backto-Collector" style="stroke:#820000;stroke-width:1.0;"/><ellipse cx="114.983" cy="979.7961" fill="#FFFFFF" rx="8" ry="8" style="stroke:#820000;stroke-width:1.0;"/><line style="stroke:#820000;stroke-width:1.0;" x1="114.983" x2="114.983" y1="971.7961" y2="987.7961"/><line style="stroke:#820000;stroke-width:1.0;" x1="122.983" x2="106.983" y1="979.7961" y2="979.7961"/></g></svg>