<?xml version="1.0" encoding="UTF-8" standalone="no"?><svg xmlns="http://www.w3.org/2000/svg" xmlns:xlink="http://www.w3.org/1999/xlink" contentScriptType="application/ecmascript" contentStyleType="text/css" height="387px" preserveAspectRatio="none" style="width:539px;height:387px;background:#FFFFFF;" version="1.1" viewBox="0 0 539 387" width="539px" zoomAndPan="magnify"><defs/><g><rect codeLine="6" fill="#FFFFFF" height="76.5938" id="ExporterFactory" style="stroke:#000000;stroke-width:1.5;" width="253" x="12" y="50.5"/><ellipse cx="80.75" cy="64.5" fill="#FFFFFF" rx="9" ry="9" style="stroke:#000000;stroke-width:1.0;"/><path d="M83.7188,70.1406 Q83.1406,70.4375 82.5,70.5859 Q81.8594,70.7344 81.1563,70.7344 Q78.6563,70.7344 77.3359,69.0859 Q76.0156,67.4375 76.0156,64.3125 Q76.0156,61.1875 77.3359,59.5313 Q78.6563,57.875 81.1563,57.875 Q81.8594,57.875 82.5078,58.0313 Q83.1563,58.1875 83.7188,58.4844 L83.7188,61.2031 Q83.0938,60.625 82.5,60.3516 Q81.9063,60.0781 81.2813,60.0781 Q79.9375,60.0781 79.25,61.1484 Q78.5625,62.2188 78.5625,64.3125 Q78.5625,66.4063 79.25,67.4766 Q79.9375,68.5469 81.2813,68.5469 Q81.9063,68.5469 82.5,68.2734 Q83.0938,68 83.7188,67.4219 L83.7188,70.1406 Z " fill="#000000"/><text fill="#000000" font-family="Verdana" font-size="14" lengthAdjust="spacing" textLength="108" x="98.25" y="69.3467">ExporterFactory</text><line style="stroke:#000000;stroke-width:1.5;" x1="13" x2="264" y1="78.5" y2="78.5"/><rect fill="none" height="6" style="stroke:#000000;stroke-width:1.0;" width="6" x="20" y="86.5"/><text fill="#000000" font-family="Verdana" font-size="14" lengthAdjust="spacing" textLength="116" x="30" y="95.4951">LOGGER: Logger</text><line style="stroke:#000000;stroke-width:1.5;" x1="13" x2="264" y1="102.7969" y2="102.7969"/><ellipse cx="23" cy="113.7969" fill="#FFFFFF" rx="3" ry="3" style="stroke:#000000;stroke-width:1.0;"/><text fill="#000000" font-family="Verdana" font-size="14" lengthAdjust="spacing" textLength="229" x="30" y="119.792">getInstanceList(): List&lt;Exporter&gt;</text><rect codeLine="10" fill="#FFFFFF" height="154.0469" id="ExporterType" style="stroke:#000000;stroke-width:1.5;" width="232" x="300.5" y="12"/><ellipse cx="366.75" cy="32.1328" fill="#FFFFFF" rx="9" ry="9" style="stroke:#000000;stroke-width:1.0;"/><path d="M370.8594,38.1328 L363.1406,38.1328 L363.1406,25.7422 L370.8594,25.7422 L370.8594,27.8984 L365.5938,27.8984 L365.5938,30.5703 L370.3594,30.5703 L370.3594,32.7266 L365.5938,32.7266 L365.5938,35.9766 L370.8594,35.9766 L370.8594,38.1328 Z " fill="#000000"/><text fill="#000000" font-family="Verdana" font-size="12" font-style="italic" lengthAdjust="spacing" textLength="94" x="383.25" y="28.1387">«enumeration»</text><text fill="#000000" font-family="Verdana" font-size="14" lengthAdjust="spacing" textLength="92" x="384.25" y="43.9639">ExporterType</text><line style="stroke:#000000;stroke-width:1.5;" x1="301.5" x2="531.5" y1="52.2656" y2="52.2656"/><ellipse cx="311.5" cy="63.2656" rx="3" ry="3" style="stroke:#000000;stroke-width:1.0;fill:none;"/><text fill="#000000" font-family="Verdana" font-size="14" lengthAdjust="spacing" textLength="103" x="318.5" y="69.2607">PROMETHEUS:</text><rect fill="none" height="6" style="stroke:#000000;stroke-width:1.0;" width="6" x="308.5" y="76.5625"/><text fill="#000000" font-family="Verdana" font-size="14" lengthAdjust="spacing" textLength="88" x="318.5" y="85.5576">name: String</text><line style="stroke:#000000;stroke-width:1.5;" x1="301.5" x2="531.5" y1="92.8594" y2="92.8594"/><ellipse cx="311.5" cy="103.8594" fill="#FFFFFF" rx="3" ry="3" style="stroke:#000000;stroke-width:1.0;"/><text fill="#000000" font-family="Verdana" font-size="14" lengthAdjust="spacing" textLength="122" x="318.5" y="109.8545">getName(): String</text><ellipse cx="311.5" cy="120.1563" fill="#FFFFFF" rx="3" ry="3" style="stroke:#000000;stroke-width:1.0;"/><text fill="#000000" font-family="Verdana" font-size="14" lengthAdjust="spacing" textLength="165" x="318.5" y="126.1514">values(): ExporterType[]</text><ellipse cx="311.5" cy="136.4531" fill="#FFFFFF" rx="3" ry="3" style="stroke:#000000;stroke-width:1.0;"/><text fill="#000000" font-family="Verdana" font-size="14" lengthAdjust="spacing" textLength="208" x="318.5" y="142.4482">getType(String): ExporterType</text><ellipse cx="311.5" cy="152.75" fill="#FFFFFF" rx="3" ry="3" style="stroke:#000000;stroke-width:1.0;"/><text fill="#000000" font-family="Verdana" font-size="14" lengthAdjust="spacing" textLength="202" x="318.5" y="158.7451">valueOf(String): ExporterType</text><rect codeLine="18" fill="#FFFFFF" height="60.2969" id="RegistryFactory" style="stroke:#000000;stroke-width:1.5;" width="181" x="48" y="273"/><ellipse cx="82.15" cy="287" fill="#FFFFFF" rx="9" ry="9" style="stroke:#000000;stroke-width:1.0;"/><path d="M85.1188,292.6406 Q84.5406,292.9375 83.9,293.0859 Q83.2594,293.2344 82.5563,293.2344 Q80.0563,293.2344 78.7359,291.5859 Q77.4156,289.9375 77.4156,286.8125 Q77.4156,283.6875 78.7359,282.0313 Q80.0563,280.375 82.5563,280.375 Q83.2594,280.375 83.9078,280.5313 Q84.5563,280.6875 85.1188,280.9844 L85.1188,283.7031 Q84.4938,283.125 83.9,282.8516 Q83.3063,282.5781 82.6813,282.5781 Q81.3375,282.5781 80.65,283.6484 Q79.9625,284.7188 79.9625,286.8125 Q79.9625,288.9063 80.65,289.9766 Q81.3375,291.0469 82.6813,291.0469 Q83.3063,291.0469 83.9,290.7734 Q84.4938,290.5 85.1188,289.9219 L85.1188,292.6406 Z " fill="#000000"/><text fill="#000000" font-family="Verdana" font-size="14" lengthAdjust="spacing" textLength="106" x="98.85" y="291.8467">RegistryFactory</text><line style="stroke:#000000;stroke-width:1.5;" x1="49" x2="228" y1="301" y2="301"/><line style="stroke:#000000;stroke-width:1.5;" x1="49" x2="228" y1="309" y2="309"/><ellipse cx="59" cy="320" fill="#FFFFFF" rx="3" ry="3" style="stroke:#000000;stroke-width:1.0;"/><text fill="#000000" font-family="Verdana" font-size="14" lengthAdjust="spacing" textLength="157" x="66" y="325.9951">getInstance(): Registry</text><rect codeLine="21" fill="#FFFFFF" height="154.0469" id="RegistryType" style="stroke:#000000;stroke-width:1.5;" width="230" x="264.5" y="226"/><ellipse cx="330.75" cy="246.1328" fill="#FFFFFF" rx="9" ry="9" style="stroke:#000000;stroke-width:1.0;"/><path d="M334.8594,252.1328 L327.1406,252.1328 L327.1406,239.7422 L334.8594,239.7422 L334.8594,241.8984 L329.5938,241.8984 L329.5938,244.5703 L334.3594,244.5703 L334.3594,246.7266 L329.5938,246.7266 L329.5938,249.9766 L334.8594,249.9766 L334.8594,252.1328 Z " fill="#000000"/><text fill="#000000" font-family="Verdana" font-size="12" font-style="italic" lengthAdjust="spacing" textLength="94" x="346.25" y="242.1387">«enumeration»</text><text fill="#000000" font-family="Verdana" font-size="14" lengthAdjust="spacing" textLength="90" x="348.25" y="257.9639">RegistryType</text><line style="stroke:#000000;stroke-width:1.5;" x1="265.5" x2="493.5" y1="266.2656" y2="266.2656"/><ellipse cx="275.5" cy="277.2656" rx="3" ry="3" style="stroke:#000000;stroke-width:1.0;fill:none;"/><text fill="#000000" font-family="Verdana" font-size="14" lengthAdjust="spacing" textLength="75" x="282.5" y="283.2607">COMPACT:</text><rect fill="none" height="6" style="stroke:#000000;stroke-width:1.0;" width="6" x="272.5" y="290.5625"/><text fill="#000000" font-family="Verdana" font-size="14" lengthAdjust="spacing" textLength="88" x="282.5" y="299.5576">name: String</text><line style="stroke:#000000;stroke-width:1.5;" x1="265.5" x2="493.5" y1="306.8594" y2="306.8594"/><ellipse cx="275.5" cy="317.8594" fill="#FFFFFF" rx="3" ry="3" style="stroke:#000000;stroke-width:1.0;"/><text fill="#000000" font-family="Verdana" font-size="14" lengthAdjust="spacing" textLength="163" x="282.5" y="323.8545">values(): RegistryType[]</text><ellipse cx="275.5" cy="334.1563" fill="#FFFFFF" rx="3" ry="3" style="stroke:#000000;stroke-width:1.0;"/><text fill="#000000" font-family="Verdana" font-size="14" lengthAdjust="spacing" textLength="206" x="282.5" y="340.1514">getType(String): RegistryType</text><ellipse cx="275.5" cy="350.4531" fill="#FFFFFF" rx="3" ry="3" style="stroke:#000000;stroke-width:1.0;"/><text fill="#000000" font-family="Verdana" font-size="14" lengthAdjust="spacing" textLength="122" x="282.5" y="356.4482">getName(): String</text><ellipse cx="275.5" cy="366.75" fill="#FFFFFF" rx="3" ry="3" style="stroke:#000000;stroke-width:1.0;"/><text fill="#000000" font-family="Verdana" font-size="14" lengthAdjust="spacing" textLength="200" x="282.5" y="372.7451">valueOf(String): RegistryType</text></g></svg>