<?xml version="1.0" encoding="UTF-8" standalone="no"?><svg xmlns="http://www.w3.org/2000/svg" xmlns:xlink="http://www.w3.org/1999/xlink" contentScriptType="application/ecmascript" contentStyleType="text/css" height="1398px" preserveAspectRatio="none" style="width:1517px;height:1398px;background:#FFFFFF;" version="1.1" viewBox="0 0 1517 1398" width="1517px" zoomAndPan="magnify"><defs/><g><rect codeLine="6" fill="#FFFFFF" height="72.5625" id="Clock" style="stroke:#000000;stroke-width:1.5;" width="250" x="12" y="617.5"/><ellipse cx="100.25" cy="637.6328" fill="#FFFFFF" rx="9" ry="9" style="stroke:#000000;stroke-width:1.0;"/><path d="M96.1719,633.3984 L96.1719,631.2422 L103.5625,631.2422 L103.5625,633.3984 L101.0938,633.3984 L101.0938,641.4766 L103.5625,641.4766 L103.5625,643.6328 L96.1719,643.6328 L96.1719,641.4766 L98.6406,641.4766 L98.6406,633.3984 L96.1719,633.3984 Z " fill="#000000"/><text fill="#000000" font-family="Verdana" font-size="12" font-style="italic" lengthAdjust="spacing" textLength="70" x="115.75" y="633.6387">«interface»</text><text fill="#000000" font-family="Verdana" font-size="14" font-style="italic" lengthAdjust="spacing" textLength="38" x="131.75" y="649.4639">Clock</text><line style="stroke:#000000;stroke-width:1.5;" x1="13" x2="261" y1="657.7656" y2="657.7656"/><line style="stroke:#000000;stroke-width:1.5;" x1="13" x2="261" y1="665.7656" y2="665.7656"/><ellipse cx="23" cy="676.7656" fill="#FFFFFF" rx="3" ry="3" style="stroke:#000000;stroke-width:1.0;"/><text fill="#000000" font-family="Verdana" font-size="14" lengthAdjust="spacing" textLength="226" x="30" y="682.7607">getCurrentMilliseconds(): double</text><rect codeLine="9" fill="#FFFFFF" height="105.1563" id="Counter" style="stroke:#000000;stroke-width:1.5;" width="168" x="297" y="601.5"/><ellipse cx="344.25" cy="621.6328" fill="#FFFFFF" rx="9" ry="9" style="stroke:#000000;stroke-width:1.0;"/><path d="M340.1719,617.3984 L340.1719,615.2422 L347.5625,615.2422 L347.5625,617.3984 L345.0938,617.3984 L345.0938,625.4766 L347.5625,625.4766 L347.5625,627.6328 L340.1719,627.6328 L340.1719,625.4766 L342.6406,625.4766 L342.6406,617.3984 L340.1719,617.3984 Z " fill="#000000"/><text fill="#000000" font-family="Verdana" font-size="12" font-style="italic" lengthAdjust="spacing" textLength="70" x="359.75" y="617.6387">«interface»</text><text fill="#000000" font-family="Verdana" font-size="14" font-style="italic" lengthAdjust="spacing" textLength="56" x="366.75" y="633.4639">Counter</text><line style="stroke:#000000;stroke-width:1.5;" x1="298" x2="464" y1="641.7656" y2="641.7656"/><line style="stroke:#000000;stroke-width:1.5;" x1="298" x2="464" y1="649.7656" y2="649.7656"/><ellipse cx="308" cy="660.7656" fill="#FFFFFF" rx="3" ry="3" style="stroke:#000000;stroke-width:1.0;"/><text fill="#000000" font-family="Verdana" font-size="14" lengthAdjust="spacing" textLength="144" x="315" y="666.7607">decrease(long): long</text><ellipse cx="308" cy="677.0625" fill="#FFFFFF" rx="3" ry="3" style="stroke:#000000;stroke-width:1.0;"/><text fill="#000000" font-family="Verdana" font-size="14" lengthAdjust="spacing" textLength="138" x="315" y="683.0576">increase(long): long</text><ellipse cx="308" cy="693.3594" fill="#FFFFFF" rx="3" ry="3" style="stroke:#000000;stroke-width:1.0;"/><text fill="#000000" font-family="Verdana" font-size="14" lengthAdjust="spacing" textLength="72" x="315" y="699.3545">get(): long</text><rect codeLine="14" fill="#FFFFFF" height="72.5625" id="Exporter" style="stroke:#000000;stroke-width:1.5;" width="205" x="905.5" y="232"/><ellipse cx="971.25" cy="252.1328" fill="#FFFFFF" rx="9" ry="9" style="stroke:#000000;stroke-width:1.0;"/><path d="M967.1719,247.8984 L967.1719,245.7422 L974.5625,245.7422 L974.5625,247.8984 L972.0938,247.8984 L972.0938,255.9766 L974.5625,255.9766 L974.5625,258.1328 L967.1719,258.1328 L967.1719,255.9766 L969.6406,255.9766 L969.6406,247.8984 L967.1719,247.8984 Z " fill="#000000"/><text fill="#000000" font-family="Verdana" font-size="12" font-style="italic" lengthAdjust="spacing" textLength="70" x="986.75" y="248.1387">«interface»</text><text fill="#000000" font-family="Verdana" font-size="14" font-style="italic" lengthAdjust="spacing" textLength="58" x="992.75" y="263.9639">Exporter</text><line style="stroke:#000000;stroke-width:1.5;" x1="906.5" x2="1109.5" y1="272.2656" y2="272.2656"/><line style="stroke:#000000;stroke-width:1.5;" x1="906.5" x2="1109.5" y1="280.2656" y2="280.2656"/><ellipse cx="916.5" cy="291.2656" fill="#FFFFFF" rx="3" ry="3" style="stroke:#000000;stroke-width:1.0;"/><text fill="#000000" font-family="Verdana" font-size="14" lengthAdjust="spacing" textLength="181" x="923.5" y="297.2607">setRegistry(Registry): void</text><rect codeLine="17" fill="#FFFFFF" height="72.5625" id="Gauge" style="stroke:#000000;stroke-width:1.5;" width="105" x="500.5" y="617.5"/><ellipse cx="513.5" cy="637.6328" fill="#FFFFFF" rx="9" ry="9" style="stroke:#000000;stroke-width:1.0;"/><path d="M509.4219,633.3984 L509.4219,631.2422 L516.8125,631.2422 L516.8125,633.3984 L514.3438,633.3984 L514.3438,641.4766 L516.8125,641.4766 L516.8125,643.6328 L509.4219,643.6328 L509.4219,641.4766 L511.8906,641.4766 L511.8906,633.3984 L509.4219,633.3984 Z " fill="#000000"/><text fill="#000000" font-family="Verdana" font-size="12" font-style="italic" lengthAdjust="spacing" textLength="70" x="523.5" y="633.6387">«interface»</text><text fill="#000000" font-family="Verdana" font-size="14" font-style="italic" lengthAdjust="spacing" textLength="46" x="535.5" y="649.4639">Gauge</text><rect fill="#FFFFFF" height="15.9688" style="stroke:#000000;stroke-width:1.0;stroke-dasharray:2.0,2.0;" width="9" x="599.5" y="614.5"/><text fill="#000000" font-family="Verdana" font-size="12" font-style="italic" lengthAdjust="spacing" textLength="7" x="600.5" y="626.6387">T</text><line style="stroke:#000000;stroke-width:1.5;" x1="501.5" x2="604.5" y1="657.7656" y2="657.7656"/><line style="stroke:#000000;stroke-width:1.5;" x1="501.5" x2="604.5" y1="665.7656" y2="665.7656"/><ellipse cx="511.5" cy="676.7656" fill="#FFFFFF" rx="3" ry="3" style="stroke:#000000;stroke-width:1.0;"/><text fill="#000000" font-family="Verdana" font-size="14" lengthAdjust="spacing" textLength="51" x="518.5" y="682.7607">get(): T</text><rect codeLine="20" fill="#FFFFFF" height="223.2656" id="Id" style="stroke:#000000;stroke-width:1.5;" width="331" x="646.5" y="1150"/><ellipse cx="802.25" cy="1164" fill="#FFFFFF" rx="9" ry="9" style="stroke:#000000;stroke-width:1.0;"/><path d="M805.2188,1169.6406 Q804.6406,1169.9375 804,1170.0859 Q803.3594,1170.2344 802.6563,1170.2344 Q800.1563,1170.2344 798.8359,1168.5859 Q797.5156,1166.9375 797.5156,1163.8125 Q797.5156,1160.6875 798.8359,1159.0313 Q800.1563,1157.375 802.6563,1157.375 Q803.3594,1157.375 804.0078,1157.5313 Q804.6563,1157.6875 805.2188,1157.9844 L805.2188,1160.7031 Q804.5938,1160.125 804,1159.8516 Q803.4063,1159.5781 802.7813,1159.5781 Q801.4375,1159.5781 800.75,1160.6484 Q800.0625,1161.7188 800.0625,1163.8125 Q800.0625,1165.9063 800.75,1166.9766 Q801.4375,1168.0469 802.7813,1168.0469 Q803.4063,1168.0469 804,1167.7734 Q804.5938,1167.5 805.2188,1166.9219 L805.2188,1169.6406 Z " fill="#000000"/><text fill="#000000" font-family="Verdana" font-size="14" lengthAdjust="spacing" textLength="12" x="819.75" y="1168.8467">Id</text><line style="stroke:#000000;stroke-width:1.5;" x1="647.5" x2="976.5" y1="1178" y2="1178"/><rect fill="none" height="6" style="stroke:#000000;stroke-width:1.0;" width="6" x="654.5" y="1186"/><text fill="#000000" font-family="Verdana" font-size="14" lengthAdjust="spacing" textLength="88" x="664.5" y="1194.9951">name: String</text><rect fill="none" height="6" style="stroke:#000000;stroke-width:1.0;" width="6" x="654.5" y="1202.2969"/><text fill="#000000" font-family="Verdana" font-size="14" lengthAdjust="spacing" textLength="226" x="664.5" y="1211.292">tags: SortedMap&lt;String, String&gt;</text><rect fill="none" height="6" style="stroke:#000000;stroke-width:1.0;" width="6" x="654.5" y="1218.5938"/><text fill="#000000" font-family="Verdana" font-size="14" lengthAdjust="spacing" textLength="55" x="664.5" y="1227.5889">id: UUID</text><line style="stroke:#000000;stroke-width:1.5;" x1="647.5" x2="976.5" y1="1234.8906" y2="1234.8906"/><ellipse cx="657.5" cy="1245.8906" fill="#FFFFFF" rx="3" ry="3" style="stroke:#000000;stroke-width:1.0;"/><text fill="#000000" font-family="Verdana" font-size="14" lengthAdjust="spacing" textLength="67" x="664.5" y="1251.8857">Id(String):</text><ellipse cx="657.5" cy="1262.1875" fill="#FFFFFF" rx="3" ry="3" style="stroke:#000000;stroke-width:1.0;"/><text fill="#000000" font-family="Verdana" font-size="14" lengthAdjust="spacing" textLength="113" x="664.5" y="1268.1826">toString(): String</text><ellipse cx="657.5" cy="1278.4844" fill="#FFFFFF" rx="3" ry="3" style="stroke:#000000;stroke-width:1.0;"/><text fill="#000000" font-family="Verdana" font-size="14" lengthAdjust="spacing" textLength="173" x="664.5" y="1284.4795">withTag(String, String): Id</text><ellipse cx="657.5" cy="1294.7813" fill="#FFFFFF" rx="3" ry="3" style="stroke:#000000;stroke-width:1.0;"/><text fill="#000000" font-family="Verdana" font-size="14" lengthAdjust="spacing" textLength="122" x="664.5" y="1300.7764">getName(): String</text><ellipse cx="657.5" cy="1311.0781" fill="#FFFFFF" rx="3" ry="3" style="stroke:#000000;stroke-width:1.0;"/><text fill="#000000" font-family="Verdana" font-size="14" lengthAdjust="spacing" textLength="88" x="664.5" y="1317.0732">getId(): UUID</text><ellipse cx="657.5" cy="1327.375" fill="#FFFFFF" rx="3" ry="3" style="stroke:#000000;stroke-width:1.0;"/><text fill="#000000" font-family="Verdana" font-size="14" lengthAdjust="spacing" textLength="298" x="664.5" y="1333.3701">getTags(): Iterable&lt;Entry&lt;String, String&gt;&gt;</text><ellipse cx="657.5" cy="1343.6719" fill="#FFFFFF" rx="3" ry="3" style="stroke:#000000;stroke-width:1.0;"/><text fill="#000000" font-family="Verdana" font-size="14" lengthAdjust="spacing" textLength="127" x="664.5" y="1349.667">getTagCount(): int</text><ellipse cx="657.5" cy="1359.9688" fill="#FFFFFF" rx="3" ry="3" style="stroke:#000000;stroke-width:1.0;"/><text fill="#000000" font-family="Verdana" font-size="14" lengthAdjust="spacing" textLength="307" x="664.5" y="1365.9639">withTag(Iterable&lt;Entry&lt;String, String&gt;&gt;): Id</text><rect codeLine="33" fill="#FFFFFF" height="512.5781" id="IdConstants" style="stroke:#000000;stroke-width:1.5;" width="365" x="1145.5" y="12"/><ellipse cx="1282.75" cy="32.1328" fill="#FFFFFF" rx="9" ry="9" style="stroke:#000000;stroke-width:1.0;"/><path d="M1278.6719,27.8984 L1278.6719,25.7422 L1286.0625,25.7422 L1286.0625,27.8984 L1283.5938,27.8984 L1283.5938,35.9766 L1286.0625,35.9766 L1286.0625,38.1328 L1278.6719,38.1328 L1278.6719,35.9766 L1281.1406,35.9766 L1281.1406,27.8984 L1278.6719,27.8984 Z " fill="#000000"/><text fill="#000000" font-family="Verdana" font-size="12" font-style="italic" lengthAdjust="spacing" textLength="70" x="1306.75" y="28.1387">«interface»</text><text fill="#000000" font-family="Verdana" font-size="14" font-style="italic" lengthAdjust="spacing" textLength="83" x="1300.25" y="43.9639">IdConstants</text><line style="stroke:#000000;stroke-width:1.5;" x1="1146.5" x2="1509.5" y1="52.2656" y2="52.2656"/><ellipse cx="1156.5" cy="63.2656" rx="3" ry="3" style="stroke:#000000;stroke-width:1.0;fill:none;"/><text fill="#000000" font-family="Verdana" font-size="14" lengthAdjust="spacing" textLength="227" x="1163.5" y="69.2607">STATISTIC_VALUE_COUNT: String</text><ellipse cx="1156.5" cy="79.5625" rx="3" ry="3" style="stroke:#000000;stroke-width:1.0;fill:none;"/><text fill="#000000" font-family="Verdana" font-size="14" lengthAdjust="spacing" textLength="341" x="1163.5" y="85.5576">STATUS_VALUE_AFTER_ROLLBACKED_KEY: String</text><ellipse cx="1156.5" cy="95.8594" rx="3" ry="3" style="stroke:#000000;stroke-width:1.0;fill:none;"/><text fill="#000000" font-family="Verdana" font-size="14" lengthAdjust="spacing" textLength="255" x="1163.5" y="101.8545">STATUS_VALUE_ROLLBACKED: String</text><ellipse cx="1156.5" cy="112.1563" rx="3" ry="3" style="stroke:#000000;stroke-width:1.0;fill:none;"/><text fill="#000000" font-family="Verdana" font-size="14" lengthAdjust="spacing" textLength="211" x="1163.5" y="118.1514">STATUS_VALUE_ACTIVE: String</text><ellipse cx="1156.5" cy="128.4531" rx="3" ry="3" style="stroke:#000000;stroke-width:1.0;fill:none;"/><text fill="#000000" font-family="Verdana" font-size="14" lengthAdjust="spacing" textLength="199" x="1163.5" y="134.4482">METER_VALUE_TIMER: String</text><ellipse cx="1156.5" cy="144.75" rx="3" ry="3" style="stroke:#000000;stroke-width:1.0;fill:none;"/><text fill="#000000" font-family="Verdana" font-size="14" lengthAdjust="spacing" textLength="243" x="1163.5" y="150.7451">STATISTIC_VALUE_AVERAGE: String</text><ellipse cx="1156.5" cy="161.0469" rx="3" ry="3" style="stroke:#000000;stroke-width:1.0;fill:none;"/><text fill="#000000" font-family="Verdana" font-size="14" lengthAdjust="spacing" textLength="334" x="1163.5" y="167.042">STATUS_VALUE_AFTER_COMMITTED_KEY: String</text><ellipse cx="1156.5" cy="177.3438" rx="3" ry="3" style="stroke:#000000;stroke-width:1.0;fill:none;"/><text fill="#000000" font-family="Verdana" font-size="14" lengthAdjust="spacing" textLength="132" x="1163.5" y="183.3389">METER_KEY: String</text><ellipse cx="1156.5" cy="193.6406" rx="3" ry="3" style="stroke:#000000;stroke-width:1.0;fill:none;"/><text fill="#000000" font-family="Verdana" font-size="14" lengthAdjust="spacing" textLength="206" x="1163.5" y="199.6357">METER_VALUE_GAUGE: String</text><ellipse cx="1156.5" cy="209.9375" rx="3" ry="3" style="stroke:#000000;stroke-width:1.0;fill:none;"/><text fill="#000000" font-family="Verdana" font-size="14" lengthAdjust="spacing" textLength="138" x="1163.5" y="215.9326">STATUS_KEY: String</text><ellipse cx="1156.5" cy="226.2344" rx="3" ry="3" style="stroke:#000000;stroke-width:1.0;fill:none;"/><text fill="#000000" font-family="Verdana" font-size="14" lengthAdjust="spacing" textLength="207" x="1163.5" y="232.2295">STATISTIC_VALUE_MAX: String</text><ellipse cx="1156.5" cy="242.5313" rx="3" ry="3" style="stroke:#000000;stroke-width:1.0;fill:none;"/><text fill="#000000" font-family="Verdana" font-size="14" lengthAdjust="spacing" textLength="318" x="1163.5" y="248.5264">STATUS_VALUE_TWO_PHASE_TIMEOUT: String</text><ellipse cx="1156.5" cy="258.8281" rx="3" ry="3" style="stroke:#000000;stroke-width:1.0;fill:none;"/><text fill="#000000" font-family="Verdana" font-size="14" lengthAdjust="spacing" textLength="165" x="1163.5" y="264.8232">ROLE_VALUE_TM: String</text><ellipse cx="1156.5" cy="275.125" rx="3" ry="3" style="stroke:#000000;stroke-width:1.0;fill:none;"/><text fill="#000000" font-family="Verdana" font-size="14" lengthAdjust="spacing" textLength="153" x="1163.5" y="281.1201">STATISTIC_KEY: String</text><ellipse cx="1156.5" cy="291.4219" rx="3" ry="3" style="stroke:#000000;stroke-width:1.0;fill:none;"/><text fill="#000000" font-family="Verdana" font-size="14" lengthAdjust="spacing" textLength="204" x="1163.5" y="297.417">STATISTIC_VALUE_TPS: String</text><ellipse cx="1156.5" cy="307.7188" rx="3" ry="3" style="stroke:#000000;stroke-width:1.0;fill:none;"/><text fill="#000000" font-family="Verdana" font-size="14" lengthAdjust="spacing" textLength="200" x="1163.5" y="313.7139">SEATA_TRANSACTION: String</text><ellipse cx="1156.5" cy="324.0156" rx="3" ry="3" style="stroke:#000000;stroke-width:1.0;fill:none;"/><text fill="#000000" font-family="Verdana" font-size="14" lengthAdjust="spacing" textLength="166" x="1163.5" y="330.0107">ROLE_VALUE_RM: String</text><ellipse cx="1156.5" cy="340.3125" rx="3" ry="3" style="stroke:#000000;stroke-width:1.0;fill:none;"/><text fill="#000000" font-family="Verdana" font-size="14" lengthAdjust="spacing" textLength="120" x="1163.5" y="346.3076">ROLE_KEY: String</text><ellipse cx="1156.5" cy="356.6094" rx="3" ry="3" style="stroke:#000000;stroke-width:1.0;fill:none;"/><text fill="#000000" font-family="Verdana" font-size="14" lengthAdjust="spacing" textLength="123" x="1163.5" y="362.6045">NAME_KEY: String</text><ellipse cx="1156.5" cy="372.9063" rx="3" ry="3" style="stroke:#000000;stroke-width:1.0;fill:none;"/><text fill="#000000" font-family="Verdana" font-size="14" lengthAdjust="spacing" textLength="225" x="1163.5" y="378.9014">METER_VALUE_COUNTER: String</text><ellipse cx="1156.5" cy="389.2031" rx="3" ry="3" style="stroke:#000000;stroke-width:1.0;fill:none;"/><text fill="#000000" font-family="Verdana" font-size="14" lengthAdjust="spacing" textLength="222" x="1163.5" y="395.1982">STATISTIC_VALUE_TOTAL: String</text><ellipse cx="1156.5" cy="405.5" rx="3" ry="3" style="stroke:#000000;stroke-width:1.0;fill:none;"/><text fill="#000000" font-family="Verdana" font-size="14" lengthAdjust="spacing" textLength="131" x="1163.5" y="411.4951">APP_ID_KEY: String</text><ellipse cx="1156.5" cy="421.7969" rx="3" ry="3" style="stroke:#000000;stroke-width:1.0;fill:none;"/><text fill="#000000" font-family="Verdana" font-size="14" lengthAdjust="spacing" textLength="163" x="1163.5" y="427.792">ROLE_VALUE_TC: String</text><ellipse cx="1156.5" cy="438.0938" rx="3" ry="3" style="stroke:#000000;stroke-width:1.0;fill:none;"/><text fill="#000000" font-family="Verdana" font-size="14" lengthAdjust="spacing" textLength="130" x="1163.5" y="444.0889">RETRY_KEY: String</text><ellipse cx="1156.5" cy="454.3906" rx="3" ry="3" style="stroke:#000000;stroke-width:1.0;fill:none;"/><text fill="#000000" font-family="Verdana" font-size="14" lengthAdjust="spacing" textLength="209" x="1163.5" y="460.3857">STATUS_VALUE_FAILED: String</text><ellipse cx="1156.5" cy="470.6875" rx="3" ry="3" style="stroke:#000000;stroke-width:1.0;fill:none;"/><text fill="#000000" font-family="Verdana" font-size="14" lengthAdjust="spacing" textLength="227" x="1163.5" y="476.6826">METER_VALUE_SUMMARY: String</text><ellipse cx="1156.5" cy="486.9844" rx="3" ry="3" style="stroke:#000000;stroke-width:1.0;fill:none;"/><text fill="#000000" font-family="Verdana" font-size="14" lengthAdjust="spacing" textLength="134" x="1163.5" y="492.9795">GROUP_KEY: String</text><ellipse cx="1156.5" cy="503.2813" rx="3" ry="3" style="stroke:#000000;stroke-width:1.0;fill:none;"/><text fill="#000000" font-family="Verdana" font-size="14" lengthAdjust="spacing" textLength="248" x="1163.5" y="509.2764">STATUS_VALUE_COMMITTED: String</text><line style="stroke:#000000;stroke-width:1.5;" x1="1146.5" x2="1509.5" y1="516.5781" y2="516.5781"/><rect codeLine="63" fill="#FFFFFF" height="158.0781" id="Measurement" style="stroke:#000000;stroke-width:1.5;" width="259" x="774.5" y="932"/><ellipse cx="852.25" cy="946" fill="#FFFFFF" rx="9" ry="9" style="stroke:#000000;stroke-width:1.0;"/><path d="M855.2188,951.6406 Q854.6406,951.9375 854,952.0859 Q853.3594,952.2344 852.6563,952.2344 Q850.1563,952.2344 848.8359,950.5859 Q847.5156,948.9375 847.5156,945.8125 Q847.5156,942.6875 848.8359,941.0313 Q850.1563,939.375 852.6563,939.375 Q853.3594,939.375 854.0078,939.5313 Q854.6563,939.6875 855.2188,939.9844 L855.2188,942.7031 Q854.5938,942.125 854,941.8516 Q853.4063,941.5781 852.7813,941.5781 Q851.4375,941.5781 850.75,942.6484 Q850.0625,943.7188 850.0625,945.8125 Q850.0625,947.9063 850.75,948.9766 Q851.4375,950.0469 852.7813,950.0469 Q853.4063,950.0469 854,949.7734 Q854.5938,949.5 855.2188,948.9219 L855.2188,951.6406 Z " fill="#000000"/><text fill="#000000" font-family="Verdana" font-size="14" lengthAdjust="spacing" textLength="96" x="869.75" y="950.8467">Measurement</text><line style="stroke:#000000;stroke-width:1.5;" x1="775.5" x2="1032.5" y1="960" y2="960"/><rect fill="none" height="6" style="stroke:#000000;stroke-width:1.0;" width="6" x="782.5" y="968"/><text fill="#000000" font-family="Verdana" font-size="14" lengthAdjust="spacing" textLength="130" x="792.5" y="976.9951">timestamp: double</text><rect fill="none" height="6" style="stroke:#000000;stroke-width:1.0;" width="6" x="782.5" y="984.2969"/><text fill="#000000" font-family="Verdana" font-size="14" lengthAdjust="spacing" textLength="93" x="792.5" y="993.292">value: double</text><rect fill="none" height="6" style="stroke:#000000;stroke-width:1.0;" width="6" x="782.5" y="1000.5938"/><text fill="#000000" font-family="Verdana" font-size="14" lengthAdjust="spacing" textLength="33" x="792.5" y="1009.5889">id: Id</text><line style="stroke:#000000;stroke-width:1.5;" x1="775.5" x2="1032.5" y1="1016.8906" y2="1016.8906"/><ellipse cx="785.5" cy="1027.8906" fill="#FFFFFF" rx="3" ry="3" style="stroke:#000000;stroke-width:1.0;"/><text fill="#000000" font-family="Verdana" font-size="14" lengthAdjust="spacing" textLength="235" x="792.5" y="1033.8857">Measurement(Id, double, double):</text><ellipse cx="785.5" cy="1044.1875" fill="#FFFFFF" rx="3" ry="3" style="stroke:#000000;stroke-width:1.0;"/><text fill="#000000" font-family="Verdana" font-size="14" lengthAdjust="spacing" textLength="66" x="792.5" y="1050.1826">getId(): Id</text><ellipse cx="785.5" cy="1060.4844" fill="#FFFFFF" rx="3" ry="3" style="stroke:#000000;stroke-width:1.0;"/><text fill="#000000" font-family="Verdana" font-size="14" lengthAdjust="spacing" textLength="128" x="792.5" y="1066.4795">getValue(): double</text><ellipse cx="785.5" cy="1076.7813" fill="#FFFFFF" rx="3" ry="3" style="stroke:#000000;stroke-width:1.0;"/><text fill="#000000" font-family="Verdana" font-size="14" lengthAdjust="spacing" textLength="167" x="792.5" y="1082.7764">getTimestamp(): double</text><rect codeLine="72" fill="#FFFFFF" height="88.8594" id="Meter" style="stroke:#000000;stroke-width:1.5;" width="275" x="583.5" y="783"/><ellipse cx="684.25" cy="803.1328" fill="#FFFFFF" rx="9" ry="9" style="stroke:#000000;stroke-width:1.0;"/><path d="M680.1719,798.8984 L680.1719,796.7422 L687.5625,796.7422 L687.5625,798.8984 L685.0938,798.8984 L685.0938,806.9766 L687.5625,806.9766 L687.5625,809.1328 L680.1719,809.1328 L680.1719,806.9766 L682.6406,806.9766 L682.6406,798.8984 L680.1719,798.8984 Z " fill="#000000"/><text fill="#000000" font-family="Verdana" font-size="12" font-style="italic" lengthAdjust="spacing" textLength="70" x="699.75" y="799.1387">«interface»</text><text fill="#000000" font-family="Verdana" font-size="14" font-style="italic" lengthAdjust="spacing" textLength="40" x="714.75" y="814.9639">Meter</text><line style="stroke:#000000;stroke-width:1.5;" x1="584.5" x2="857.5" y1="823.2656" y2="823.2656"/><line style="stroke:#000000;stroke-width:1.5;" x1="584.5" x2="857.5" y1="831.2656" y2="831.2656"/><ellipse cx="594.5" cy="842.2656" fill="#FFFFFF" rx="3" ry="3" style="stroke:#000000;stroke-width:1.0;"/><text fill="#000000" font-family="Verdana" font-size="14" lengthAdjust="spacing" textLength="251" x="601.5" y="848.2607">measure(): Iterable&lt;Measurement&gt;</text><ellipse cx="594.5" cy="858.5625" fill="#FFFFFF" rx="3" ry="3" style="stroke:#000000;stroke-width:1.0;"/><text fill="#000000" font-family="Verdana" font-size="14" lengthAdjust="spacing" textLength="66" x="601.5" y="864.5576">getId(): Id</text><rect codeLine="76" fill="#FFFFFF" height="154.0469" id="Registry" style="stroke:#000000;stroke-width:1.5;" width="300" x="571" y="191.5"/><ellipse cx="684.25" cy="211.6328" fill="#FFFFFF" rx="9" ry="9" style="stroke:#000000;stroke-width:1.0;"/><path d="M680.1719,207.3984 L680.1719,205.2422 L687.5625,205.2422 L687.5625,207.3984 L685.0938,207.3984 L685.0938,215.4766 L687.5625,215.4766 L687.5625,217.6328 L680.1719,217.6328 L680.1719,215.4766 L682.6406,215.4766 L682.6406,207.3984 L680.1719,207.3984 Z " fill="#000000"/><text fill="#000000" font-family="Verdana" font-size="12" font-style="italic" lengthAdjust="spacing" textLength="70" x="699.75" y="207.6387">«interface»</text><text fill="#000000" font-family="Verdana" font-size="14" font-style="italic" lengthAdjust="spacing" textLength="56" x="706.75" y="223.4639">Registry</text><line style="stroke:#000000;stroke-width:1.5;" x1="572" x2="870" y1="231.7656" y2="231.7656"/><line style="stroke:#000000;stroke-width:1.5;" x1="572" x2="870" y1="239.7656" y2="239.7656"/><ellipse cx="582" cy="250.7656" fill="#FFFFFF" rx="3" ry="3" style="stroke:#000000;stroke-width:1.0;"/><text fill="#000000" font-family="Verdana" font-size="14" lengthAdjust="spacing" textLength="132" x="589" y="256.7607">getTimer(Id): Timer</text><ellipse cx="582" cy="267.0625" fill="#FFFFFF" rx="3" ry="3" style="stroke:#000000;stroke-width:1.0;"/><text fill="#000000" font-family="Verdana" font-size="14" lengthAdjust="spacing" textLength="99" x="589" y="273.0576">clearUp(): void</text><ellipse cx="582" cy="283.3594" fill="#FFFFFF" rx="3" ry="3" style="stroke:#000000;stroke-width:1.0;"/><text fill="#000000" font-family="Verdana" font-size="14" lengthAdjust="spacing" textLength="276" x="589" y="289.3545">getGauge(Id, Supplier&lt;T&gt;): Gauge&lt;T&gt;</text><ellipse cx="582" cy="299.6563" fill="#FFFFFF" rx="3" ry="3" style="stroke:#000000;stroke-width:1.0;"/><text fill="#000000" font-family="Verdana" font-size="14" lengthAdjust="spacing" textLength="251" x="589" y="305.6514">measure(): Iterable&lt;Measurement&gt;</text><ellipse cx="582" cy="315.9531" fill="#FFFFFF" rx="3" ry="3" style="stroke:#000000;stroke-width:1.0;"/><text fill="#000000" font-family="Verdana" font-size="14" lengthAdjust="spacing" textLength="166" x="589" y="321.9482">getCounter(Id): Counter</text><ellipse cx="582" cy="332.25" fill="#FFFFFF" rx="3" ry="3" style="stroke:#000000;stroke-width:1.0;"/><text fill="#000000" font-family="Verdana" font-size="14" lengthAdjust="spacing" textLength="182" x="589" y="338.2451">getSummary(Id): Summary</text><rect codeLine="84" fill="#FFFFFF" height="137.75" id="Summary" style="stroke:#000000;stroke-width:1.5;" width="160" x="641" y="585"/><ellipse cx="684.25" cy="605.1328" fill="#FFFFFF" rx="9" ry="9" style="stroke:#000000;stroke-width:1.0;"/><path d="M680.1719,600.8984 L680.1719,598.7422 L687.5625,598.7422 L687.5625,600.8984 L685.0938,600.8984 L685.0938,608.9766 L687.5625,608.9766 L687.5625,611.1328 L680.1719,611.1328 L680.1719,608.9766 L682.6406,608.9766 L682.6406,600.8984 L680.1719,600.8984 Z " fill="#000000"/><text fill="#000000" font-family="Verdana" font-size="12" font-style="italic" lengthAdjust="spacing" textLength="70" x="699.75" y="601.1387">«interface»</text><text fill="#000000" font-family="Verdana" font-size="14" font-style="italic" lengthAdjust="spacing" textLength="64" x="702.75" y="616.9639">Summary</text><line style="stroke:#000000;stroke-width:1.5;" x1="642" x2="800" y1="625.2656" y2="625.2656"/><line style="stroke:#000000;stroke-width:1.5;" x1="642" x2="800" y1="633.2656" y2="633.2656"/><ellipse cx="652" cy="644.2656" fill="#FFFFFF" rx="3" ry="3" style="stroke:#000000;stroke-width:1.0;"/><text fill="#000000" font-family="Verdana" font-size="14" lengthAdjust="spacing" textLength="89" x="659" y="650.2607">count(): long</text><ellipse cx="652" cy="660.5625" fill="#FFFFFF" rx="3" ry="3" style="stroke:#000000;stroke-width:1.0;"/><text fill="#000000" font-family="Verdana" font-size="14" lengthAdjust="spacing" textLength="106" x="659" y="666.5576">increase(): void</text><ellipse cx="652" cy="676.8594" fill="#FFFFFF" rx="3" ry="3" style="stroke:#000000;stroke-width:1.0;"/><text fill="#000000" font-family="Verdana" font-size="14" lengthAdjust="spacing" textLength="79" x="659" y="682.8545">total(): long</text><ellipse cx="652" cy="693.1563" fill="#FFFFFF" rx="3" ry="3" style="stroke:#000000;stroke-width:1.0;"/><text fill="#000000" font-family="Verdana" font-size="14" lengthAdjust="spacing" textLength="89" x="659" y="699.1514">tps(): double</text><ellipse cx="652" cy="709.4531" fill="#FFFFFF" rx="3" ry="3" style="stroke:#000000;stroke-width:1.0;"/><text fill="#000000" font-family="Verdana" font-size="14" lengthAdjust="spacing" textLength="136" x="659" y="715.4482">increase(long): void</text><rect codeLine="91" fill="#FFFFFF" height="92.8906" id="SystemClock" style="stroke:#000000;stroke-width:1.5;" width="250" x="12" y="222"/><ellipse cx="88.75" cy="236" fill="#FFFFFF" rx="9" ry="9" style="stroke:#000000;stroke-width:1.0;"/><path d="M91.7188,241.6406 Q91.1406,241.9375 90.5,242.0859 Q89.8594,242.2344 89.1563,242.2344 Q86.6563,242.2344 85.3359,240.5859 Q84.0156,238.9375 84.0156,235.8125 Q84.0156,232.6875 85.3359,231.0313 Q86.6563,229.375 89.1563,229.375 Q89.8594,229.375 90.5078,229.5313 Q91.1563,229.6875 91.7188,229.9844 L91.7188,232.7031 Q91.0938,232.125 90.5,231.8516 Q89.9063,231.5781 89.2813,231.5781 Q87.9375,231.5781 87.25,232.6484 Q86.5625,233.7188 86.5625,235.8125 Q86.5625,237.9063 87.25,238.9766 Q87.9375,240.0469 89.2813,240.0469 Q89.9063,240.0469 90.5,239.7734 Q91.0938,239.5 91.7188,238.9219 L91.7188,241.6406 Z " fill="#000000"/><text fill="#000000" font-family="Verdana" font-size="14" lengthAdjust="spacing" textLength="89" x="106.25" y="240.8467">SystemClock</text><line style="stroke:#000000;stroke-width:1.5;" x1="13" x2="261" y1="250" y2="250"/><ellipse cx="23" cy="261" rx="3" ry="3" style="stroke:#000000;stroke-width:1.0;fill:none;"/><text fill="#000000" font-family="Verdana" font-size="14" lengthAdjust="spacing" textLength="116" x="30" y="266.9951">INSTANCE: Clock</text><line style="stroke:#000000;stroke-width:1.5;" x1="13" x2="261" y1="274.2969" y2="274.2969"/><ellipse cx="23" cy="285.2969" fill="#FFFFFF" rx="3" ry="3" style="stroke:#000000;stroke-width:1.0;"/><text fill="#000000" font-family="Verdana" font-size="14" lengthAdjust="spacing" textLength="104" x="30" y="291.292">SystemClock():</text><ellipse cx="23" cy="301.5938" fill="#FFFFFF" rx="3" ry="3" style="stroke:#000000;stroke-width:1.0;"/><text fill="#000000" font-family="Verdana" font-size="14" lengthAdjust="spacing" textLength="226" x="30" y="307.5889">getCurrentMilliseconds(): double</text><rect codeLine="96" fill="#FFFFFF" height="137.75" id="Timer" style="stroke:#000000;stroke-width:1.5;" width="215" x="836.5" y="585"/><ellipse cx="907.25" cy="605.1328" fill="#FFFFFF" rx="9" ry="9" style="stroke:#000000;stroke-width:1.0;"/><path d="M903.1719,600.8984 L903.1719,598.7422 L910.5625,598.7422 L910.5625,600.8984 L908.0938,600.8984 L908.0938,608.9766 L910.5625,608.9766 L910.5625,611.1328 L903.1719,611.1328 L903.1719,608.9766 L905.6406,608.9766 L905.6406,600.8984 L903.1719,600.8984 Z " fill="#000000"/><text fill="#000000" font-family="Verdana" font-size="12" font-style="italic" lengthAdjust="spacing" textLength="70" x="922.75" y="601.1387">«interface»</text><text fill="#000000" font-family="Verdana" font-size="14" font-style="italic" lengthAdjust="spacing" textLength="39" x="938.25" y="616.9639">Timer</text><line style="stroke:#000000;stroke-width:1.5;" x1="837.5" x2="1050.5" y1="625.2656" y2="625.2656"/><line style="stroke:#000000;stroke-width:1.5;" x1="837.5" x2="1050.5" y1="633.2656" y2="633.2656"/><ellipse cx="847.5" cy="644.2656" fill="#FFFFFF" rx="3" ry="3" style="stroke:#000000;stroke-width:1.0;"/><text fill="#000000" font-family="Verdana" font-size="14" lengthAdjust="spacing" textLength="191" x="854.5" y="650.2607">record(long, TimeUnit): void</text><ellipse cx="847.5" cy="660.5625" fill="#FFFFFF" rx="3" ry="3" style="stroke:#000000;stroke-width:1.0;"/><text fill="#000000" font-family="Verdana" font-size="14" lengthAdjust="spacing" textLength="79" x="854.5" y="666.5576">total(): long</text><ellipse cx="847.5" cy="676.8594" fill="#FFFFFF" rx="3" ry="3" style="stroke:#000000;stroke-width:1.0;"/><text fill="#000000" font-family="Verdana" font-size="14" lengthAdjust="spacing" textLength="89" x="854.5" y="682.8545">count(): long</text><ellipse cx="847.5" cy="693.1563" fill="#FFFFFF" rx="3" ry="3" style="stroke:#000000;stroke-width:1.0;"/><text fill="#000000" font-family="Verdana" font-size="14" lengthAdjust="spacing" textLength="122" x="854.5" y="699.1514">average(): double</text><ellipse cx="847.5" cy="709.4531" fill="#FFFFFF" rx="3" ry="3" style="stroke:#000000;stroke-width:1.0;"/><text fill="#000000" font-family="Verdana" font-size="14" lengthAdjust="spacing" textLength="77" x="854.5" y="715.4482">max(): long</text><path codeLine="104" d="M465.1382,699 C523.5154,699 590.8333,699 590.8333,699 C590.8333,699 590.8333,762.9176 590.8333,762.9176 " fill="none" id="Counter-to-Meter" style="stroke:#008200;stroke-width:1.0;"/><polygon fill="none" points="597.8334,762.9176,590.8333,782.9176,583.8334,762.9175,597.8334,762.9176" style="stroke:#008200;stroke-width:1.0;"/><path codeLine="105" d="M598.1667,690.7949 C598.1667,690.7949 598.1667,762.749 598.1667,762.749 " fill="none" id="Gauge-to-Meter" style="stroke:#008200;stroke-width:1.0;"/><polygon fill="none" points="605.1668,762.749,598.1667,782.749,591.1668,762.7489,605.1668,762.749" style="stroke:#008200;stroke-width:1.0;"/><path codeLine="106" d="M689.1667,1149.7713 C689.1667,1132.899 689.1667,1121 689.1667,1121 C689.1667,1121 615,1121 615,1121 C615,1121 615,1391 615,1391 C615,1391 812,1391 812,1391 C812,1391 812,1378.2651 812,1378.2651 " fill="none" id="Id-to-Id" style="stroke:#595959;stroke-width:1.0;stroke-dasharray:7.0,7.0;"/><polygon fill="#595959" points="812,1373.2651,808,1382.2651,812,1378.2651,816,1382.2651,812,1373.2651" style="stroke:#595959;stroke-width:1.0;"/><path codeLine="107" d="M876,1102.2598 C876,1102.2598 876,1136.8033 876,1136.8033 " fill="none" id="Measurement-Id" style="stroke:#595959;stroke-width:1.0;"/><polygon fill="#595959" points="876,1149.8033,880,1140.8033,876,1144.8033,872,1140.8033,876,1149.8033" style="stroke:#595959;stroke-width:1.0;"/><line style="stroke:#595959;stroke-width:1.0;" x1="876" x2="876" y1="1144.8033" y2="1136.8033"/><polygon fill="#595959" points="876,1090.2598,872,1096.2598,876,1102.2598,880,1096.2598,876,1090.2598" style="stroke:#595959;stroke-width:1.0;"/><text fill="#000000" font-family="Verdana" font-size="13" lengthAdjust="spacing" textLength="8" x="872.0313" y="1138.8572">1</text><text fill="#000000" font-family="Verdana" font-size="13" lengthAdjust="spacing" textLength="11" x="862.2258" y="1110.1403">id</text><text fill="#000000" font-family="Verdana" font-size="13" lengthAdjust="spacing" textLength="8" x="863.7258" y="1125.2732">1</text><path codeLine="108" d="M731.8333,872.311 C731.8333,872.311 731.8333,1144.9985 731.8333,1144.9985 " fill="none" id="Meter-to-Id" style="stroke:#595959;stroke-width:1.0;stroke-dasharray:7.0,7.0;"/><polygon fill="#595959" points="731.8333,1149.9985,735.8333,1140.9985,731.8333,1144.9985,727.8333,1140.9985,731.8333,1149.9985" style="stroke:#595959;stroke-width:1.0;"/><path codeLine="109" d="M816.5,872.3892 C816.5,872.3892 816.5,926.8678 816.5,926.8678 " fill="none" id="Meter-to-Measurement" style="stroke:#595959;stroke-width:1.0;stroke-dasharray:7.0,7.0;"/><polygon fill="#595959" points="816.5,931.8678,820.5,922.8678,816.5,926.8678,812.5,922.8678,816.5,931.8678" style="stroke:#595959;stroke-width:1.0;"/><path codeLine="110" d="M582.5,345.5651 C582.5,446.287 582.5,610 582.5,610 C582.5,610 470.2866,610 470.2866,610 " fill="none" id="Registry-to-Counter" style="stroke:#595959;stroke-width:1.0;stroke-dasharray:7.0,7.0;"/><polygon fill="#595959" points="465.2866,610,474.2866,614,470.2866,610,474.2866,606,465.2866,610" style="stroke:#595959;stroke-width:1.0;"/><path codeLine="111" d="M594,345.5852 C594,345.5852 594,612.2699 594,612.2699 " fill="none" id="Registry-to-Gauge" style="stroke:#595959;stroke-width:1.0;stroke-dasharray:7.0,7.0;"/><polygon fill="#595959" points="594,617.2699,598,608.2699,594,612.2699,590,608.2699,594,617.2699" style="stroke:#595959;stroke-width:1.0;"/><path codeLine="112" d="M818.75,345.6972 C818.75,482.6813 818.75,754 818.75,754 C818.75,754 946,754 946,754 C946,754 946,926.7945 946,926.7945 " fill="none" id="Registry-to-Measurement" style="stroke:#595959;stroke-width:1.0;stroke-dasharray:7.0,7.0;"/><polygon fill="#595959" points="946,931.7945,950,922.7945,946,926.7945,942,922.7945,946,931.7945" style="stroke:#595959;stroke-width:1.0;"/><path codeLine="113" d="M721,345.5852 C721,345.5852 721,579.8126 721,579.8126 " fill="none" id="Registry-to-Summary" style="stroke:#595959;stroke-width:1.0;stroke-dasharray:7.0,7.0;"/><polygon fill="#595959" points="721,584.8126,725,575.8126,721,579.8126,717,575.8126,721,584.8126" style="stroke:#595959;stroke-width:1.0;"/><path codeLine="114" d="M853.75,345.5852 C853.75,345.5852 853.75,579.8126 853.75,579.8126 " fill="none" id="Registry-to-Timer" style="stroke:#595959;stroke-width:1.0;stroke-dasharray:7.0,7.0;"/><polygon fill="#595959" points="853.75,584.8126,857.75,575.8126,853.75,579.8126,849.75,575.8126,853.75,584.8126" style="stroke:#595959;stroke-width:1.0;"/><path codeLine="115" d="M721,723.0703 C721,723.0703 721,762.8467 721,762.8467 " fill="none" id="Summary-to-Meter" style="stroke:#008200;stroke-width:1.0;"/><polygon fill="none" points="728.0001,762.8468,721,782.8467,714.0001,762.8467,728.0001,762.8468" style="stroke:#008200;stroke-width:1.0;"/><path codeLine="116" d="M95.3333,315.0003 C95.3333,315.0003 95.3333,597.3794 95.3333,597.3794 " fill="none" id="SystemClock-to-Clock" style="stroke:#008200;stroke-width:1.0;stroke-dasharray:7.0,7.0;"/><polygon fill="none" points="102.3334,597.3795,95.3333,617.3794,88.3334,597.3794,102.3334,597.3795" style="stroke:#008200;stroke-width:1.0;"/><path codeLine="117" d="M178.6667,327.0003 C178.6667,327.0003 178.6667,604.3794 178.6667,604.3794 " fill="none" id="SystemClock-Clock" style="stroke:#595959;stroke-width:1.0;"/><polygon fill="#595959" points="178.6667,617.3794,182.6667,608.3794,178.6667,612.3794,174.6667,608.3794,178.6667,617.3794" style="stroke:#595959;stroke-width:1.0;"/><line style="stroke:#595959;stroke-width:1.0;" x1="178.6667" x2="178.6667" y1="612.3794" y2="604.3794"/><polygon fill="#595959" points="178.6667,315.0003,174.6667,321.0003,178.6667,327.0003,182.6667,321.0003,178.6667,315.0003" style="stroke:#595959;stroke-width:1.0;"/><text fill="#000000" font-family="Verdana" font-size="13" lengthAdjust="spacing" textLength="8" x="177.6115" y="606.3641">1</text><text fill="#000000" font-family="Verdana" font-size="13" lengthAdjust="spacing" textLength="65" x="114.8412" y="334.9709">INSTANCE</text><text fill="#000000" font-family="Verdana" font-size="13" lengthAdjust="spacing" textLength="8" x="143.3412" y="350.1038">1</text><path codeLine="118" d="M847.5,723.0703 C847.5,723.0703 847.5,762.8467 847.5,762.8467 " fill="none" id="Timer-to-Meter" style="stroke:#008200;stroke-width:1.0;"/><polygon fill="none" points="854.5001,762.8468,847.5,782.8467,840.5001,762.8467,854.5001,762.8468" style="stroke:#008200;stroke-width:1.0;"/></g></svg>