<?xml version="1.0" encoding="UTF-8" standalone="no"?><svg xmlns="http://www.w3.org/2000/svg" xmlns:xlink="http://www.w3.org/1999/xlink" contentScriptType="application/ecmascript" contentStyleType="text/css" height="1508px" preserveAspectRatio="none" style="width:796px;height:1508px;background:#FFFFFF;" version="1.1" viewBox="0 0 796 1508" width="796px" zoomAndPan="magnify"><defs/><g><rect codeLine="6" fill="#FFFFFF" height="76.5938" id="EventBusManager" style="stroke:#000000;stroke-width:1.5;" width="165" x="263.5" y="247"/><ellipse cx="281.45" cy="261" fill="#FFFFFF" rx="9" ry="9" style="stroke:#000000;stroke-width:1.0;"/><path d="M284.4188,266.6406 Q283.8406,266.9375 283.2,267.0859 Q282.5594,267.2344 281.8563,267.2344 Q279.3563,267.2344 278.0359,265.5859 Q276.7156,263.9375 276.7156,260.8125 Q276.7156,257.6875 278.0359,256.0313 Q279.3563,254.375 281.8563,254.375 Q282.5594,254.375 283.2078,254.5313 Q283.8563,254.6875 284.4188,254.9844 L284.4188,257.7031 Q283.7938,257.125 283.2,256.8516 Q282.6063,256.5781 281.9813,256.5781 Q280.6375,256.5781 279.95,257.6484 Q279.2625,258.7188 279.2625,260.8125 Q279.2625,262.9063 279.95,263.9766 Q280.6375,265.0469 281.9813,265.0469 Q282.6063,265.0469 283.2,264.7734 Q283.7938,264.5 284.4188,263.9219 L284.4188,266.6406 Z " fill="#000000"/><text fill="#000000" font-family="Verdana" font-size="14" lengthAdjust="spacing" textLength="126" x="294.55" y="265.8467">EventBusManager</text><line style="stroke:#000000;stroke-width:1.5;" x1="264.5" x2="427.5" y1="275" y2="275"/><line style="stroke:#000000;stroke-width:1.5;" x1="264.5" x2="427.5" y1="283" y2="283"/><ellipse cx="274.5" cy="294" fill="#FFFFFF" rx="3" ry="3" style="stroke:#000000;stroke-width:1.0;"/><text fill="#000000" font-family="Verdana" font-size="14" lengthAdjust="spacing" textLength="141" x="281.5" y="299.9951">EventBusManager():</text><ellipse cx="274.5" cy="310.2969" fill="#FFFFFF" rx="3" ry="3" style="stroke:#000000;stroke-width:1.0;"/><text fill="#000000" font-family="Verdana" font-size="14" lengthAdjust="spacing" textLength="108" x="281.5" y="316.292">get(): EventBus</text><rect codeLine="10" fill="#FFFFFF" height="317.0156" id="MeterIdConstants" style="stroke:#000000;stroke-width:1.5;" width="279" x="357.5" y="1184"/><ellipse cx="431.75" cy="1204.1328" fill="#FFFFFF" rx="9" ry="9" style="stroke:#000000;stroke-width:1.0;"/><path d="M427.6719,1199.8984 L427.6719,1197.7422 L435.0625,1197.7422 L435.0625,1199.8984 L432.5938,1199.8984 L432.5938,1207.9766 L435.0625,1207.9766 L435.0625,1210.1328 L427.6719,1210.1328 L427.6719,1207.9766 L430.1406,1207.9766 L430.1406,1199.8984 L427.6719,1199.8984 Z " fill="#000000"/><text fill="#000000" font-family="Verdana" font-size="12" font-style="italic" lengthAdjust="spacing" textLength="70" x="475.75" y="1200.1387">«interface»</text><text fill="#000000" font-family="Verdana" font-size="14" font-style="italic" lengthAdjust="spacing" textLength="123" x="449.25" y="1215.9639">MeterIdConstants</text><line style="stroke:#000000;stroke-width:1.5;" x1="358.5" x2="635.5" y1="1224.2656" y2="1224.2656"/><ellipse cx="368.5" cy="1235.2656" rx="3" ry="3" style="stroke:#000000;stroke-width:1.0;fill:none;"/><text fill="#000000" font-family="Verdana" font-size="14" lengthAdjust="spacing" textLength="157" x="375.5" y="1241.2607">TIMER_COMMITTED: Id</text><ellipse cx="368.5" cy="1251.5625" rx="3" ry="3" style="stroke:#000000;stroke-width:1.0;fill:none;"/><text fill="#000000" font-family="Verdana" font-size="14" lengthAdjust="spacing" textLength="192" x="375.5" y="1257.5576">SUMMARY_ROLLBACKED: Id</text><ellipse cx="368.5" cy="1267.8594" rx="3" ry="3" style="stroke:#000000;stroke-width:1.0;fill:none;"/><text fill="#000000" font-family="Verdana" font-size="14" lengthAdjust="spacing" textLength="216" x="375.5" y="1273.8545">TIMER_AFTER_ROLLBACKED: Id</text><ellipse cx="368.5" cy="1284.1563" rx="3" ry="3" style="stroke:#000000;stroke-width:1.0;fill:none;"/><text fill="#000000" font-family="Verdana" font-size="14" lengthAdjust="spacing" textLength="144" x="375.5" y="1290.1514">TIMER_ROLLBACK: Id</text><ellipse cx="368.5" cy="1300.4531" rx="3" ry="3" style="stroke:#000000;stroke-width:1.0;fill:none;"/><text fill="#000000" font-family="Verdana" font-size="14" lengthAdjust="spacing" textLength="237" x="375.5" y="1306.4482">SUMMARY_AFTER_COMMITTED: Id</text><ellipse cx="368.5" cy="1316.75" rx="3" ry="3" style="stroke:#000000;stroke-width:1.0;fill:none;"/><text fill="#000000" font-family="Verdana" font-size="14" lengthAdjust="spacing" textLength="183" x="375.5" y="1322.7451">COUNTER_COMMITTED: Id</text><ellipse cx="368.5" cy="1333.0469" rx="3" ry="3" style="stroke:#000000;stroke-width:1.0;fill:none;"/><text fill="#000000" font-family="Verdana" font-size="14" lengthAdjust="spacing" textLength="146" x="375.5" y="1339.042">SUMMARY_FAILED: Id</text><ellipse cx="368.5" cy="1349.3438" rx="3" ry="3" style="stroke:#000000;stroke-width:1.0;fill:none;"/><text fill="#000000" font-family="Verdana" font-size="14" lengthAdjust="spacing" textLength="118" x="375.5" y="1355.3389">TIMER_FAILED: Id</text><ellipse cx="368.5" cy="1365.6406" rx="3" ry="3" style="stroke:#000000;stroke-width:1.0;fill:none;"/><text fill="#000000" font-family="Verdana" font-size="14" lengthAdjust="spacing" textLength="185" x="375.5" y="1371.6357">SUMMARY_COMMITTED: Id</text><ellipse cx="368.5" cy="1381.9375" rx="3" ry="3" style="stroke:#000000;stroke-width:1.0;fill:none;"/><text fill="#000000" font-family="Verdana" font-size="14" lengthAdjust="spacing" textLength="255" x="375.5" y="1387.9326">SUMMARY_TWO_PHASE_TIMEOUT: Id</text><ellipse cx="368.5" cy="1398.2344" rx="3" ry="3" style="stroke:#000000;stroke-width:1.0;fill:none;"/><text fill="#000000" font-family="Verdana" font-size="14" lengthAdjust="spacing" textLength="242" x="375.5" y="1404.2295">COUNTER_AFTER_ROLLBACKED: Id</text><ellipse cx="368.5" cy="1414.5313" rx="3" ry="3" style="stroke:#000000;stroke-width:1.0;fill:none;"/><text fill="#000000" font-family="Verdana" font-size="14" lengthAdjust="spacing" textLength="209" x="375.5" y="1420.5264">TIMER_AFTER_COMMITTED: Id</text><ellipse cx="368.5" cy="1430.8281" rx="3" ry="3" style="stroke:#000000;stroke-width:1.0;fill:none;"/><text fill="#000000" font-family="Verdana" font-size="14" lengthAdjust="spacing" textLength="146" x="375.5" y="1436.8232">COUNTER_ACTIVE: Id</text><ellipse cx="368.5" cy="1447.125" rx="3" ry="3" style="stroke:#000000;stroke-width:1.0;fill:none;"/><text fill="#000000" font-family="Verdana" font-size="14" lengthAdjust="spacing" textLength="235" x="375.5" y="1453.1201">COUNTER_AFTER_COMMITTED: Id</text><ellipse cx="368.5" cy="1463.4219" rx="3" ry="3" style="stroke:#000000;stroke-width:1.0;fill:none;"/><text fill="#000000" font-family="Verdana" font-size="14" lengthAdjust="spacing" textLength="190" x="375.5" y="1469.417">COUNTER_ROLLBACKED: Id</text><ellipse cx="368.5" cy="1479.7188" rx="3" ry="3" style="stroke:#000000;stroke-width:1.0;fill:none;"/><text fill="#000000" font-family="Verdana" font-size="14" lengthAdjust="spacing" textLength="244" x="375.5" y="1485.7139">SUMMARY_AFTER_ROLLBACKED: Id</text><line style="stroke:#000000;stroke-width:1.5;" x1="358.5" x2="635.5" y1="1493.0156" y2="1493.0156"/><rect codeLine="28" fill="#FFFFFF" height="125.4844" id="MetricsManager" style="stroke:#000000;stroke-width:1.5;" width="178" x="178" y="553"/><ellipse cx="209" cy="567" fill="#FFFFFF" rx="9" ry="9" style="stroke:#000000;stroke-width:1.0;"/><path d="M211.9688,572.6406 Q211.3906,572.9375 210.75,573.0859 Q210.1094,573.2344 209.4063,573.2344 Q206.9063,573.2344 205.5859,571.5859 Q204.2656,569.9375 204.2656,566.8125 Q204.2656,563.6875 205.5859,562.0313 Q206.9063,560.375 209.4063,560.375 Q210.1094,560.375 210.7578,560.5313 Q211.4063,560.6875 211.9688,560.9844 L211.9688,563.7031 Q211.3438,563.125 210.75,562.8516 Q210.1563,562.5781 209.5313,562.5781 Q208.1875,562.5781 207.5,563.6484 Q206.8125,564.7188 206.8125,566.8125 Q206.8125,568.9063 207.5,569.9766 Q208.1875,571.0469 209.5313,571.0469 Q210.1563,571.0469 210.75,570.7734 Q211.3438,570.5 211.9688,569.9219 L211.9688,572.6406 Z " fill="#000000"/><text fill="#000000" font-family="Verdana" font-size="14" lengthAdjust="spacing" textLength="110" x="225" y="571.8467">MetricsManager</text><line style="stroke:#000000;stroke-width:1.5;" x1="179" x2="355" y1="581" y2="581"/><rect fill="none" height="6" style="stroke:#000000;stroke-width:1.0;" width="6" x="186" y="589"/><text fill="#000000" font-family="Verdana" font-size="14" lengthAdjust="spacing" textLength="116" x="196" y="597.9951">registry: Registry</text><line style="stroke:#000000;stroke-width:1.5;" x1="179" x2="355" y1="605.2969" y2="605.2969"/><ellipse cx="189" cy="616.2969" fill="#FFFFFF" rx="3" ry="3" style="stroke:#000000;stroke-width:1.0;"/><text fill="#000000" font-family="Verdana" font-size="14" lengthAdjust="spacing" textLength="125" x="196" y="622.292">MetricsManager():</text><ellipse cx="189" cy="632.5938" fill="#FFFFFF" rx="3" ry="3" style="stroke:#000000;stroke-width:1.0;"/><text fill="#000000" font-family="Verdana" font-size="14" lengthAdjust="spacing" textLength="67" x="196" y="638.5889">init(): void</text><ellipse cx="189" cy="648.8906" fill="#FFFFFF" rx="3" ry="3" style="stroke:#000000;stroke-width:1.0;"/><text fill="#000000" font-family="Verdana" font-size="14" lengthAdjust="spacing" textLength="152" x="196" y="654.8857">get(): MetricsManager</text><ellipse cx="189" cy="665.1875" fill="#FFFFFF" rx="3" ry="3" style="stroke:#000000;stroke-width:1.0;"/><text fill="#000000" font-family="Verdana" font-size="14" lengthAdjust="spacing" textLength="154" x="196" y="671.1826">getRegistry(): Registry</text><rect codeLine="35" fill="#FFFFFF" height="158.0781" id="MetricsPublisher" style="stroke:#000000;stroke-width:1.5;" width="555" x="68.5" y="29"/><ellipse cx="285.25" cy="43" fill="#FFFFFF" rx="9" ry="9" style="stroke:#000000;stroke-width:1.0;"/><path d="M288.2188,48.6406 Q287.6406,48.9375 287,49.0859 Q286.3594,49.2344 285.6563,49.2344 Q283.1563,49.2344 281.8359,47.5859 Q280.5156,45.9375 280.5156,42.8125 Q280.5156,39.6875 281.8359,38.0313 Q283.1563,36.375 285.6563,36.375 Q286.3594,36.375 287.0078,36.5313 Q287.6563,36.6875 288.2188,36.9844 L288.2188,39.7031 Q287.5938,39.125 287,38.8516 Q286.4063,38.5781 285.7813,38.5781 Q284.4375,38.5781 283.75,39.6484 Q283.0625,40.7188 283.0625,42.8125 Q283.0625,44.9063 283.75,45.9766 Q284.4375,47.0469 285.7813,47.0469 Q286.4063,47.0469 287,46.7734 Q287.5938,46.5 288.2188,45.9219 L288.2188,48.6406 Z " fill="#000000"/><text fill="#000000" font-family="Verdana" font-size="14" lengthAdjust="spacing" textLength="114" x="302.75" y="47.8467">MetricsPublisher</text><line style="stroke:#000000;stroke-width:1.5;" x1="69.5" x2="622.5" y1="57" y2="57"/><rect fill="none" height="6" style="stroke:#000000;stroke-width:1.0;" width="6" x="76.5" y="65"/><text fill="#000000" font-family="Verdana" font-size="14" lengthAdjust="spacing" textLength="157" x="86.5" y="73.9951">EVENT_BUS: EventBus</text><line style="stroke:#000000;stroke-width:1.5;" x1="69.5" x2="622.5" y1="81.2969" y2="81.2969"/><ellipse cx="79.5" cy="92.2969" fill="#FFFFFF" rx="3" ry="3" style="stroke:#000000;stroke-width:1.0;"/><text fill="#000000" font-family="Verdana" font-size="14" lengthAdjust="spacing" textLength="129" x="86.5" y="98.292">MetricsPublisher():</text><ellipse cx="79.5" cy="108.5938" fill="#FFFFFF" rx="3" ry="3" style="stroke:#000000;stroke-width:1.0;"/><text fill="#000000" font-family="Verdana" font-size="14" lengthAdjust="spacing" textLength="522" x="86.5" y="114.5889">postSessionDoneEvent(GlobalSession, String, boolean, long, boolean): void</text><ellipse cx="79.5" cy="124.8906" fill="#FFFFFF" rx="3" ry="3" style="stroke:#000000;stroke-width:1.0;"/><text fill="#000000" font-family="Verdana" font-size="14" lengthAdjust="spacing" textLength="375" x="86.5" y="130.8857">postSessionDoingEvent(GlobalSession, boolean): void</text><ellipse cx="79.5" cy="141.1875" fill="#FFFFFF" rx="3" ry="3" style="stroke:#000000;stroke-width:1.0;"/><text fill="#000000" font-family="Verdana" font-size="14" lengthAdjust="spacing" textLength="531" x="86.5" y="147.1826">postSessionDoneEvent(GlobalSession, GlobalStatus, boolean, boolean): void</text><ellipse cx="79.5" cy="157.4844" fill="#FFFFFF" rx="3" ry="3" style="stroke:#000000;stroke-width:1.0;"/><text fill="#000000" font-family="Verdana" font-size="14" lengthAdjust="spacing" textLength="436" x="86.5" y="163.4795">postSessionDoneEvent(GlobalSession, boolean, boolean): void</text><ellipse cx="79.5" cy="173.7813" fill="#FFFFFF" rx="3" ry="3" style="stroke:#000000;stroke-width:1.0;"/><text fill="#000000" font-family="Verdana" font-size="14" lengthAdjust="spacing" textLength="487" x="86.5" y="179.7764">postSessionDoingEvent(GlobalSession, String, boolean, boolean): void</text><rect codeLine="44" fill="#FFFFFF" height="386.2344" id="MetricsSubscriber" style="stroke:#000000;stroke-width:1.5;" width="585" x="204.5" y="738"/><ellipse cx="431.25" cy="752" fill="#FFFFFF" rx="9" ry="9" style="stroke:#000000;stroke-width:1.0;"/><path d="M434.2188,757.6406 Q433.6406,757.9375 433,758.0859 Q432.3594,758.2344 431.6563,758.2344 Q429.1563,758.2344 427.8359,756.5859 Q426.5156,754.9375 426.5156,751.8125 Q426.5156,748.6875 427.8359,747.0313 Q429.1563,745.375 431.6563,745.375 Q432.3594,745.375 433.0078,745.5313 Q433.6563,745.6875 434.2188,745.9844 L434.2188,748.7031 Q433.5938,748.125 433,747.8516 Q432.4063,747.5781 431.7813,747.5781 Q430.4375,747.5781 429.75,748.6484 Q429.0625,749.7188 429.0625,751.8125 Q429.0625,753.9063 429.75,754.9766 Q430.4375,756.0469 431.7813,756.0469 Q432.4063,756.0469 433,755.7734 Q433.5938,755.5 434.2188,754.9219 L434.2188,757.6406 Z " fill="#000000"/><text fill="#000000" font-family="Verdana" font-size="14" lengthAdjust="spacing" textLength="124" x="448.75" y="756.8467">MetricsSubscriber</text><line style="stroke:#000000;stroke-width:1.5;" x1="205.5" x2="788.5" y1="766" y2="766"/><rect fill="none" height="6" style="stroke:#000000;stroke-width:1.0;" width="6" x="212.5" y="774"/><text fill="#000000" font-family="Verdana" font-size="14" lengthAdjust="spacing" textLength="116" x="222.5" y="782.9951">LOGGER: Logger</text><rect fill="none" height="6" style="stroke:#000000;stroke-width:1.0;" width="6" x="212.5" y="790.2969"/><text fill="#000000" font-family="Verdana" font-size="14" lengthAdjust="spacing" textLength="116" x="222.5" y="799.292">registry: Registry</text><rect fill="none" height="6" style="stroke:#000000;stroke-width:1.0;" width="6" x="212.5" y="806.5938"/><text fill="#000000" font-family="Verdana" font-size="14" lengthAdjust="spacing" textLength="447" x="222.5" y="815.5889">consumers: Map&lt;String, Consumer&lt;GlobalTransactionEvent&gt;&gt;</text><line style="stroke:#000000;stroke-width:1.5;" x1="205.5" x2="788.5" y1="822.8906" y2="822.8906"/><ellipse cx="215.5" cy="833.8906" fill="#FFFFFF" rx="3" ry="3" style="stroke:#000000;stroke-width:1.0;"/><text fill="#000000" font-family="Verdana" font-size="14" lengthAdjust="spacing" textLength="195" x="222.5" y="839.8857">MetricsSubscriber(Registry):</text><rect fill="#FFFFFF" height="6" style="stroke:#000000;stroke-width:1.0;" width="6" x="212.5" y="847.1875"/><text fill="#000000" font-family="Verdana" font-size="14" lengthAdjust="spacing" textLength="429" x="222.5" y="856.1826">processGlobalStatusRollbacked(GlobalTransactionEvent): void</text><rect fill="#FFFFFF" height="6" style="stroke:#000000;stroke-width:1.0;" width="6" x="212.5" y="863.4844"/><text fill="#000000" font-family="Verdana" font-size="14" lengthAdjust="spacing" textLength="429" x="222.5" y="872.4795">processGlobalStatusCommitted(GlobalTransactionEvent): void</text><rect fill="#FFFFFF" height="6" style="stroke:#000000;stroke-width:1.0;" width="6" x="212.5" y="879.7813"/><text fill="#000000" font-family="Verdana" font-size="14" lengthAdjust="spacing" textLength="381" x="222.5" y="888.7764">reportTwoPhaseTimeout(GlobalTransactionEvent): void</text><rect fill="#FFFFFF" height="6" style="stroke:#000000;stroke-width:1.0;" width="6" x="212.5" y="896.0781"/><text fill="#000000" font-family="Verdana" font-size="14" lengthAdjust="spacing" textLength="499" x="222.5" y="905.0732">processGlobalStatusCommitRetryTimeout(GlobalTransactionEvent): void</text><rect fill="#FFFFFF" height="6" style="stroke:#000000;stroke-width:1.0;" width="6" x="212.5" y="912.375"/><text fill="#000000" font-family="Verdana" font-size="14" lengthAdjust="spacing" textLength="446" x="222.5" y="921.3701">processGlobalStatusCommitFailed(GlobalTransactionEvent): void</text><rect fill="#FFFFFF" height="6" style="stroke:#000000;stroke-width:1.0;" width="6" x="212.5" y="928.6719"/><text fill="#000000" font-family="Verdana" font-size="14" lengthAdjust="spacing" textLength="486" x="222.5" y="937.667">processGlobalStatusTimeoutRollbacked(GlobalTransactionEvent): void</text><ellipse cx="215.5" cy="947.9688" fill="#FFFFFF" rx="3" ry="3" style="stroke:#000000;stroke-width:1.0;"/><text fill="#000000" font-family="Verdana" font-size="14" lengthAdjust="spacing" textLength="107" x="222.5" y="953.9639">hashCode(): int</text><rect fill="#FFFFFF" height="6" style="stroke:#000000;stroke-width:1.0;" width="6" x="212.5" y="961.2656"/><text fill="#000000" font-family="Verdana" font-size="14" lengthAdjust="spacing" textLength="316" x="222.5" y="970.2607">decreaseActive(GlobalTransactionEvent): void</text><rect fill="#FFFFFF" height="6" style="stroke:#000000;stroke-width:1.0;" width="6" x="212.5" y="977.5625"/><text fill="#000000" font-family="Verdana" font-size="14" lengthAdjust="spacing" textLength="508" x="222.5" y="986.5576">processGlobalStatusTimeoutRollbackFailed(GlobalTransactionEvent): void</text><rect fill="#FFFFFF" height="6" style="stroke:#000000;stroke-width:1.0;" width="6" x="212.5" y="993.8594"/><text fill="#000000" font-family="Verdana" font-size="14" lengthAdjust="spacing" textLength="417" x="222.5" y="1002.8545">processAfterGlobalRollbacked(GlobalTransactionEvent): void</text><rect fill="#FFFFFF" height="6" style="stroke:#000000;stroke-width:1.0;" width="6" x="212.5" y="1010.1563"/><text fill="#000000" font-family="Verdana" font-size="14" lengthAdjust="spacing" textLength="451" x="222.5" y="1019.1514">processGlobalStatusRollbackFailed(GlobalTransactionEvent): void</text><rect fill="#FFFFFF" height="6" style="stroke:#000000;stroke-width:1.0;" width="6" x="212.5" y="1026.4531"/><text fill="#000000" font-family="Verdana" font-size="14" lengthAdjust="spacing" textLength="417" x="222.5" y="1035.4482">processAfterGlobalCommitted(GlobalTransactionEvent): void</text><ellipse cx="215.5" cy="1045.75" fill="#FFFFFF" rx="3" ry="3" style="stroke:#000000;stroke-width:1.0;"/><text fill="#000000" font-family="Verdana" font-size="14" lengthAdjust="spacing" textLength="166" x="222.5" y="1051.7451">equals(Object): boolean</text><rect fill="#FFFFFF" height="6" style="stroke:#000000;stroke-width:1.0;" width="6" x="212.5" y="1059.0469"/><text fill="#000000" font-family="Verdana" font-size="14" lengthAdjust="spacing" textLength="561" x="222.5" y="1068.042">processGlobalStatusTimeoutRollbackRetryTimeout(GlobalTransactionEvent): void</text><rect fill="#FFFFFF" height="6" style="stroke:#000000;stroke-width:1.0;" width="6" x="212.5" y="1075.3438"/><text fill="#000000" font-family="Verdana" font-size="14" lengthAdjust="spacing" textLength="292" x="222.5" y="1084.3389">reportFailed(GlobalTransactionEvent): void</text><ellipse cx="215.5" cy="1094.6406" fill="#FFFFFF" rx="3" ry="3" style="stroke:#000000;stroke-width:1.0;"/><text fill="#000000" font-family="Verdana" font-size="14" lengthAdjust="spacing" textLength="490" x="222.5" y="1100.6357">recordGlobalTransactionEventForMetrics(GlobalTransactionEvent): void</text><rect fill="#FFFFFF" height="6" style="stroke:#000000;stroke-width:1.0;" width="6" x="212.5" y="1107.9375"/><text fill="#000000" font-family="Verdana" font-size="14" lengthAdjust="spacing" textLength="393" x="222.5" y="1116.9326">processGlobalStatusBegin(GlobalTransactionEvent): void</text><rect codeLine="67" fill="#FFFFFF" height="154.0469" id="Registry" style="stroke:#000000;stroke-width:1.5;" width="300" x="12" y="1265.5"/><ellipse cx="125.25" cy="1285.6328" fill="#FFFFFF" rx="9" ry="9" style="stroke:#000000;stroke-width:1.0;"/><path d="M121.1719,1281.3984 L121.1719,1279.2422 L128.5625,1279.2422 L128.5625,1281.3984 L126.0938,1281.3984 L126.0938,1289.4766 L128.5625,1289.4766 L128.5625,1291.6328 L121.1719,1291.6328 L121.1719,1289.4766 L123.6406,1289.4766 L123.6406,1281.3984 L121.1719,1281.3984 Z " fill="#000000"/><text fill="#000000" font-family="Verdana" font-size="12" font-style="italic" lengthAdjust="spacing" textLength="70" x="140.75" y="1281.6387">«interface»</text><text fill="#000000" font-family="Verdana" font-size="14" font-style="italic" lengthAdjust="spacing" textLength="56" x="147.75" y="1297.4639">Registry</text><line style="stroke:#000000;stroke-width:1.5;" x1="13" x2="311" y1="1305.7656" y2="1305.7656"/><line style="stroke:#000000;stroke-width:1.5;" x1="13" x2="311" y1="1313.7656" y2="1313.7656"/><ellipse cx="23" cy="1324.7656" fill="#FFFFFF" rx="3" ry="3" style="stroke:#000000;stroke-width:1.0;"/><text fill="#000000" font-family="Verdana" font-size="14" lengthAdjust="spacing" textLength="99" x="30" y="1330.7607">clearUp(): void</text><ellipse cx="23" cy="1341.0625" fill="#FFFFFF" rx="3" ry="3" style="stroke:#000000;stroke-width:1.0;"/><text fill="#000000" font-family="Verdana" font-size="14" lengthAdjust="spacing" textLength="251" x="30" y="1347.0576">measure(): Iterable&lt;Measurement&gt;</text><ellipse cx="23" cy="1357.3594" fill="#FFFFFF" rx="3" ry="3" style="stroke:#000000;stroke-width:1.0;"/><text fill="#000000" font-family="Verdana" font-size="14" lengthAdjust="spacing" textLength="132" x="30" y="1363.3545">getTimer(Id): Timer</text><ellipse cx="23" cy="1373.6563" fill="#FFFFFF" rx="3" ry="3" style="stroke:#000000;stroke-width:1.0;"/><text fill="#000000" font-family="Verdana" font-size="14" lengthAdjust="spacing" textLength="276" x="30" y="1379.6514">getGauge(Id, Supplier&lt;T&gt;): Gauge&lt;T&gt;</text><ellipse cx="23" cy="1389.9531" fill="#FFFFFF" rx="3" ry="3" style="stroke:#000000;stroke-width:1.0;"/><text fill="#000000" font-family="Verdana" font-size="14" lengthAdjust="spacing" textLength="182" x="30" y="1395.9482">getSummary(Id): Summary</text><ellipse cx="23" cy="1406.25" fill="#FFFFFF" rx="3" ry="3" style="stroke:#000000;stroke-width:1.0;"/><text fill="#000000" font-family="Verdana" font-size="14" lengthAdjust="spacing" textLength="166" x="30" y="1412.2451">getCounter(Id): Counter</text><rect codeLine="79" fill="#FFFFFF" height="109.1875" id="SingletonHolder" style="stroke:#000000;stroke-width:1.5;" width="212" x="161" y="384"/><ellipse cx="208.25" cy="398" fill="#FFFFFF" rx="9" ry="9" style="stroke:#000000;stroke-width:1.0;"/><path d="M211.2188,403.6406 Q210.6406,403.9375 210,404.0859 Q209.3594,404.2344 208.6563,404.2344 Q206.1563,404.2344 204.8359,402.5859 Q203.5156,400.9375 203.5156,397.8125 Q203.5156,394.6875 204.8359,393.0313 Q206.1563,391.375 208.6563,391.375 Q209.3594,391.375 210.0078,391.5313 Q210.6563,391.6875 211.2188,391.9844 L211.2188,394.7031 Q210.5938,394.125 210,393.8516 Q209.4063,393.5781 208.7813,393.5781 Q207.4375,393.5781 206.75,394.6484 Q206.0625,395.7188 206.0625,397.8125 Q206.0625,399.9063 206.75,400.9766 Q207.4375,402.0469 208.7813,402.0469 Q209.4063,402.0469 210,401.7734 Q210.5938,401.5 211.2188,400.9219 L211.2188,403.6406 Z " fill="#000000"/><text fill="#000000" font-family="Verdana" font-size="14" lengthAdjust="spacing" textLength="110" x="225.75" y="402.8467">SingletonHolder</text><line style="stroke:#000000;stroke-width:1.5;" x1="162" x2="372" y1="412" y2="412"/><rect fill="none" height="6" style="stroke:#000000;stroke-width:1.0;" width="6" x="169" y="420"/><text fill="#000000" font-family="Verdana" font-size="14" lengthAdjust="spacing" textLength="188" x="179" y="428.9951">INSTANCE: MetricsManager</text><rect fill="none" height="6" style="stroke:#000000;stroke-width:1.0;" width="6" x="169" y="436.2969"/><text fill="#000000" font-family="Verdana" font-size="14" lengthAdjust="spacing" textLength="144" x="179" y="445.292">INSTANCE: EventBus</text><line style="stroke:#000000;stroke-width:1.5;" x1="162" x2="372" y1="452.5938" y2="452.5938"/><ellipse cx="172" cy="463.5938" fill="#FFFFFF" rx="3" ry="3" style="stroke:#000000;stroke-width:1.0;"/><text fill="#000000" font-family="Verdana" font-size="14" lengthAdjust="spacing" textLength="125" x="179" y="469.5889">SingletonHolder():</text><ellipse cx="172" cy="479.8906" fill="#FFFFFF" rx="3" ry="3" style="stroke:#000000;stroke-width:1.0;"/><text fill="#000000" font-family="Verdana" font-size="14" lengthAdjust="spacing" textLength="125" x="179" y="485.8857">SingletonHolder():</text><path codeLine="84" d="M300,324.1084 C300,324.1084 300,378.7226 300,378.7226 " fill="none" id="EventBusManager-to-SingletonHolder" style="stroke:#595959;stroke-width:1.0;stroke-dasharray:7.0,7.0;"/><polygon fill="#595959" points="300,383.7226,304,374.7226,300,378.7226,296,374.7226,300,383.7226" style="stroke:#595959;stroke-width:1.0;"/><path codeLine="95" d="M336.5,368.6956 C336.5,368.6956 336.5,324.1037 336.5,324.1037 " fill="none" id="SingletonHolder-backto-EventBusManager" style="stroke:#820000;stroke-width:1.0;"/><ellipse cx="336.5001" cy="375.6956" fill="#FFFFFF" rx="8" ry="8" style="stroke:#820000;stroke-width:1.0;"/><line style="stroke:#820000;stroke-width:1.0;" x1="336.5002" x2="336.5" y1="367.6956" y2="383.6956"/><line style="stroke:#820000;stroke-width:1.0;" x1="344.5001" x2="328.5001" y1="375.6957" y2="375.6955"/><path codeLine="85" d="M356.1563,616 C376.1123,616 391.5,616 391.5,616 C391.5,616 391.5,329.0594 391.5,329.0594 " fill="none" id="MetricsManager-to-EventBusManager" style="stroke:#595959;stroke-width:1.0;stroke-dasharray:7.0,7.0;"/><polygon fill="#595959" points="391.5,324.0594,387.5,333.0594,391.5,329.0594,395.5,333.0594,391.5,324.0594" style="stroke:#595959;stroke-width:1.0;"/><path codeLine="86" d="M213.6,552.7767 C213.6,536.2802 213.6,523 213.6,523 C213.6,523 169.5,523 169.5,523 C169.5,523 169.5,698 169.5,698 C169.5,698 197.875,698 197.875,698 C197.875,698 197.875,683.0291 197.875,683.0291 " fill="none" id="MetricsManager-to-MetricsManager" style="stroke:#595959;stroke-width:1.0;stroke-dasharray:7.0,7.0;"/><polygon fill="#595959" points="197.875,678.0291,193.875,687.0291,197.875,683.0291,201.875,687.0291,197.875,678.0291" style="stroke:#595959;stroke-width:1.0;"/><path codeLine="87" d="M305.5,678.2099 C305.5,678.2099 305.5,732.959 305.5,732.959 " fill="none" id="MetricsManager-to-MetricsSubscriber" style="stroke:#595959;stroke-width:1.0;stroke-dasharray:7.0,7.0;"/><polygon fill="#595959" points="305.5,737.959,309.5,728.959,305.5,732.959,301.5,728.959,305.5,737.959" style="stroke:#595959;stroke-width:1.0;"/><text fill="#000000" font-family="Verdana" font-size="13" lengthAdjust="spacing" textLength="41" x="263.5" y="701.6513">create</text><path codeLine="88" d="M184.625,690.1128 C184.625,690.1128 184.625,1252.4674 184.625,1252.4674 " fill="none" id="MetricsManager-Registry" style="stroke:#595959;stroke-width:1.0;"/><polygon fill="#595959" points="184.625,1265.4674,188.625,1256.4674,184.625,1260.4674,180.625,1256.4674,184.625,1265.4674" style="stroke:#595959;stroke-width:1.0;"/><line style="stroke:#595959;stroke-width:1.0;" x1="184.625" x2="184.625" y1="1260.4674" y2="1252.4674"/><polygon fill="#595959" points="184.625,678.1128,180.625,684.1128,184.625,690.1128,188.625,684.1128,184.625,678.1128" style="stroke:#595959;stroke-width:1.0;"/><text fill="#000000" font-family="Verdana" font-size="13" lengthAdjust="spacing" textLength="8" x="178.4002" y="1254.4814">1</text><text fill="#000000" font-family="Verdana" font-size="13" lengthAdjust="spacing" textLength="48" x="124.9902" y="698.6566">registry</text><text fill="#000000" font-family="Verdana" font-size="13" lengthAdjust="spacing" textLength="8" x="144.9902" y="713.7894">1</text><path codeLine="89" d="M346,187.1464 C346,187.1464 346,241.8073 346,241.8073 " fill="none" id="MetricsPublisher-to-EventBusManager" style="stroke:#595959;stroke-width:1.0;stroke-dasharray:7.0,7.0;"/><polygon fill="#595959" points="346,246.8073,350,237.8073,346,241.8073,342,237.8073,346,246.8073" style="stroke:#595959;stroke-width:1.0;"/><path codeLine="90" d="M346,28.7913 C346,18.2525 346,11 346,11 C346,11 40.25,11 40.25,11 C40.25,11 40.25,217 40.25,217 C40.25,217 114.75,217 114.75,217 C114.75,217 114.75,192.2153 114.75,192.2153 " fill="none" id="MetricsPublisher-to-MetricsPublisher" style="stroke:#595959;stroke-width:1.0;stroke-dasharray:7.0,7.0;"/><polygon fill="#595959" points="114.75,187.2153,110.75,196.2153,114.75,192.2153,118.75,196.2153,114.75,187.2153" style="stroke:#595959;stroke-width:1.0;"/><path codeLine="91" d="M410,737.766 C410,737.766 410,329.0858 410,329.0858 " fill="none" id="MetricsSubscriber-to-EventBusManager" style="stroke:#595959;stroke-width:1.0;stroke-dasharray:7.0,7.0;"/><polygon fill="#595959" points="410,324.0858,406,333.0858,410,329.0858,414,333.0858,410,324.0858" style="stroke:#595959;stroke-width:1.0;"/><path codeLine="92" d="M497,1124.0987 C497,1124.0987 497,1178.9552 497,1178.9552 " fill="none" id="MetricsSubscriber-to-MeterIdConstants" style="stroke:#595959;stroke-width:1.0;stroke-dasharray:7.0,7.0;"/><polygon fill="#595959" points="497,1183.9552,501,1174.9552,497,1178.9552,493,1174.9552,497,1183.9552" style="stroke:#595959;stroke-width:1.0;"/><path codeLine="93" d="M255,737.6567 C255,725.4883 255,718 255,718 C255,718 191.25,718 191.25,718 C191.25,718 191.25,1154 191.25,1154 C191.25,1154 276.1667,1154 276.1667,1154 C276.1667,1154 276.1667,1129.3873 276.1667,1129.3873 " fill="none" id="MetricsSubscriber-to-MetricsSubscriber" style="stroke:#595959;stroke-width:1.0;stroke-dasharray:7.0,7.0;"/><polygon fill="#595959" points="276.1667,1124.3873,272.1667,1133.3873,276.1667,1129.3873,280.1667,1133.3873,276.1667,1124.3873" style="stroke:#595959;stroke-width:1.0;"/><path codeLine="94" d="M240.3333,1136.0987 C240.3333,1136.0987 240.3333,1252.2561 240.3333,1252.2561 " fill="none" id="MetricsSubscriber-Registry" style="stroke:#595959;stroke-width:1.0;"/><polygon fill="#595959" points="240.3333,1265.2561,244.3333,1256.2561,240.3333,1260.2561,236.3333,1256.2561,240.3333,1265.2561" style="stroke:#595959;stroke-width:1.0;"/><line style="stroke:#595959;stroke-width:1.0;" x1="240.3333" x2="240.3333" y1="1260.2561" y2="1252.2562"/><polygon fill="#595959" points="240.3333,1124.0987,236.3333,1130.0987,240.3333,1136.0987,244.3333,1130.0987,240.3333,1124.0987" style="stroke:#595959;stroke-width:1.0;"/><text fill="#000000" font-family="Verdana" font-size="13" lengthAdjust="spacing" textLength="8" x="239.1859" y="1254.5146">1</text><text fill="#000000" font-family="Verdana" font-size="13" lengthAdjust="spacing" textLength="48" x="181.3698" y="1144.2951">registry</text><text fill="#000000" font-family="Verdana" font-size="13" lengthAdjust="spacing" textLength="8" x="201.3698" y="1159.4279">1</text><path codeLine="96" d="M249.2,508.0501 C249.2,508.0501 249.2,552.7675 249.2,552.7675 " fill="none" id="SingletonHolder-backto-MetricsManager" style="stroke:#820000;stroke-width:1.0;"/><ellipse cx="249.2" cy="501.0501" fill="#FFFFFF" rx="8" ry="8" style="stroke:#820000;stroke-width:1.0;"/><line style="stroke:#820000;stroke-width:1.0;" x1="249.2" x2="249.2" y1="509.0501" y2="493.0501"/><line style="stroke:#820000;stroke-width:1.0;" x1="241.2" x2="257.2" y1="501.0501" y2="501.0501"/><path codeLine="97" d="M284.8,505.0501 C284.8,505.0501 284.8,539.7675 284.8,539.7675 " fill="none" id="SingletonHolder-MetricsManager" style="stroke:#595959;stroke-width:1.0;"/><polygon fill="#595959" points="284.8,552.7675,288.8,543.7675,284.8,547.7675,280.8,543.7675,284.8,552.7675" style="stroke:#595959;stroke-width:1.0;"/><line style="stroke:#595959;stroke-width:1.0;" x1="284.8" x2="284.8" y1="547.7675" y2="539.7675"/><polygon fill="#595959" points="284.8,493.0501,280.8,499.0501,284.8,505.0501,288.8,499.0501,284.8,493.0501" style="stroke:#595959;stroke-width:1.0;"/><text fill="#000000" font-family="Verdana" font-size="13" lengthAdjust="spacing" textLength="8" x="278.3094" y="542.1335">1</text><text fill="#000000" font-family="Verdana" font-size="13" lengthAdjust="spacing" textLength="65" x="218.1003" y="513.1632">INSTANCE</text><text fill="#000000" font-family="Verdana" font-size="13" lengthAdjust="spacing" textLength="8" x="246.6003" y="528.2961">1</text><path codeLine="98" d="M320.4,493.0501 C320.4,493.0501 320.4,547.7675 320.4,547.7675 " fill="none" id="SingletonHolder-to-MetricsManager" style="stroke:#595959;stroke-width:1.0;stroke-dasharray:7.0,7.0;"/><polygon fill="#595959" points="320.4,552.7675,324.4,543.7675,320.4,547.7675,316.4,543.7675,320.4,552.7675" style="stroke:#595959;stroke-width:1.0;"/><text fill="#000000" font-family="Verdana" font-size="13" lengthAdjust="spacing" textLength="41" x="321.4" y="516.4757">create</text></g></svg>