<?xml version="1.0" encoding="UTF-8" standalone="no"?><svg xmlns="http://www.w3.org/2000/svg" xmlns:xlink="http://www.w3.org/1999/xlink" contentScriptType="application/ecmascript" contentStyleType="text/css" height="1202px" preserveAspectRatio="none" style="width:1025px;height:1202px;background:#FFFFFF;" version="1.1" viewBox="0 0 1025 1202" width="1025px" zoomAndPan="magnify"><defs/><g><rect codeLine="6" fill="#FFFFFF" height="317.0156" id="MeterIdConstants" style="stroke:#000000;stroke-width:1.5;" width="279" x="182" y="878"/><ellipse cx="256.25" cy="898.1328" fill="#FFFFFF" rx="9" ry="9" style="stroke:#000000;stroke-width:1.0;"/><path d="M252.1719,893.8984 L252.1719,891.7422 L259.5625,891.7422 L259.5625,893.8984 L257.0938,893.8984 L257.0938,901.9766 L259.5625,901.9766 L259.5625,904.1328 L252.1719,904.1328 L252.1719,901.9766 L254.6406,901.9766 L254.6406,893.8984 L252.1719,893.8984 Z " fill="#000000"/><text fill="#000000" font-family="Verdana" font-size="12" font-style="italic" lengthAdjust="spacing" textLength="70" x="300.25" y="894.1387">«interface»</text><text fill="#000000" font-family="Verdana" font-size="14" font-style="italic" lengthAdjust="spacing" textLength="123" x="273.75" y="909.9639">MeterIdConstants</text><line style="stroke:#000000;stroke-width:1.5;" x1="183" x2="460" y1="918.2656" y2="918.2656"/><ellipse cx="193" cy="929.2656" rx="3" ry="3" style="stroke:#000000;stroke-width:1.0;fill:none;"/><text fill="#000000" font-family="Verdana" font-size="14" lengthAdjust="spacing" textLength="157" x="200" y="935.2607">TIMER_COMMITTED: Id</text><ellipse cx="193" cy="945.5625" rx="3" ry="3" style="stroke:#000000;stroke-width:1.0;fill:none;"/><text fill="#000000" font-family="Verdana" font-size="14" lengthAdjust="spacing" textLength="192" x="200" y="951.5576">SUMMARY_ROLLBACKED: Id</text><ellipse cx="193" cy="961.8594" rx="3" ry="3" style="stroke:#000000;stroke-width:1.0;fill:none;"/><text fill="#000000" font-family="Verdana" font-size="14" lengthAdjust="spacing" textLength="216" x="200" y="967.8545">TIMER_AFTER_ROLLBACKED: Id</text><ellipse cx="193" cy="978.1563" rx="3" ry="3" style="stroke:#000000;stroke-width:1.0;fill:none;"/><text fill="#000000" font-family="Verdana" font-size="14" lengthAdjust="spacing" textLength="144" x="200" y="984.1514">TIMER_ROLLBACK: Id</text><ellipse cx="193" cy="994.4531" rx="3" ry="3" style="stroke:#000000;stroke-width:1.0;fill:none;"/><text fill="#000000" font-family="Verdana" font-size="14" lengthAdjust="spacing" textLength="237" x="200" y="1000.4482">SUMMARY_AFTER_COMMITTED: Id</text><ellipse cx="193" cy="1010.75" rx="3" ry="3" style="stroke:#000000;stroke-width:1.0;fill:none;"/><text fill="#000000" font-family="Verdana" font-size="14" lengthAdjust="spacing" textLength="183" x="200" y="1016.7451">COUNTER_COMMITTED: Id</text><ellipse cx="193" cy="1027.0469" rx="3" ry="3" style="stroke:#000000;stroke-width:1.0;fill:none;"/><text fill="#000000" font-family="Verdana" font-size="14" lengthAdjust="spacing" textLength="146" x="200" y="1033.042">SUMMARY_FAILED: Id</text><ellipse cx="193" cy="1043.3438" rx="3" ry="3" style="stroke:#000000;stroke-width:1.0;fill:none;"/><text fill="#000000" font-family="Verdana" font-size="14" lengthAdjust="spacing" textLength="118" x="200" y="1049.3389">TIMER_FAILED: Id</text><ellipse cx="193" cy="1059.6406" rx="3" ry="3" style="stroke:#000000;stroke-width:1.0;fill:none;"/><text fill="#000000" font-family="Verdana" font-size="14" lengthAdjust="spacing" textLength="185" x="200" y="1065.6357">SUMMARY_COMMITTED: Id</text><ellipse cx="193" cy="1075.9375" rx="3" ry="3" style="stroke:#000000;stroke-width:1.0;fill:none;"/><text fill="#000000" font-family="Verdana" font-size="14" lengthAdjust="spacing" textLength="255" x="200" y="1081.9326">SUMMARY_TWO_PHASE_TIMEOUT: Id</text><ellipse cx="193" cy="1092.2344" rx="3" ry="3" style="stroke:#000000;stroke-width:1.0;fill:none;"/><text fill="#000000" font-family="Verdana" font-size="14" lengthAdjust="spacing" textLength="242" x="200" y="1098.2295">COUNTER_AFTER_ROLLBACKED: Id</text><ellipse cx="193" cy="1108.5313" rx="3" ry="3" style="stroke:#000000;stroke-width:1.0;fill:none;"/><text fill="#000000" font-family="Verdana" font-size="14" lengthAdjust="spacing" textLength="209" x="200" y="1114.5264">TIMER_AFTER_COMMITTED: Id</text><ellipse cx="193" cy="1124.8281" rx="3" ry="3" style="stroke:#000000;stroke-width:1.0;fill:none;"/><text fill="#000000" font-family="Verdana" font-size="14" lengthAdjust="spacing" textLength="146" x="200" y="1130.8232">COUNTER_ACTIVE: Id</text><ellipse cx="193" cy="1141.125" rx="3" ry="3" style="stroke:#000000;stroke-width:1.0;fill:none;"/><text fill="#000000" font-family="Verdana" font-size="14" lengthAdjust="spacing" textLength="235" x="200" y="1147.1201">COUNTER_AFTER_COMMITTED: Id</text><ellipse cx="193" cy="1157.4219" rx="3" ry="3" style="stroke:#000000;stroke-width:1.0;fill:none;"/><text fill="#000000" font-family="Verdana" font-size="14" lengthAdjust="spacing" textLength="190" x="200" y="1163.417">COUNTER_ROLLBACKED: Id</text><ellipse cx="193" cy="1173.7188" rx="3" ry="3" style="stroke:#000000;stroke-width:1.0;fill:none;"/><text fill="#000000" font-family="Verdana" font-size="14" lengthAdjust="spacing" textLength="244" x="200" y="1179.7139">SUMMARY_AFTER_ROLLBACKED: Id</text><line style="stroke:#000000;stroke-width:1.5;" x1="183" x2="460" y1="1187.0156" y2="1187.0156"/><rect codeLine="24" fill="#FFFFFF" height="125.4844" id="MetricsManager" style="stroke:#000000;stroke-width:1.5;" width="178" x="232.5" y="247"/><ellipse cx="263.5" cy="261" fill="#FFFFFF" rx="9" ry="9" style="stroke:#000000;stroke-width:1.0;"/><path d="M266.4688,266.6406 Q265.8906,266.9375 265.25,267.0859 Q264.6094,267.2344 263.9063,267.2344 Q261.4063,267.2344 260.0859,265.5859 Q258.7656,263.9375 258.7656,260.8125 Q258.7656,257.6875 260.0859,256.0313 Q261.4063,254.375 263.9063,254.375 Q264.6094,254.375 265.2578,254.5313 Q265.9063,254.6875 266.4688,254.9844 L266.4688,257.7031 Q265.8438,257.125 265.25,256.8516 Q264.6563,256.5781 264.0313,256.5781 Q262.6875,256.5781 262,257.6484 Q261.3125,258.7188 261.3125,260.8125 Q261.3125,262.9063 262,263.9766 Q262.6875,265.0469 264.0313,265.0469 Q264.6563,265.0469 265.25,264.7734 Q265.8438,264.5 266.4688,263.9219 L266.4688,266.6406 Z " fill="#000000"/><text fill="#000000" font-family="Verdana" font-size="14" lengthAdjust="spacing" textLength="110" x="279.5" y="265.8467">MetricsManager</text><line style="stroke:#000000;stroke-width:1.5;" x1="233.5" x2="409.5" y1="275" y2="275"/><rect fill="none" height="6" style="stroke:#000000;stroke-width:1.0;" width="6" x="240.5" y="283"/><text fill="#000000" font-family="Verdana" font-size="14" lengthAdjust="spacing" textLength="116" x="250.5" y="291.9951">registry: Registry</text><line style="stroke:#000000;stroke-width:1.5;" x1="233.5" x2="409.5" y1="299.2969" y2="299.2969"/><ellipse cx="243.5" cy="310.2969" fill="#FFFFFF" rx="3" ry="3" style="stroke:#000000;stroke-width:1.0;"/><text fill="#000000" font-family="Verdana" font-size="14" lengthAdjust="spacing" textLength="125" x="250.5" y="316.292">MetricsManager():</text><ellipse cx="243.5" cy="326.5938" fill="#FFFFFF" rx="3" ry="3" style="stroke:#000000;stroke-width:1.0;"/><text fill="#000000" font-family="Verdana" font-size="14" lengthAdjust="spacing" textLength="67" x="250.5" y="332.5889">init(): void</text><ellipse cx="243.5" cy="342.8906" fill="#FFFFFF" rx="3" ry="3" style="stroke:#000000;stroke-width:1.0;"/><text fill="#000000" font-family="Verdana" font-size="14" lengthAdjust="spacing" textLength="152" x="250.5" y="348.8857">get(): MetricsManager</text><ellipse cx="243.5" cy="359.1875" fill="#FFFFFF" rx="3" ry="3" style="stroke:#000000;stroke-width:1.0;"/><text fill="#000000" font-family="Verdana" font-size="14" lengthAdjust="spacing" textLength="154" x="250.5" y="365.1826">getRegistry(): Registry</text><rect codeLine="31" fill="#FFFFFF" height="158.0781" id="MetricsPublisher" style="stroke:#000000;stroke-width:1.5;" width="555" x="463" y="29"/><ellipse cx="679.75" cy="43" fill="#FFFFFF" rx="9" ry="9" style="stroke:#000000;stroke-width:1.0;"/><path d="M682.7188,48.6406 Q682.1406,48.9375 681.5,49.0859 Q680.8594,49.2344 680.1563,49.2344 Q677.6563,49.2344 676.3359,47.5859 Q675.0156,45.9375 675.0156,42.8125 Q675.0156,39.6875 676.3359,38.0313 Q677.6563,36.375 680.1563,36.375 Q680.8594,36.375 681.5078,36.5313 Q682.1563,36.6875 682.7188,36.9844 L682.7188,39.7031 Q682.0938,39.125 681.5,38.8516 Q680.9063,38.5781 680.2813,38.5781 Q678.9375,38.5781 678.25,39.6484 Q677.5625,40.7188 677.5625,42.8125 Q677.5625,44.9063 678.25,45.9766 Q678.9375,47.0469 680.2813,47.0469 Q680.9063,47.0469 681.5,46.7734 Q682.0938,46.5 682.7188,45.9219 L682.7188,48.6406 Z " fill="#000000"/><text fill="#000000" font-family="Verdana" font-size="14" lengthAdjust="spacing" textLength="114" x="697.25" y="47.8467">MetricsPublisher</text><line style="stroke:#000000;stroke-width:1.5;" x1="464" x2="1017" y1="57" y2="57"/><rect fill="none" height="6" style="stroke:#000000;stroke-width:1.0;" width="6" x="471" y="65"/><text fill="#000000" font-family="Verdana" font-size="14" lengthAdjust="spacing" textLength="157" x="481" y="73.9951">EVENT_BUS: EventBus</text><line style="stroke:#000000;stroke-width:1.5;" x1="464" x2="1017" y1="81.2969" y2="81.2969"/><ellipse cx="474" cy="92.2969" fill="#FFFFFF" rx="3" ry="3" style="stroke:#000000;stroke-width:1.0;"/><text fill="#000000" font-family="Verdana" font-size="14" lengthAdjust="spacing" textLength="129" x="481" y="98.292">MetricsPublisher():</text><ellipse cx="474" cy="108.5938" fill="#FFFFFF" rx="3" ry="3" style="stroke:#000000;stroke-width:1.0;"/><text fill="#000000" font-family="Verdana" font-size="14" lengthAdjust="spacing" textLength="522" x="481" y="114.5889">postSessionDoneEvent(GlobalSession, String, boolean, long, boolean): void</text><ellipse cx="474" cy="124.8906" fill="#FFFFFF" rx="3" ry="3" style="stroke:#000000;stroke-width:1.0;"/><text fill="#000000" font-family="Verdana" font-size="14" lengthAdjust="spacing" textLength="375" x="481" y="130.8857">postSessionDoingEvent(GlobalSession, boolean): void</text><ellipse cx="474" cy="141.1875" fill="#FFFFFF" rx="3" ry="3" style="stroke:#000000;stroke-width:1.0;"/><text fill="#000000" font-family="Verdana" font-size="14" lengthAdjust="spacing" textLength="531" x="481" y="147.1826">postSessionDoneEvent(GlobalSession, GlobalStatus, boolean, boolean): void</text><ellipse cx="474" cy="157.4844" fill="#FFFFFF" rx="3" ry="3" style="stroke:#000000;stroke-width:1.0;"/><text fill="#000000" font-family="Verdana" font-size="14" lengthAdjust="spacing" textLength="436" x="481" y="163.4795">postSessionDoneEvent(GlobalSession, boolean, boolean): void</text><ellipse cx="474" cy="173.7813" fill="#FFFFFF" rx="3" ry="3" style="stroke:#000000;stroke-width:1.0;"/><text fill="#000000" font-family="Verdana" font-size="14" lengthAdjust="spacing" textLength="487" x="481" y="179.7764">postSessionDoingEvent(GlobalSession, String, boolean, boolean): void</text><rect codeLine="40" fill="#FFFFFF" height="386.2344" id="MetricsSubscriber" style="stroke:#000000;stroke-width:1.5;" width="585" x="29" y="432"/><ellipse cx="255.75" cy="446" fill="#FFFFFF" rx="9" ry="9" style="stroke:#000000;stroke-width:1.0;"/><path d="M258.7188,451.6406 Q258.1406,451.9375 257.5,452.0859 Q256.8594,452.2344 256.1563,452.2344 Q253.6563,452.2344 252.3359,450.5859 Q251.0156,448.9375 251.0156,445.8125 Q251.0156,442.6875 252.3359,441.0313 Q253.6563,439.375 256.1563,439.375 Q256.8594,439.375 257.5078,439.5313 Q258.1563,439.6875 258.7188,439.9844 L258.7188,442.7031 Q258.0938,442.125 257.5,441.8516 Q256.9063,441.5781 256.2813,441.5781 Q254.9375,441.5781 254.25,442.6484 Q253.5625,443.7188 253.5625,445.8125 Q253.5625,447.9063 254.25,448.9766 Q254.9375,450.0469 256.2813,450.0469 Q256.9063,450.0469 257.5,449.7734 Q258.0938,449.5 258.7188,448.9219 L258.7188,451.6406 Z " fill="#000000"/><text fill="#000000" font-family="Verdana" font-size="14" lengthAdjust="spacing" textLength="124" x="273.25" y="450.8467">MetricsSubscriber</text><line style="stroke:#000000;stroke-width:1.5;" x1="30" x2="613" y1="460" y2="460"/><rect fill="none" height="6" style="stroke:#000000;stroke-width:1.0;" width="6" x="37" y="468"/><text fill="#000000" font-family="Verdana" font-size="14" lengthAdjust="spacing" textLength="116" x="47" y="476.9951">LOGGER: Logger</text><rect fill="none" height="6" style="stroke:#000000;stroke-width:1.0;" width="6" x="37" y="484.2969"/><text fill="#000000" font-family="Verdana" font-size="14" lengthAdjust="spacing" textLength="116" x="47" y="493.292">registry: Registry</text><rect fill="none" height="6" style="stroke:#000000;stroke-width:1.0;" width="6" x="37" y="500.5938"/><text fill="#000000" font-family="Verdana" font-size="14" lengthAdjust="spacing" textLength="447" x="47" y="509.5889">consumers: Map&lt;String, Consumer&lt;GlobalTransactionEvent&gt;&gt;</text><line style="stroke:#000000;stroke-width:1.5;" x1="30" x2="613" y1="516.8906" y2="516.8906"/><ellipse cx="40" cy="527.8906" fill="#FFFFFF" rx="3" ry="3" style="stroke:#000000;stroke-width:1.0;"/><text fill="#000000" font-family="Verdana" font-size="14" lengthAdjust="spacing" textLength="195" x="47" y="533.8857">MetricsSubscriber(Registry):</text><rect fill="#FFFFFF" height="6" style="stroke:#000000;stroke-width:1.0;" width="6" x="37" y="541.1875"/><text fill="#000000" font-family="Verdana" font-size="14" lengthAdjust="spacing" textLength="429" x="47" y="550.1826">processGlobalStatusRollbacked(GlobalTransactionEvent): void</text><rect fill="#FFFFFF" height="6" style="stroke:#000000;stroke-width:1.0;" width="6" x="37" y="557.4844"/><text fill="#000000" font-family="Verdana" font-size="14" lengthAdjust="spacing" textLength="429" x="47" y="566.4795">processGlobalStatusCommitted(GlobalTransactionEvent): void</text><rect fill="#FFFFFF" height="6" style="stroke:#000000;stroke-width:1.0;" width="6" x="37" y="573.7813"/><text fill="#000000" font-family="Verdana" font-size="14" lengthAdjust="spacing" textLength="381" x="47" y="582.7764">reportTwoPhaseTimeout(GlobalTransactionEvent): void</text><rect fill="#FFFFFF" height="6" style="stroke:#000000;stroke-width:1.0;" width="6" x="37" y="590.0781"/><text fill="#000000" font-family="Verdana" font-size="14" lengthAdjust="spacing" textLength="499" x="47" y="599.0732">processGlobalStatusCommitRetryTimeout(GlobalTransactionEvent): void</text><rect fill="#FFFFFF" height="6" style="stroke:#000000;stroke-width:1.0;" width="6" x="37" y="606.375"/><text fill="#000000" font-family="Verdana" font-size="14" lengthAdjust="spacing" textLength="446" x="47" y="615.3701">processGlobalStatusCommitFailed(GlobalTransactionEvent): void</text><rect fill="#FFFFFF" height="6" style="stroke:#000000;stroke-width:1.0;" width="6" x="37" y="622.6719"/><text fill="#000000" font-family="Verdana" font-size="14" lengthAdjust="spacing" textLength="486" x="47" y="631.667">processGlobalStatusTimeoutRollbacked(GlobalTransactionEvent): void</text><ellipse cx="40" cy="641.9688" fill="#FFFFFF" rx="3" ry="3" style="stroke:#000000;stroke-width:1.0;"/><text fill="#000000" font-family="Verdana" font-size="14" lengthAdjust="spacing" textLength="107" x="47" y="647.9639">hashCode(): int</text><rect fill="#FFFFFF" height="6" style="stroke:#000000;stroke-width:1.0;" width="6" x="37" y="655.2656"/><text fill="#000000" font-family="Verdana" font-size="14" lengthAdjust="spacing" textLength="316" x="47" y="664.2607">decreaseActive(GlobalTransactionEvent): void</text><rect fill="#FFFFFF" height="6" style="stroke:#000000;stroke-width:1.0;" width="6" x="37" y="671.5625"/><text fill="#000000" font-family="Verdana" font-size="14" lengthAdjust="spacing" textLength="508" x="47" y="680.5576">processGlobalStatusTimeoutRollbackFailed(GlobalTransactionEvent): void</text><rect fill="#FFFFFF" height="6" style="stroke:#000000;stroke-width:1.0;" width="6" x="37" y="687.8594"/><text fill="#000000" font-family="Verdana" font-size="14" lengthAdjust="spacing" textLength="417" x="47" y="696.8545">processAfterGlobalRollbacked(GlobalTransactionEvent): void</text><rect fill="#FFFFFF" height="6" style="stroke:#000000;stroke-width:1.0;" width="6" x="37" y="704.1563"/><text fill="#000000" font-family="Verdana" font-size="14" lengthAdjust="spacing" textLength="451" x="47" y="713.1514">processGlobalStatusRollbackFailed(GlobalTransactionEvent): void</text><rect fill="#FFFFFF" height="6" style="stroke:#000000;stroke-width:1.0;" width="6" x="37" y="720.4531"/><text fill="#000000" font-family="Verdana" font-size="14" lengthAdjust="spacing" textLength="417" x="47" y="729.4482">processAfterGlobalCommitted(GlobalTransactionEvent): void</text><ellipse cx="40" cy="739.75" fill="#FFFFFF" rx="3" ry="3" style="stroke:#000000;stroke-width:1.0;"/><text fill="#000000" font-family="Verdana" font-size="14" lengthAdjust="spacing" textLength="166" x="47" y="745.7451">equals(Object): boolean</text><rect fill="#FFFFFF" height="6" style="stroke:#000000;stroke-width:1.0;" width="6" x="37" y="753.0469"/><text fill="#000000" font-family="Verdana" font-size="14" lengthAdjust="spacing" textLength="561" x="47" y="762.042">processGlobalStatusTimeoutRollbackRetryTimeout(GlobalTransactionEvent): void</text><rect fill="#FFFFFF" height="6" style="stroke:#000000;stroke-width:1.0;" width="6" x="37" y="769.3438"/><text fill="#000000" font-family="Verdana" font-size="14" lengthAdjust="spacing" textLength="292" x="47" y="778.3389">reportFailed(GlobalTransactionEvent): void</text><ellipse cx="40" cy="788.6406" fill="#FFFFFF" rx="3" ry="3" style="stroke:#000000;stroke-width:1.0;"/><text fill="#000000" font-family="Verdana" font-size="14" lengthAdjust="spacing" textLength="490" x="47" y="794.6357">recordGlobalTransactionEventForMetrics(GlobalTransactionEvent): void</text><rect fill="#FFFFFF" height="6" style="stroke:#000000;stroke-width:1.0;" width="6" x="37" y="801.9375"/><text fill="#000000" font-family="Verdana" font-size="14" lengthAdjust="spacing" textLength="393" x="47" y="810.9326">processGlobalStatusBegin(GlobalTransactionEvent): void</text><rect codeLine="63" fill="#FFFFFF" height="76.5938" id="SingletonHolder" style="stroke:#000000;stroke-width:1.5;" width="212" x="215.5" y="69.5"/><ellipse cx="262.75" cy="83.5" fill="#FFFFFF" rx="9" ry="9" style="stroke:#000000;stroke-width:1.0;"/><path d="M265.7188,89.1406 Q265.1406,89.4375 264.5,89.5859 Q263.8594,89.7344 263.1563,89.7344 Q260.6563,89.7344 259.3359,88.0859 Q258.0156,86.4375 258.0156,83.3125 Q258.0156,80.1875 259.3359,78.5313 Q260.6563,76.875 263.1563,76.875 Q263.8594,76.875 264.5078,77.0313 Q265.1563,77.1875 265.7188,77.4844 L265.7188,80.2031 Q265.0938,79.625 264.5,79.3516 Q263.9063,79.0781 263.2813,79.0781 Q261.9375,79.0781 261.25,80.1484 Q260.5625,81.2188 260.5625,83.3125 Q260.5625,85.4063 261.25,86.4766 Q261.9375,87.5469 263.2813,87.5469 Q263.9063,87.5469 264.5,87.2734 Q265.0938,87 265.7188,86.4219 L265.7188,89.1406 Z " fill="#000000"/><text fill="#000000" font-family="Verdana" font-size="14" lengthAdjust="spacing" textLength="110" x="280.25" y="88.3467">SingletonHolder</text><line style="stroke:#000000;stroke-width:1.5;" x1="216.5" x2="426.5" y1="97.5" y2="97.5"/><rect fill="none" height="6" style="stroke:#000000;stroke-width:1.0;" width="6" x="223.5" y="105.5"/><text fill="#000000" font-family="Verdana" font-size="14" lengthAdjust="spacing" textLength="188" x="233.5" y="114.4951">INSTANCE: MetricsManager</text><line style="stroke:#000000;stroke-width:1.5;" x1="216.5" x2="426.5" y1="121.7969" y2="121.7969"/><ellipse cx="226.5" cy="132.7969" fill="#FFFFFF" rx="3" ry="3" style="stroke:#000000;stroke-width:1.0;"/><text fill="#000000" font-family="Verdana" font-size="14" lengthAdjust="spacing" textLength="125" x="233.5" y="138.792">SingletonHolder():</text><path codeLine="68" d="M268.1,246.9709 C268.1,235.4645 268.1,227 268.1,227 C268.1,227 224,227 224,227 C224,227 224,412 224,412 C224,412 291.8333,412 291.8333,412 C291.8333,412 291.8333,377.0773 291.8333,377.0773 " fill="none" id="MetricsManager-to-MetricsManager" style="stroke:#595959;stroke-width:1.0;stroke-dasharray:7.0,7.0;"/><polygon fill="#595959" points="291.8333,372.0773,287.8333,381.0773,291.8333,377.0773,295.8333,381.0773,291.8333,372.0773" style="stroke:#595959;stroke-width:1.0;"/><path codeLine="69" d="M351.1667,372.2099 C351.1667,372.2099 351.1667,426.959 351.1667,426.959 " fill="none" id="MetricsManager-to-MetricsSubscriber" style="stroke:#595959;stroke-width:1.0;stroke-dasharray:7.0,7.0;"/><polygon fill="#595959" points="351.1667,431.959,355.1667,422.959,351.1667,426.959,347.1667,422.959,351.1667,431.959" style="stroke:#595959;stroke-width:1.0;"/><text fill="#000000" font-family="Verdana" font-size="13" lengthAdjust="spacing" textLength="41" x="309.1667" y="395.6513">create</text><path codeLine="70" d="M740.5,28.7913 C740.5,18.2525 740.5,11 740.5,11 C740.5,11 445.25,11 445.25,11 C445.25,11 445.25,207 445.25,207 C445.25,207 538.5,207 538.5,207 C538.5,207 538.5,192.4408 538.5,192.4408 " fill="none" id="MetricsPublisher-to-MetricsPublisher" style="stroke:#595959;stroke-width:1.0;stroke-dasharray:7.0,7.0;"/><polygon fill="#595959" points="538.5,187.4408,534.5,196.4408,538.5,192.4408,542.5,196.4408,538.5,187.4408" style="stroke:#595959;stroke-width:1.0;"/><path codeLine="71" d="M321.5,818.0987 C321.5,818.0987 321.5,872.9552 321.5,872.9552 " fill="none" id="MetricsSubscriber-to-MeterIdConstants" style="stroke:#595959;stroke-width:1.0;stroke-dasharray:7.0,7.0;"/><polygon fill="#595959" points="321.5,877.9552,325.5,868.9552,321.5,872.9552,317.5,868.9552,321.5,877.9552" style="stroke:#595959;stroke-width:1.0;"/><path codeLine="72" d="M122.25,431.7894 C122.25,408.0791 122.25,392 122.25,392 C122.25,392 11,392 11,392 C11,392 11,848 11,848 C11,848 105.5,848 105.5,848 C105.5,848 105.5,823.3873 105.5,823.3873 " fill="none" id="MetricsSubscriber-to-MetricsSubscriber" style="stroke:#595959;stroke-width:1.0;stroke-dasharray:7.0,7.0;"/><polygon fill="#595959" points="105.5,818.3873,101.5,827.3873,105.5,823.3873,109.5,827.3873,105.5,818.3873" style="stroke:#595959;stroke-width:1.0;"/><path codeLine="73" d="M303.7,161.8512 C303.7,161.8512 303.7,246.9864 303.7,246.9864 " fill="none" id="SingletonHolder-backto-MetricsManager" style="stroke:#820000;stroke-width:1.0;"/><ellipse cx="303.7001" cy="154.8512" fill="#FFFFFF" rx="8" ry="8" style="stroke:#820000;stroke-width:1.0;"/><line style="stroke:#820000;stroke-width:1.0;" x1="303.7002" x2="303.7" y1="162.8512" y2="146.8512"/><line style="stroke:#820000;stroke-width:1.0;" x1="295.7001" x2="311.7001" y1="154.8513" y2="154.8511"/><path codeLine="74" d="M339.3,158.8512 C339.3,158.8512 339.3,233.9864 339.3,233.9864 " fill="none" id="SingletonHolder-MetricsManager" style="stroke:#595959;stroke-width:1.0;"/><polygon fill="#595959" points="339.3,246.9864,343.3,237.9864,339.3,241.9864,335.3,237.9864,339.3,246.9864" style="stroke:#595959;stroke-width:1.0;"/><line style="stroke:#595959;stroke-width:1.0;" x1="339.3" x2="339.3" y1="241.9864" y2="233.9864"/><polygon fill="#595959" points="339.3,146.8512,335.3,152.8512,339.3,158.8512,343.3,152.8512,339.3,146.8512" style="stroke:#595959;stroke-width:1.0;"/><text fill="#000000" font-family="Verdana" font-size="13" lengthAdjust="spacing" textLength="8" x="332.8956" y="235.9376">1</text><text fill="#000000" font-family="Verdana" font-size="13" lengthAdjust="spacing" textLength="65" x="272.3247" y="166.1995">INSTANCE</text><text fill="#000000" font-family="Verdana" font-size="13" lengthAdjust="spacing" textLength="8" x="300.8247" y="181.3323">1</text><path codeLine="75" d="M374.9,146.8512 C374.9,146.8512 374.9,241.9864 374.9,241.9864 " fill="none" id="SingletonHolder-to-MetricsManager" style="stroke:#595959;stroke-width:1.0;stroke-dasharray:7.0,7.0;"/><polygon fill="#595959" points="374.9,246.9864,378.9,237.9864,374.9,241.9864,370.9,237.9864,374.9,246.9864" style="stroke:#595959;stroke-width:1.0;"/><text fill="#000000" font-family="Verdana" font-size="13" lengthAdjust="spacing" textLength="41" x="332.9" y="190.4857">create</text></g></svg>